%TF.GenerationSoftware,KiCad,Pcbnew,(6.0.5)*%
%TF.CreationDate,2022-05-29T11:26:36-04:00*%
%TF.ProjectId,headphone_amp,68656164-7068-46f6-9e65-5f616d702e6b,rev?*%
%TF.SameCoordinates,Original*%
%TF.FileFunction,Legend,Bot*%
%TF.FilePolarity,Positive*%
%FSLAX46Y46*%
G04 Gerber Fmt 4.6, Leading zero omitted, Abs format (unit mm)*
G04 Created by KiCad (PCBNEW (6.0.5)) date 2022-05-29 11:26:36*
%MOMM*%
%LPD*%
G01*
G04 APERTURE LIST*
%ADD10C,0.150000*%
%ADD11C,0.120000*%
%ADD12C,0.100000*%
G04 APERTURE END LIST*
D10*
X155575000Y-107950000D02*
X151765000Y-107950000D01*
X151765000Y-107950000D02*
X151765000Y-114300000D01*
X151765000Y-114300000D02*
X155575000Y-114300000D01*
X155575000Y-114300000D02*
X155575000Y-107950000D01*
X146685000Y-91440000D02*
X141605000Y-91440000D01*
X141605000Y-91440000D02*
X141605000Y-95250000D01*
X141605000Y-95250000D02*
X146685000Y-95250000D01*
X146685000Y-95250000D02*
X146685000Y-91440000D01*
D11*
X161642904Y-97282857D02*
X161642904Y-96901904D01*
X160842904Y-96901904D01*
X161642904Y-97549523D02*
X160842904Y-97549523D01*
X161414333Y-97816190D01*
X160842904Y-98082857D01*
X161642904Y-98082857D01*
X161109571Y-98806666D02*
X161642904Y-98806666D01*
X160804809Y-98616190D02*
X161376238Y-98425714D01*
X161376238Y-98920952D01*
X161185761Y-99340000D02*
X161147666Y-99263809D01*
X161109571Y-99225714D01*
X161033380Y-99187619D01*
X160995285Y-99187619D01*
X160919095Y-99225714D01*
X160881000Y-99263809D01*
X160842904Y-99340000D01*
X160842904Y-99492380D01*
X160881000Y-99568571D01*
X160919095Y-99606666D01*
X160995285Y-99644761D01*
X161033380Y-99644761D01*
X161109571Y-99606666D01*
X161147666Y-99568571D01*
X161185761Y-99492380D01*
X161185761Y-99340000D01*
X161223857Y-99263809D01*
X161261952Y-99225714D01*
X161338142Y-99187619D01*
X161490523Y-99187619D01*
X161566714Y-99225714D01*
X161604809Y-99263809D01*
X161642904Y-99340000D01*
X161642904Y-99492380D01*
X161604809Y-99568571D01*
X161566714Y-99606666D01*
X161490523Y-99644761D01*
X161338142Y-99644761D01*
X161261952Y-99606666D01*
X161223857Y-99568571D01*
X161185761Y-99492380D01*
X160842904Y-100140000D02*
X160842904Y-100216190D01*
X160881000Y-100292380D01*
X160919095Y-100330476D01*
X160995285Y-100368571D01*
X161147666Y-100406666D01*
X161338142Y-100406666D01*
X161490523Y-100368571D01*
X161566714Y-100330476D01*
X161604809Y-100292380D01*
X161642904Y-100216190D01*
X161642904Y-100140000D01*
X161604809Y-100063809D01*
X161566714Y-100025714D01*
X161490523Y-99987619D01*
X161338142Y-99949523D01*
X161147666Y-99949523D01*
X160995285Y-99987619D01*
X160919095Y-100025714D01*
X160881000Y-100063809D01*
X160842904Y-100140000D01*
X161185761Y-100863809D02*
X161147666Y-100787619D01*
X161109571Y-100749523D01*
X161033380Y-100711428D01*
X160995285Y-100711428D01*
X160919095Y-100749523D01*
X160881000Y-100787619D01*
X160842904Y-100863809D01*
X160842904Y-101016190D01*
X160881000Y-101092380D01*
X160919095Y-101130476D01*
X160995285Y-101168571D01*
X161033380Y-101168571D01*
X161109571Y-101130476D01*
X161147666Y-101092380D01*
X161185761Y-101016190D01*
X161185761Y-100863809D01*
X161223857Y-100787619D01*
X161261952Y-100749523D01*
X161338142Y-100711428D01*
X161490523Y-100711428D01*
X161566714Y-100749523D01*
X161604809Y-100787619D01*
X161642904Y-100863809D01*
X161642904Y-101016190D01*
X161604809Y-101092380D01*
X161566714Y-101130476D01*
X161490523Y-101168571D01*
X161338142Y-101168571D01*
X161261952Y-101130476D01*
X161223857Y-101092380D01*
X161185761Y-101016190D01*
X161642904Y-102120952D02*
X160842904Y-102120952D01*
X161223857Y-102120952D02*
X161223857Y-102578095D01*
X161642904Y-102578095D02*
X160842904Y-102578095D01*
X161604809Y-103263809D02*
X161642904Y-103187619D01*
X161642904Y-103035238D01*
X161604809Y-102959047D01*
X161528619Y-102920952D01*
X161223857Y-102920952D01*
X161147666Y-102959047D01*
X161109571Y-103035238D01*
X161109571Y-103187619D01*
X161147666Y-103263809D01*
X161223857Y-103301904D01*
X161300047Y-103301904D01*
X161376238Y-102920952D01*
X161642904Y-103987619D02*
X161223857Y-103987619D01*
X161147666Y-103949523D01*
X161109571Y-103873333D01*
X161109571Y-103720952D01*
X161147666Y-103644761D01*
X161604809Y-103987619D02*
X161642904Y-103911428D01*
X161642904Y-103720952D01*
X161604809Y-103644761D01*
X161528619Y-103606666D01*
X161452428Y-103606666D01*
X161376238Y-103644761D01*
X161338142Y-103720952D01*
X161338142Y-103911428D01*
X161300047Y-103987619D01*
X161642904Y-104711428D02*
X160842904Y-104711428D01*
X161604809Y-104711428D02*
X161642904Y-104635238D01*
X161642904Y-104482857D01*
X161604809Y-104406666D01*
X161566714Y-104368571D01*
X161490523Y-104330476D01*
X161261952Y-104330476D01*
X161185761Y-104368571D01*
X161147666Y-104406666D01*
X161109571Y-104482857D01*
X161109571Y-104635238D01*
X161147666Y-104711428D01*
X161109571Y-105092380D02*
X161909571Y-105092380D01*
X161147666Y-105092380D02*
X161109571Y-105168571D01*
X161109571Y-105320952D01*
X161147666Y-105397142D01*
X161185761Y-105435238D01*
X161261952Y-105473333D01*
X161490523Y-105473333D01*
X161566714Y-105435238D01*
X161604809Y-105397142D01*
X161642904Y-105320952D01*
X161642904Y-105168571D01*
X161604809Y-105092380D01*
X161642904Y-105816190D02*
X160842904Y-105816190D01*
X161642904Y-106159047D02*
X161223857Y-106159047D01*
X161147666Y-106120952D01*
X161109571Y-106044761D01*
X161109571Y-105930476D01*
X161147666Y-105854285D01*
X161185761Y-105816190D01*
X161642904Y-106654285D02*
X161604809Y-106578095D01*
X161566714Y-106540000D01*
X161490523Y-106501904D01*
X161261952Y-106501904D01*
X161185761Y-106540000D01*
X161147666Y-106578095D01*
X161109571Y-106654285D01*
X161109571Y-106768571D01*
X161147666Y-106844761D01*
X161185761Y-106882857D01*
X161261952Y-106920952D01*
X161490523Y-106920952D01*
X161566714Y-106882857D01*
X161604809Y-106844761D01*
X161642904Y-106768571D01*
X161642904Y-106654285D01*
X161109571Y-107263809D02*
X161642904Y-107263809D01*
X161185761Y-107263809D02*
X161147666Y-107301904D01*
X161109571Y-107378095D01*
X161109571Y-107492380D01*
X161147666Y-107568571D01*
X161223857Y-107606666D01*
X161642904Y-107606666D01*
X161604809Y-108292380D02*
X161642904Y-108216190D01*
X161642904Y-108063809D01*
X161604809Y-107987619D01*
X161528619Y-107949523D01*
X161223857Y-107949523D01*
X161147666Y-107987619D01*
X161109571Y-108063809D01*
X161109571Y-108216190D01*
X161147666Y-108292380D01*
X161223857Y-108330476D01*
X161300047Y-108330476D01*
X161376238Y-107949523D01*
X161414333Y-109244761D02*
X161414333Y-109625714D01*
X161642904Y-109168571D02*
X160842904Y-109435238D01*
X161642904Y-109701904D01*
X161642904Y-109968571D02*
X161109571Y-109968571D01*
X161185761Y-109968571D02*
X161147666Y-110006666D01*
X161109571Y-110082857D01*
X161109571Y-110197142D01*
X161147666Y-110273333D01*
X161223857Y-110311428D01*
X161642904Y-110311428D01*
X161223857Y-110311428D02*
X161147666Y-110349523D01*
X161109571Y-110425714D01*
X161109571Y-110540000D01*
X161147666Y-110616190D01*
X161223857Y-110654285D01*
X161642904Y-110654285D01*
X161109571Y-111035238D02*
X161909571Y-111035238D01*
X161147666Y-111035238D02*
X161109571Y-111111428D01*
X161109571Y-111263809D01*
X161147666Y-111340000D01*
X161185761Y-111378095D01*
X161261952Y-111416190D01*
X161490523Y-111416190D01*
X161566714Y-111378095D01*
X161604809Y-111340000D01*
X161642904Y-111263809D01*
X161642904Y-111111428D01*
X161604809Y-111035238D01*
X162930904Y-94482857D02*
X162130904Y-94482857D01*
X162702333Y-94749523D01*
X162130904Y-95016190D01*
X162930904Y-95016190D01*
X162930904Y-95740000D02*
X162511857Y-95740000D01*
X162435666Y-95701904D01*
X162397571Y-95625714D01*
X162397571Y-95473333D01*
X162435666Y-95397142D01*
X162892809Y-95740000D02*
X162930904Y-95663809D01*
X162930904Y-95473333D01*
X162892809Y-95397142D01*
X162816619Y-95359047D01*
X162740428Y-95359047D01*
X162664238Y-95397142D01*
X162626142Y-95473333D01*
X162626142Y-95663809D01*
X162588047Y-95740000D01*
X162930904Y-96044761D02*
X162397571Y-96463809D01*
X162397571Y-96044761D02*
X162930904Y-96463809D01*
X162930904Y-97378095D02*
X162130904Y-97378095D01*
X162130904Y-97682857D01*
X162169000Y-97759047D01*
X162207095Y-97797142D01*
X162283285Y-97835238D01*
X162397571Y-97835238D01*
X162473761Y-97797142D01*
X162511857Y-97759047D01*
X162549952Y-97682857D01*
X162549952Y-97378095D01*
X162930904Y-98178095D02*
X162397571Y-98178095D01*
X162549952Y-98178095D02*
X162473761Y-98216190D01*
X162435666Y-98254285D01*
X162397571Y-98330476D01*
X162397571Y-98406666D01*
X162930904Y-98787619D02*
X162892809Y-98711428D01*
X162854714Y-98673333D01*
X162778523Y-98635238D01*
X162549952Y-98635238D01*
X162473761Y-98673333D01*
X162435666Y-98711428D01*
X162397571Y-98787619D01*
X162397571Y-98901904D01*
X162435666Y-98978095D01*
X162473761Y-99016190D01*
X162549952Y-99054285D01*
X162778523Y-99054285D01*
X162854714Y-99016190D01*
X162892809Y-98978095D01*
X162930904Y-98901904D01*
X162930904Y-98787619D01*
X162892809Y-99359047D02*
X162930904Y-99435238D01*
X162930904Y-99587619D01*
X162892809Y-99663809D01*
X162816619Y-99701904D01*
X162778523Y-99701904D01*
X162702333Y-99663809D01*
X162664238Y-99587619D01*
X162664238Y-99473333D01*
X162626142Y-99397142D01*
X162549952Y-99359047D01*
X162511857Y-99359047D01*
X162435666Y-99397142D01*
X162397571Y-99473333D01*
X162397571Y-99587619D01*
X162435666Y-99663809D01*
X162930904Y-100044761D02*
X162130904Y-100044761D01*
X162626142Y-100120952D02*
X162930904Y-100349523D01*
X162397571Y-100349523D02*
X162702333Y-100044761D01*
X162930904Y-101035238D02*
X162511857Y-101035238D01*
X162435666Y-100997142D01*
X162397571Y-100920952D01*
X162397571Y-100768571D01*
X162435666Y-100692380D01*
X162892809Y-101035238D02*
X162930904Y-100959047D01*
X162930904Y-100768571D01*
X162892809Y-100692380D01*
X162816619Y-100654285D01*
X162740428Y-100654285D01*
X162664238Y-100692380D01*
X162626142Y-100768571D01*
X162626142Y-100959047D01*
X162588047Y-101035238D01*
X162397571Y-101759047D02*
X162930904Y-101759047D01*
X162397571Y-101416190D02*
X162816619Y-101416190D01*
X162892809Y-101454285D01*
X162930904Y-101530476D01*
X162930904Y-101644761D01*
X162892809Y-101720952D01*
X162854714Y-101759047D01*
X162892809Y-102444761D02*
X162930904Y-102368571D01*
X162930904Y-102216190D01*
X162892809Y-102140000D01*
X162816619Y-102101904D01*
X162511857Y-102101904D01*
X162435666Y-102140000D01*
X162397571Y-102216190D01*
X162397571Y-102368571D01*
X162435666Y-102444761D01*
X162511857Y-102482857D01*
X162588047Y-102482857D01*
X162664238Y-102101904D01*
X162930904Y-102825714D02*
X162397571Y-102825714D01*
X162549952Y-102825714D02*
X162473761Y-102863809D01*
X162435666Y-102901904D01*
X162397571Y-102978095D01*
X162397571Y-103054285D01*
X162397571Y-104463809D02*
X162930904Y-104654285D01*
X162397571Y-104844761D01*
X162130904Y-105301904D02*
X162130904Y-105378095D01*
X162169000Y-105454285D01*
X162207095Y-105492380D01*
X162283285Y-105530476D01*
X162435666Y-105568571D01*
X162626142Y-105568571D01*
X162778523Y-105530476D01*
X162854714Y-105492380D01*
X162892809Y-105454285D01*
X162930904Y-105378095D01*
X162930904Y-105301904D01*
X162892809Y-105225714D01*
X162854714Y-105187619D01*
X162778523Y-105149523D01*
X162626142Y-105111428D01*
X162435666Y-105111428D01*
X162283285Y-105149523D01*
X162207095Y-105187619D01*
X162169000Y-105225714D01*
X162130904Y-105301904D01*
X162854714Y-105911428D02*
X162892809Y-105949523D01*
X162930904Y-105911428D01*
X162892809Y-105873333D01*
X162854714Y-105911428D01*
X162930904Y-105911428D01*
X162930904Y-106711428D02*
X162930904Y-106254285D01*
X162930904Y-106482857D02*
X162130904Y-106482857D01*
X162245190Y-106406666D01*
X162321380Y-106330476D01*
X162359476Y-106254285D01*
X162930904Y-108273333D02*
X162130904Y-108273333D01*
X162702333Y-108540000D01*
X162130904Y-108806666D01*
X162930904Y-108806666D01*
X162930904Y-109530476D02*
X162511857Y-109530476D01*
X162435666Y-109492380D01*
X162397571Y-109416190D01*
X162397571Y-109263809D01*
X162435666Y-109187619D01*
X162892809Y-109530476D02*
X162930904Y-109454285D01*
X162930904Y-109263809D01*
X162892809Y-109187619D01*
X162816619Y-109149523D01*
X162740428Y-109149523D01*
X162664238Y-109187619D01*
X162626142Y-109263809D01*
X162626142Y-109454285D01*
X162588047Y-109530476D01*
X162397571Y-109835238D02*
X162930904Y-110025714D01*
X162397571Y-110216190D02*
X162930904Y-110025714D01*
X163121380Y-109949523D01*
X163159476Y-109911428D01*
X163197571Y-109835238D01*
X162207095Y-111092380D02*
X162169000Y-111130476D01*
X162130904Y-111206666D01*
X162130904Y-111397142D01*
X162169000Y-111473333D01*
X162207095Y-111511428D01*
X162283285Y-111549523D01*
X162359476Y-111549523D01*
X162473761Y-111511428D01*
X162930904Y-111054285D01*
X162930904Y-111549523D01*
X162130904Y-112044761D02*
X162130904Y-112120952D01*
X162169000Y-112197142D01*
X162207095Y-112235238D01*
X162283285Y-112273333D01*
X162435666Y-112311428D01*
X162626142Y-112311428D01*
X162778523Y-112273333D01*
X162854714Y-112235238D01*
X162892809Y-112197142D01*
X162930904Y-112120952D01*
X162930904Y-112044761D01*
X162892809Y-111968571D01*
X162854714Y-111930476D01*
X162778523Y-111892380D01*
X162626142Y-111854285D01*
X162435666Y-111854285D01*
X162283285Y-111892380D01*
X162207095Y-111930476D01*
X162169000Y-111968571D01*
X162130904Y-112044761D01*
X162207095Y-112616190D02*
X162169000Y-112654285D01*
X162130904Y-112730476D01*
X162130904Y-112920952D01*
X162169000Y-112997142D01*
X162207095Y-113035238D01*
X162283285Y-113073333D01*
X162359476Y-113073333D01*
X162473761Y-113035238D01*
X162930904Y-112578095D01*
X162930904Y-113073333D01*
X162207095Y-113378095D02*
X162169000Y-113416190D01*
X162130904Y-113492380D01*
X162130904Y-113682857D01*
X162169000Y-113759047D01*
X162207095Y-113797142D01*
X162283285Y-113835238D01*
X162359476Y-113835238D01*
X162473761Y-113797142D01*
X162930904Y-113340000D01*
X162930904Y-113835238D01*
D10*
X169545000Y-85090000D02*
X161925000Y-85090000D01*
X161925000Y-85090000D02*
X161925000Y-91313000D01*
X161925000Y-91313000D02*
X169545000Y-91313000D01*
X169545000Y-91313000D02*
X169545000Y-85090000D01*
X136017000Y-104775000D02*
X129540000Y-104775000D01*
X129540000Y-104775000D02*
X129540000Y-112395000D01*
X129540000Y-112395000D02*
X136017000Y-112395000D01*
X136017000Y-112395000D02*
X136017000Y-104775000D01*
X134421619Y-110513571D02*
X135421619Y-110513571D01*
X134421619Y-110037380D02*
X135421619Y-110037380D01*
X134421619Y-109465952D01*
X135421619Y-109465952D01*
X134421619Y-108989761D02*
X135421619Y-108989761D01*
X135421619Y-108608809D01*
X135374000Y-108513571D01*
X135326380Y-108465952D01*
X135231142Y-108418333D01*
X135088285Y-108418333D01*
X134993047Y-108465952D01*
X134945428Y-108513571D01*
X134897809Y-108608809D01*
X134897809Y-108989761D01*
X135421619Y-107989761D02*
X134612095Y-107989761D01*
X134516857Y-107942142D01*
X134469238Y-107894523D01*
X134421619Y-107799285D01*
X134421619Y-107608809D01*
X134469238Y-107513571D01*
X134516857Y-107465952D01*
X134612095Y-107418333D01*
X135421619Y-107418333D01*
X135421619Y-107085000D02*
X135421619Y-106513571D01*
X134421619Y-106799285D02*
X135421619Y-106799285D01*
X130204595Y-105545000D02*
X130299833Y-105497380D01*
X130442690Y-105497380D01*
X130585547Y-105545000D01*
X130680785Y-105640238D01*
X130728404Y-105735476D01*
X130776023Y-105925952D01*
X130776023Y-106068809D01*
X130728404Y-106259285D01*
X130680785Y-106354523D01*
X130585547Y-106449761D01*
X130442690Y-106497380D01*
X130347452Y-106497380D01*
X130204595Y-106449761D01*
X130156976Y-106402142D01*
X130156976Y-106068809D01*
X130347452Y-106068809D01*
X130252214Y-111577380D02*
X130728404Y-111577380D01*
X130728404Y-110577380D01*
X130156976Y-109037380D02*
X130490309Y-108561190D01*
X130728404Y-109037380D02*
X130728404Y-108037380D01*
X130347452Y-108037380D01*
X130252214Y-108085000D01*
X130204595Y-108132619D01*
X130156976Y-108227857D01*
X130156976Y-108370714D01*
X130204595Y-108465952D01*
X130252214Y-108513571D01*
X130347452Y-108561190D01*
X130728404Y-108561190D01*
X168139761Y-85431380D02*
X167949285Y-85431380D01*
X167854047Y-85479000D01*
X167758809Y-85574238D01*
X167711190Y-85764714D01*
X167711190Y-86098047D01*
X167758809Y-86288523D01*
X167854047Y-86383761D01*
X167949285Y-86431380D01*
X168139761Y-86431380D01*
X168235000Y-86383761D01*
X168330238Y-86288523D01*
X168377857Y-86098047D01*
X168377857Y-85764714D01*
X168330238Y-85574238D01*
X168235000Y-85479000D01*
X168139761Y-85431380D01*
X167282619Y-85431380D02*
X167282619Y-86240904D01*
X167235000Y-86336142D01*
X167187380Y-86383761D01*
X167092142Y-86431380D01*
X166901666Y-86431380D01*
X166806428Y-86383761D01*
X166758809Y-86336142D01*
X166711190Y-86240904D01*
X166711190Y-85431380D01*
X166377857Y-85431380D02*
X165806428Y-85431380D01*
X166092142Y-86431380D02*
X166092142Y-85431380D01*
X165473095Y-86431380D02*
X165473095Y-85431380D01*
X165092142Y-85431380D01*
X164996904Y-85479000D01*
X164949285Y-85526619D01*
X164901666Y-85621857D01*
X164901666Y-85764714D01*
X164949285Y-85859952D01*
X164996904Y-85907571D01*
X165092142Y-85955190D01*
X165473095Y-85955190D01*
X164473095Y-85431380D02*
X164473095Y-86240904D01*
X164425476Y-86336142D01*
X164377857Y-86383761D01*
X164282619Y-86431380D01*
X164092142Y-86431380D01*
X163996904Y-86383761D01*
X163949285Y-86336142D01*
X163901666Y-86240904D01*
X163901666Y-85431380D01*
X163568333Y-85431380D02*
X162996904Y-85431380D01*
X163282619Y-86431380D02*
X163282619Y-85431380D01*
X167965476Y-91003380D02*
X168441666Y-91003380D01*
X168441666Y-90003380D01*
X165425476Y-91003380D02*
X165758809Y-90527190D01*
X165996904Y-91003380D02*
X165996904Y-90003380D01*
X165615952Y-90003380D01*
X165520714Y-90051000D01*
X165473095Y-90098619D01*
X165425476Y-90193857D01*
X165425476Y-90336714D01*
X165473095Y-90431952D01*
X165520714Y-90479571D01*
X165615952Y-90527190D01*
X165996904Y-90527190D01*
X162933095Y-90051000D02*
X163028333Y-90003380D01*
X163171190Y-90003380D01*
X163314047Y-90051000D01*
X163409285Y-90146238D01*
X163456904Y-90241476D01*
X163504523Y-90431952D01*
X163504523Y-90574809D01*
X163456904Y-90765285D01*
X163409285Y-90860523D01*
X163314047Y-90955761D01*
X163171190Y-91003380D01*
X163075952Y-91003380D01*
X162933095Y-90955761D01*
X162885476Y-90908142D01*
X162885476Y-90574809D01*
X163075952Y-90574809D01*
X151765000Y-100965000D02*
X150495000Y-100965000D01*
X155575000Y-100965000D02*
X154305000Y-100965000D01*
X151765000Y-99060000D02*
X150495000Y-99060000D01*
X155575000Y-99060000D02*
X154305000Y-99060000D01*
X151765000Y-86360000D02*
X150495000Y-86360000D01*
X155575000Y-86360000D02*
X154305000Y-86360000D01*
X151765000Y-84455000D02*
X150495000Y-84455000D01*
X155575000Y-84455000D02*
X154305000Y-84455000D01*
X153773095Y-101417380D02*
X153773095Y-100417380D01*
X153535000Y-100417380D01*
X153392142Y-100465000D01*
X153296904Y-100560238D01*
X153249285Y-100655476D01*
X153201666Y-100845952D01*
X153201666Y-100988809D01*
X153249285Y-101179285D01*
X153296904Y-101274523D01*
X153392142Y-101369761D01*
X153535000Y-101417380D01*
X153773095Y-101417380D01*
X152820714Y-100512619D02*
X152773095Y-100465000D01*
X152677857Y-100417380D01*
X152439761Y-100417380D01*
X152344523Y-100465000D01*
X152296904Y-100512619D01*
X152249285Y-100607857D01*
X152249285Y-100703095D01*
X152296904Y-100845952D01*
X152868333Y-101417380D01*
X152249285Y-101417380D01*
X153773095Y-99512380D02*
X153773095Y-98512380D01*
X153535000Y-98512380D01*
X153392142Y-98560000D01*
X153296904Y-98655238D01*
X153249285Y-98750476D01*
X153201666Y-98940952D01*
X153201666Y-99083809D01*
X153249285Y-99274285D01*
X153296904Y-99369523D01*
X153392142Y-99464761D01*
X153535000Y-99512380D01*
X153773095Y-99512380D01*
X152868333Y-98512380D02*
X152249285Y-98512380D01*
X152582619Y-98893333D01*
X152439761Y-98893333D01*
X152344523Y-98940952D01*
X152296904Y-98988571D01*
X152249285Y-99083809D01*
X152249285Y-99321904D01*
X152296904Y-99417142D01*
X152344523Y-99464761D01*
X152439761Y-99512380D01*
X152725476Y-99512380D01*
X152820714Y-99464761D01*
X152868333Y-99417142D01*
X153773095Y-86812380D02*
X153773095Y-85812380D01*
X153535000Y-85812380D01*
X153392142Y-85860000D01*
X153296904Y-85955238D01*
X153249285Y-86050476D01*
X153201666Y-86240952D01*
X153201666Y-86383809D01*
X153249285Y-86574285D01*
X153296904Y-86669523D01*
X153392142Y-86764761D01*
X153535000Y-86812380D01*
X153773095Y-86812380D01*
X152296904Y-85812380D02*
X152773095Y-85812380D01*
X152820714Y-86288571D01*
X152773095Y-86240952D01*
X152677857Y-86193333D01*
X152439761Y-86193333D01*
X152344523Y-86240952D01*
X152296904Y-86288571D01*
X152249285Y-86383809D01*
X152249285Y-86621904D01*
X152296904Y-86717142D01*
X152344523Y-86764761D01*
X152439761Y-86812380D01*
X152677857Y-86812380D01*
X152773095Y-86764761D01*
X152820714Y-86717142D01*
X153773095Y-84907380D02*
X153773095Y-83907380D01*
X153535000Y-83907380D01*
X153392142Y-83955000D01*
X153296904Y-84050238D01*
X153249285Y-84145476D01*
X153201666Y-84335952D01*
X153201666Y-84478809D01*
X153249285Y-84669285D01*
X153296904Y-84764523D01*
X153392142Y-84859761D01*
X153535000Y-84907380D01*
X153773095Y-84907380D01*
X152344523Y-84240714D02*
X152344523Y-84907380D01*
X152582619Y-83859761D02*
X152820714Y-84574047D01*
X152201666Y-84574047D01*
X139065000Y-90170000D02*
X139065000Y-93980000D01*
X158115000Y-110490000D02*
X158115000Y-114300000D01*
X153035000Y-93980000D02*
X150495000Y-93980000D01*
X134620000Y-85090000D02*
X132080000Y-85090000D01*
X139700000Y-85090000D02*
X137160000Y-85090000D01*
X143510000Y-100965000D02*
X140970000Y-100965000D01*
X152400000Y-91440000D02*
X150495000Y-91440000D01*
X158115000Y-93980000D02*
X155575000Y-93980000D01*
X138430000Y-98425000D02*
X135890000Y-98425000D01*
X144145000Y-112395000D02*
X146685000Y-112395000D01*
X125095000Y-104140000D02*
X125095000Y-106045000D01*
X141605000Y-109855000D02*
X139065000Y-109855000D01*
X153035000Y-96520000D02*
X150495000Y-96520000D01*
X137160000Y-87630000D02*
X139700000Y-87630000D01*
X147320000Y-85090000D02*
X143510000Y-85090000D01*
X128905000Y-86360000D02*
X125730000Y-86360000D01*
X127635000Y-104140000D02*
X127635000Y-106045000D01*
X146685000Y-109855000D02*
X144145000Y-109855000D01*
X143510000Y-98425000D02*
X140970000Y-98425000D01*
X125095000Y-109855000D02*
X125095000Y-111760000D01*
X137795000Y-95250000D02*
X134620000Y-95250000D01*
X127635000Y-109855000D02*
X127635000Y-111760000D01*
X153035000Y-103505000D02*
X149860000Y-103505000D01*
X138430000Y-100965000D02*
X135890000Y-100965000D01*
X156210000Y-91440000D02*
X158115000Y-91440000D01*
X132080000Y-87630000D02*
X134620000Y-87630000D01*
X155575000Y-88900000D02*
X158115000Y-88900000D01*
X155575000Y-96520000D02*
X158115000Y-96520000D01*
X140335000Y-104140000D02*
X137160000Y-104140000D01*
X159385000Y-103505000D02*
X156210000Y-103505000D01*
X153035000Y-88900000D02*
X150495000Y-88900000D01*
X146685000Y-106680000D02*
X142875000Y-106680000D01*
X139065000Y-112395000D02*
X141605000Y-112395000D01*
%TO.C,R7*%
X154471666Y-96972380D02*
X154805000Y-96496190D01*
X155043095Y-96972380D02*
X155043095Y-95972380D01*
X154662142Y-95972380D01*
X154566904Y-96020000D01*
X154519285Y-96067619D01*
X154471666Y-96162857D01*
X154471666Y-96305714D01*
X154519285Y-96400952D01*
X154566904Y-96448571D01*
X154662142Y-96496190D01*
X155043095Y-96496190D01*
X154138333Y-95972380D02*
X153471666Y-95972380D01*
X153900238Y-96972380D01*
%TO.C,C2*%
X157011666Y-112752142D02*
X157059285Y-112799761D01*
X157202142Y-112847380D01*
X157297380Y-112847380D01*
X157440238Y-112799761D01*
X157535476Y-112704523D01*
X157583095Y-112609285D01*
X157630714Y-112418809D01*
X157630714Y-112275952D01*
X157583095Y-112085476D01*
X157535476Y-111990238D01*
X157440238Y-111895000D01*
X157297380Y-111847380D01*
X157202142Y-111847380D01*
X157059285Y-111895000D01*
X157011666Y-111942619D01*
X156630714Y-111942619D02*
X156583095Y-111895000D01*
X156487857Y-111847380D01*
X156249761Y-111847380D01*
X156154523Y-111895000D01*
X156106904Y-111942619D01*
X156059285Y-112037857D01*
X156059285Y-112133095D01*
X156106904Y-112275952D01*
X156678333Y-112847380D01*
X156059285Y-112847380D01*
%TO.C,R12*%
X125547380Y-107307142D02*
X125071190Y-106973809D01*
X125547380Y-106735714D02*
X124547380Y-106735714D01*
X124547380Y-107116666D01*
X124595000Y-107211904D01*
X124642619Y-107259523D01*
X124737857Y-107307142D01*
X124880714Y-107307142D01*
X124975952Y-107259523D01*
X125023571Y-107211904D01*
X125071190Y-107116666D01*
X125071190Y-106735714D01*
X125547380Y-108259523D02*
X125547380Y-107688095D01*
X125547380Y-107973809D02*
X124547380Y-107973809D01*
X124690238Y-107878571D01*
X124785476Y-107783333D01*
X124833095Y-107688095D01*
X124642619Y-108640476D02*
X124595000Y-108688095D01*
X124547380Y-108783333D01*
X124547380Y-109021428D01*
X124595000Y-109116666D01*
X124642619Y-109164285D01*
X124737857Y-109211904D01*
X124833095Y-109211904D01*
X124975952Y-109164285D01*
X125547380Y-108592857D01*
X125547380Y-109211904D01*
%TO.C,R3*%
X139866666Y-98877380D02*
X140200000Y-98401190D01*
X140438095Y-98877380D02*
X140438095Y-97877380D01*
X140057142Y-97877380D01*
X139961904Y-97925000D01*
X139914285Y-97972619D01*
X139866666Y-98067857D01*
X139866666Y-98210714D01*
X139914285Y-98305952D01*
X139961904Y-98353571D01*
X140057142Y-98401190D01*
X140438095Y-98401190D01*
X139533333Y-97877380D02*
X138914285Y-97877380D01*
X139247619Y-98258333D01*
X139104761Y-98258333D01*
X139009523Y-98305952D01*
X138961904Y-98353571D01*
X138914285Y-98448809D01*
X138914285Y-98686904D01*
X138961904Y-98782142D01*
X139009523Y-98829761D01*
X139104761Y-98877380D01*
X139390476Y-98877380D01*
X139485714Y-98829761D01*
X139533333Y-98782142D01*
%TO.C,C5*%
X137961666Y-91162142D02*
X138009285Y-91209761D01*
X138152142Y-91257380D01*
X138247380Y-91257380D01*
X138390238Y-91209761D01*
X138485476Y-91114523D01*
X138533095Y-91019285D01*
X138580714Y-90828809D01*
X138580714Y-90685952D01*
X138533095Y-90495476D01*
X138485476Y-90400238D01*
X138390238Y-90305000D01*
X138247380Y-90257380D01*
X138152142Y-90257380D01*
X138009285Y-90305000D01*
X137961666Y-90352619D01*
X137056904Y-90257380D02*
X137533095Y-90257380D01*
X137580714Y-90733571D01*
X137533095Y-90685952D01*
X137437857Y-90638333D01*
X137199761Y-90638333D01*
X137104523Y-90685952D01*
X137056904Y-90733571D01*
X137009285Y-90828809D01*
X137009285Y-91066904D01*
X137056904Y-91162142D01*
X137104523Y-91209761D01*
X137199761Y-91257380D01*
X137437857Y-91257380D01*
X137533095Y-91209761D01*
X137580714Y-91162142D01*
%TO.C,C7*%
X127166666Y-86082142D02*
X127214285Y-86129761D01*
X127357142Y-86177380D01*
X127452380Y-86177380D01*
X127595238Y-86129761D01*
X127690476Y-86034523D01*
X127738095Y-85939285D01*
X127785714Y-85748809D01*
X127785714Y-85605952D01*
X127738095Y-85415476D01*
X127690476Y-85320238D01*
X127595238Y-85225000D01*
X127452380Y-85177380D01*
X127357142Y-85177380D01*
X127214285Y-85225000D01*
X127166666Y-85272619D01*
X126833333Y-85177380D02*
X126166666Y-85177380D01*
X126595238Y-86177380D01*
%TO.C,C9*%
X145581666Y-84812142D02*
X145629285Y-84859761D01*
X145772142Y-84907380D01*
X145867380Y-84907380D01*
X146010238Y-84859761D01*
X146105476Y-84764523D01*
X146153095Y-84669285D01*
X146200714Y-84478809D01*
X146200714Y-84335952D01*
X146153095Y-84145476D01*
X146105476Y-84050238D01*
X146010238Y-83955000D01*
X145867380Y-83907380D01*
X145772142Y-83907380D01*
X145629285Y-83955000D01*
X145581666Y-84002619D01*
X145105476Y-84907380D02*
X144915000Y-84907380D01*
X144819761Y-84859761D01*
X144772142Y-84812142D01*
X144676904Y-84669285D01*
X144629285Y-84478809D01*
X144629285Y-84097857D01*
X144676904Y-84002619D01*
X144724523Y-83955000D01*
X144819761Y-83907380D01*
X145010238Y-83907380D01*
X145105476Y-83955000D01*
X145153095Y-84002619D01*
X145200714Y-84097857D01*
X145200714Y-84335952D01*
X145153095Y-84431190D01*
X145105476Y-84478809D01*
X145010238Y-84526428D01*
X144819761Y-84526428D01*
X144724523Y-84478809D01*
X144676904Y-84431190D01*
X144629285Y-84335952D01*
%TO.C,R2*%
X143041666Y-112847380D02*
X143375000Y-112371190D01*
X143613095Y-112847380D02*
X143613095Y-111847380D01*
X143232142Y-111847380D01*
X143136904Y-111895000D01*
X143089285Y-111942619D01*
X143041666Y-112037857D01*
X143041666Y-112180714D01*
X143089285Y-112275952D01*
X143136904Y-112323571D01*
X143232142Y-112371190D01*
X143613095Y-112371190D01*
X142660714Y-111942619D02*
X142613095Y-111895000D01*
X142517857Y-111847380D01*
X142279761Y-111847380D01*
X142184523Y-111895000D01*
X142136904Y-111942619D01*
X142089285Y-112037857D01*
X142089285Y-112133095D01*
X142136904Y-112275952D01*
X142708333Y-112847380D01*
X142089285Y-112847380D01*
%TO.C,R11*%
X128087380Y-107307142D02*
X127611190Y-106973809D01*
X128087380Y-106735714D02*
X127087380Y-106735714D01*
X127087380Y-107116666D01*
X127135000Y-107211904D01*
X127182619Y-107259523D01*
X127277857Y-107307142D01*
X127420714Y-107307142D01*
X127515952Y-107259523D01*
X127563571Y-107211904D01*
X127611190Y-107116666D01*
X127611190Y-106735714D01*
X128087380Y-108259523D02*
X128087380Y-107688095D01*
X128087380Y-107973809D02*
X127087380Y-107973809D01*
X127230238Y-107878571D01*
X127325476Y-107783333D01*
X127373095Y-107688095D01*
X128087380Y-109211904D02*
X128087380Y-108640476D01*
X128087380Y-108926190D02*
X127087380Y-108926190D01*
X127230238Y-108830952D01*
X127325476Y-108735714D01*
X127373095Y-108640476D01*
%TO.C,C6*%
X136374166Y-96496142D02*
X136421785Y-96543761D01*
X136564642Y-96591380D01*
X136659880Y-96591380D01*
X136802738Y-96543761D01*
X136897976Y-96448523D01*
X136945595Y-96353285D01*
X136993214Y-96162809D01*
X136993214Y-96019952D01*
X136945595Y-95829476D01*
X136897976Y-95734238D01*
X136802738Y-95639000D01*
X136659880Y-95591380D01*
X136564642Y-95591380D01*
X136421785Y-95639000D01*
X136374166Y-95686619D01*
X135517023Y-95591380D02*
X135707500Y-95591380D01*
X135802738Y-95639000D01*
X135850357Y-95686619D01*
X135945595Y-95829476D01*
X135993214Y-96019952D01*
X135993214Y-96400904D01*
X135945595Y-96496142D01*
X135897976Y-96543761D01*
X135802738Y-96591380D01*
X135612261Y-96591380D01*
X135517023Y-96543761D01*
X135469404Y-96496142D01*
X135421785Y-96400904D01*
X135421785Y-96162809D01*
X135469404Y-96067571D01*
X135517023Y-96019952D01*
X135612261Y-95972333D01*
X135802738Y-95972333D01*
X135897976Y-96019952D01*
X135945595Y-96067571D01*
X135993214Y-96162809D01*
D12*
%TO.C,U1*%
X151192666Y-108025000D02*
X151192666Y-107691666D01*
X150492666Y-107691666D01*
X151192666Y-108258333D02*
X150492666Y-108258333D01*
X150492666Y-108425000D01*
X150526000Y-108525000D01*
X150592666Y-108591666D01*
X150659333Y-108625000D01*
X150792666Y-108658333D01*
X150892666Y-108658333D01*
X151026000Y-108625000D01*
X151092666Y-108591666D01*
X151159333Y-108525000D01*
X151192666Y-108425000D01*
X151192666Y-108258333D01*
X151192666Y-109291666D02*
X151192666Y-108958333D01*
X150492666Y-108958333D01*
X151192666Y-109891666D02*
X151192666Y-109491666D01*
X151192666Y-109691666D02*
X150492666Y-109691666D01*
X150592666Y-109625000D01*
X150659333Y-109558333D01*
X150692666Y-109491666D01*
X151192666Y-110558333D02*
X151192666Y-110158333D01*
X151192666Y-110358333D02*
X150492666Y-110358333D01*
X150592666Y-110291666D01*
X150659333Y-110225000D01*
X150692666Y-110158333D01*
X151192666Y-111225000D02*
X151192666Y-110825000D01*
X151192666Y-111025000D02*
X150492666Y-111025000D01*
X150592666Y-110958333D01*
X150659333Y-110891666D01*
X150692666Y-110825000D01*
X150492666Y-111458333D02*
X150492666Y-111925000D01*
X151192666Y-111625000D01*
X151159333Y-112158333D02*
X151192666Y-112258333D01*
X151192666Y-112425000D01*
X151159333Y-112491666D01*
X151126000Y-112525000D01*
X151059333Y-112558333D01*
X150992666Y-112558333D01*
X150926000Y-112525000D01*
X150892666Y-112491666D01*
X150859333Y-112425000D01*
X150826000Y-112291666D01*
X150792666Y-112225000D01*
X150759333Y-112191666D01*
X150692666Y-112158333D01*
X150626000Y-112158333D01*
X150559333Y-112191666D01*
X150526000Y-112225000D01*
X150492666Y-112291666D01*
X150492666Y-112458333D01*
X150526000Y-112558333D01*
X150492666Y-113191666D02*
X150492666Y-112858333D01*
X150826000Y-112825000D01*
X150792666Y-112858333D01*
X150759333Y-112925000D01*
X150759333Y-113091666D01*
X150792666Y-113158333D01*
X150826000Y-113191666D01*
X150892666Y-113225000D01*
X151059333Y-113225000D01*
X151126000Y-113191666D01*
X151159333Y-113158333D01*
X151192666Y-113091666D01*
X151192666Y-112925000D01*
X151159333Y-112858333D01*
X151126000Y-112825000D01*
X150492666Y-113658333D02*
X150492666Y-113725000D01*
X150526000Y-113791666D01*
X150559333Y-113825000D01*
X150626000Y-113858333D01*
X150759333Y-113891666D01*
X150926000Y-113891666D01*
X151059333Y-113858333D01*
X151126000Y-113825000D01*
X151159333Y-113791666D01*
X151192666Y-113725000D01*
X151192666Y-113658333D01*
X151159333Y-113591666D01*
X151126000Y-113558333D01*
X151059333Y-113525000D01*
X150926000Y-113491666D01*
X150759333Y-113491666D01*
X150626000Y-113525000D01*
X150559333Y-113558333D01*
X150526000Y-113591666D01*
X150492666Y-113658333D01*
X151192666Y-114591666D02*
X150859333Y-114358333D01*
X151192666Y-114191666D02*
X150492666Y-114191666D01*
X150492666Y-114458333D01*
X150526000Y-114525000D01*
X150559333Y-114558333D01*
X150626000Y-114591666D01*
X150726000Y-114591666D01*
X150792666Y-114558333D01*
X150826000Y-114525000D01*
X150859333Y-114458333D01*
X150859333Y-114191666D01*
D10*
%TO.C,U2*%
X146438666Y-91003380D02*
X146914857Y-91003380D01*
X146914857Y-90003380D01*
X146105333Y-91003380D02*
X146105333Y-90003380D01*
X145772000Y-90717666D01*
X145438666Y-90003380D01*
X145438666Y-91003380D01*
X144533904Y-90336714D02*
X144533904Y-91003380D01*
X144772000Y-89955761D02*
X145010095Y-90670047D01*
X144391047Y-90670047D01*
X143867238Y-90431952D02*
X143962476Y-90384333D01*
X144010095Y-90336714D01*
X144057714Y-90241476D01*
X144057714Y-90193857D01*
X144010095Y-90098619D01*
X143962476Y-90051000D01*
X143867238Y-90003380D01*
X143676761Y-90003380D01*
X143581523Y-90051000D01*
X143533904Y-90098619D01*
X143486285Y-90193857D01*
X143486285Y-90241476D01*
X143533904Y-90336714D01*
X143581523Y-90384333D01*
X143676761Y-90431952D01*
X143867238Y-90431952D01*
X143962476Y-90479571D01*
X144010095Y-90527190D01*
X144057714Y-90622428D01*
X144057714Y-90812904D01*
X144010095Y-90908142D01*
X143962476Y-90955761D01*
X143867238Y-91003380D01*
X143676761Y-91003380D01*
X143581523Y-90955761D01*
X143533904Y-90908142D01*
X143486285Y-90812904D01*
X143486285Y-90622428D01*
X143533904Y-90527190D01*
X143581523Y-90479571D01*
X143676761Y-90431952D01*
X142867238Y-90003380D02*
X142772000Y-90003380D01*
X142676761Y-90051000D01*
X142629142Y-90098619D01*
X142581523Y-90193857D01*
X142533904Y-90384333D01*
X142533904Y-90622428D01*
X142581523Y-90812904D01*
X142629142Y-90908142D01*
X142676761Y-90955761D01*
X142772000Y-91003380D01*
X142867238Y-91003380D01*
X142962476Y-90955761D01*
X143010095Y-90908142D01*
X143057714Y-90812904D01*
X143105333Y-90622428D01*
X143105333Y-90384333D01*
X143057714Y-90193857D01*
X143010095Y-90098619D01*
X142962476Y-90051000D01*
X142867238Y-90003380D01*
X141962476Y-90431952D02*
X142057714Y-90384333D01*
X142105333Y-90336714D01*
X142152952Y-90241476D01*
X142152952Y-90193857D01*
X142105333Y-90098619D01*
X142057714Y-90051000D01*
X141962476Y-90003380D01*
X141772000Y-90003380D01*
X141676761Y-90051000D01*
X141629142Y-90098619D01*
X141581523Y-90193857D01*
X141581523Y-90241476D01*
X141629142Y-90336714D01*
X141676761Y-90384333D01*
X141772000Y-90431952D01*
X141962476Y-90431952D01*
X142057714Y-90479571D01*
X142105333Y-90527190D01*
X142152952Y-90622428D01*
X142152952Y-90812904D01*
X142105333Y-90908142D01*
X142057714Y-90955761D01*
X141962476Y-91003380D01*
X141772000Y-91003380D01*
X141676761Y-90955761D01*
X141629142Y-90908142D01*
X141581523Y-90812904D01*
X141581523Y-90622428D01*
X141629142Y-90527190D01*
X141676761Y-90479571D01*
X141772000Y-90431952D01*
%TO.C,R9*%
X154471666Y-94432380D02*
X154805000Y-93956190D01*
X155043095Y-94432380D02*
X155043095Y-93432380D01*
X154662142Y-93432380D01*
X154566904Y-93480000D01*
X154519285Y-93527619D01*
X154471666Y-93622857D01*
X154471666Y-93765714D01*
X154519285Y-93860952D01*
X154566904Y-93908571D01*
X154662142Y-93956190D01*
X155043095Y-93956190D01*
X153995476Y-94432380D02*
X153805000Y-94432380D01*
X153709761Y-94384761D01*
X153662142Y-94337142D01*
X153566904Y-94194285D01*
X153519285Y-94003809D01*
X153519285Y-93622857D01*
X153566904Y-93527619D01*
X153614523Y-93480000D01*
X153709761Y-93432380D01*
X153900238Y-93432380D01*
X153995476Y-93480000D01*
X154043095Y-93527619D01*
X154090714Y-93622857D01*
X154090714Y-93860952D01*
X154043095Y-93956190D01*
X153995476Y-94003809D01*
X153900238Y-94051428D01*
X153709761Y-94051428D01*
X153614523Y-94003809D01*
X153566904Y-93956190D01*
X153519285Y-93860952D01*
%TO.C,R10*%
X154947857Y-91892380D02*
X155281190Y-91416190D01*
X155519285Y-91892380D02*
X155519285Y-90892380D01*
X155138333Y-90892380D01*
X155043095Y-90940000D01*
X154995476Y-90987619D01*
X154947857Y-91082857D01*
X154947857Y-91225714D01*
X154995476Y-91320952D01*
X155043095Y-91368571D01*
X155138333Y-91416190D01*
X155519285Y-91416190D01*
X153995476Y-91892380D02*
X154566904Y-91892380D01*
X154281190Y-91892380D02*
X154281190Y-90892380D01*
X154376428Y-91035238D01*
X154471666Y-91130476D01*
X154566904Y-91178095D01*
X153376428Y-90892380D02*
X153281190Y-90892380D01*
X153185952Y-90940000D01*
X153138333Y-90987619D01*
X153090714Y-91082857D01*
X153043095Y-91273333D01*
X153043095Y-91511428D01*
X153090714Y-91701904D01*
X153138333Y-91797142D01*
X153185952Y-91844761D01*
X153281190Y-91892380D01*
X153376428Y-91892380D01*
X153471666Y-91844761D01*
X153519285Y-91797142D01*
X153566904Y-91701904D01*
X153614523Y-91511428D01*
X153614523Y-91273333D01*
X153566904Y-91082857D01*
X153519285Y-90987619D01*
X153471666Y-90940000D01*
X153376428Y-90892380D01*
%TO.C,C8*%
X144946666Y-107926142D02*
X144994285Y-107973761D01*
X145137142Y-108021380D01*
X145232380Y-108021380D01*
X145375238Y-107973761D01*
X145470476Y-107878523D01*
X145518095Y-107783285D01*
X145565714Y-107592809D01*
X145565714Y-107449952D01*
X145518095Y-107259476D01*
X145470476Y-107164238D01*
X145375238Y-107069000D01*
X145232380Y-107021380D01*
X145137142Y-107021380D01*
X144994285Y-107069000D01*
X144946666Y-107116619D01*
X144375238Y-107449952D02*
X144470476Y-107402333D01*
X144518095Y-107354714D01*
X144565714Y-107259476D01*
X144565714Y-107211857D01*
X144518095Y-107116619D01*
X144470476Y-107069000D01*
X144375238Y-107021380D01*
X144184761Y-107021380D01*
X144089523Y-107069000D01*
X144041904Y-107116619D01*
X143994285Y-107211857D01*
X143994285Y-107259476D01*
X144041904Y-107354714D01*
X144089523Y-107402333D01*
X144184761Y-107449952D01*
X144375238Y-107449952D01*
X144470476Y-107497571D01*
X144518095Y-107545190D01*
X144565714Y-107640428D01*
X144565714Y-107830904D01*
X144518095Y-107926142D01*
X144470476Y-107973761D01*
X144375238Y-108021380D01*
X144184761Y-108021380D01*
X144089523Y-107973761D01*
X144041904Y-107926142D01*
X143994285Y-107830904D01*
X143994285Y-107640428D01*
X144041904Y-107545190D01*
X144089523Y-107497571D01*
X144184761Y-107449952D01*
%TO.C,R6*%
X136056666Y-88082380D02*
X136390000Y-87606190D01*
X136628095Y-88082380D02*
X136628095Y-87082380D01*
X136247142Y-87082380D01*
X136151904Y-87130000D01*
X136104285Y-87177619D01*
X136056666Y-87272857D01*
X136056666Y-87415714D01*
X136104285Y-87510952D01*
X136151904Y-87558571D01*
X136247142Y-87606190D01*
X136628095Y-87606190D01*
X135199523Y-87082380D02*
X135390000Y-87082380D01*
X135485238Y-87130000D01*
X135532857Y-87177619D01*
X135628095Y-87320476D01*
X135675714Y-87510952D01*
X135675714Y-87891904D01*
X135628095Y-87987142D01*
X135580476Y-88034761D01*
X135485238Y-88082380D01*
X135294761Y-88082380D01*
X135199523Y-88034761D01*
X135151904Y-87987142D01*
X135104285Y-87891904D01*
X135104285Y-87653809D01*
X135151904Y-87558571D01*
X135199523Y-87510952D01*
X135294761Y-87463333D01*
X135485238Y-87463333D01*
X135580476Y-87510952D01*
X135628095Y-87558571D01*
X135675714Y-87653809D01*
%TO.C,R5*%
X139866666Y-101417380D02*
X140200000Y-100941190D01*
X140438095Y-101417380D02*
X140438095Y-100417380D01*
X140057142Y-100417380D01*
X139961904Y-100465000D01*
X139914285Y-100512619D01*
X139866666Y-100607857D01*
X139866666Y-100750714D01*
X139914285Y-100845952D01*
X139961904Y-100893571D01*
X140057142Y-100941190D01*
X140438095Y-100941190D01*
X138961904Y-100417380D02*
X139438095Y-100417380D01*
X139485714Y-100893571D01*
X139438095Y-100845952D01*
X139342857Y-100798333D01*
X139104761Y-100798333D01*
X139009523Y-100845952D01*
X138961904Y-100893571D01*
X138914285Y-100988809D01*
X138914285Y-101226904D01*
X138961904Y-101322142D01*
X139009523Y-101369761D01*
X139104761Y-101417380D01*
X139342857Y-101417380D01*
X139438095Y-101369761D01*
X139485714Y-101322142D01*
%TO.C,R4*%
X136056666Y-85542380D02*
X136390000Y-85066190D01*
X136628095Y-85542380D02*
X136628095Y-84542380D01*
X136247142Y-84542380D01*
X136151904Y-84590000D01*
X136104285Y-84637619D01*
X136056666Y-84732857D01*
X136056666Y-84875714D01*
X136104285Y-84970952D01*
X136151904Y-85018571D01*
X136247142Y-85066190D01*
X136628095Y-85066190D01*
X135199523Y-84875714D02*
X135199523Y-85542380D01*
X135437619Y-84494761D02*
X135675714Y-85209047D01*
X135056666Y-85209047D01*
%TO.C,C4*%
X139041666Y-103862142D02*
X139089285Y-103909761D01*
X139232142Y-103957380D01*
X139327380Y-103957380D01*
X139470238Y-103909761D01*
X139565476Y-103814523D01*
X139613095Y-103719285D01*
X139660714Y-103528809D01*
X139660714Y-103385952D01*
X139613095Y-103195476D01*
X139565476Y-103100238D01*
X139470238Y-103005000D01*
X139327380Y-102957380D01*
X139232142Y-102957380D01*
X139089285Y-103005000D01*
X139041666Y-103052619D01*
X138184523Y-103290714D02*
X138184523Y-103957380D01*
X138422619Y-102909761D02*
X138660714Y-103624047D01*
X138041666Y-103624047D01*
%TO.C,C3*%
X151931666Y-103227142D02*
X151979285Y-103274761D01*
X152122142Y-103322380D01*
X152217380Y-103322380D01*
X152360238Y-103274761D01*
X152455476Y-103179523D01*
X152503095Y-103084285D01*
X152550714Y-102893809D01*
X152550714Y-102750952D01*
X152503095Y-102560476D01*
X152455476Y-102465238D01*
X152360238Y-102370000D01*
X152217380Y-102322380D01*
X152122142Y-102322380D01*
X151979285Y-102370000D01*
X151931666Y-102417619D01*
X151598333Y-102322380D02*
X150979285Y-102322380D01*
X151312619Y-102703333D01*
X151169761Y-102703333D01*
X151074523Y-102750952D01*
X151026904Y-102798571D01*
X150979285Y-102893809D01*
X150979285Y-103131904D01*
X151026904Y-103227142D01*
X151074523Y-103274761D01*
X151169761Y-103322380D01*
X151455476Y-103322380D01*
X151550714Y-103274761D01*
X151598333Y-103227142D01*
%TO.C,C1*%
X157646666Y-103227142D02*
X157694285Y-103274761D01*
X157837142Y-103322380D01*
X157932380Y-103322380D01*
X158075238Y-103274761D01*
X158170476Y-103179523D01*
X158218095Y-103084285D01*
X158265714Y-102893809D01*
X158265714Y-102750952D01*
X158218095Y-102560476D01*
X158170476Y-102465238D01*
X158075238Y-102370000D01*
X157932380Y-102322380D01*
X157837142Y-102322380D01*
X157694285Y-102370000D01*
X157646666Y-102417619D01*
X156694285Y-103322380D02*
X157265714Y-103322380D01*
X156980000Y-103322380D02*
X156980000Y-102322380D01*
X157075238Y-102465238D01*
X157170476Y-102560476D01*
X157265714Y-102608095D01*
%TO.C,R1*%
X143041666Y-110307380D02*
X143375000Y-109831190D01*
X143613095Y-110307380D02*
X143613095Y-109307380D01*
X143232142Y-109307380D01*
X143136904Y-109355000D01*
X143089285Y-109402619D01*
X143041666Y-109497857D01*
X143041666Y-109640714D01*
X143089285Y-109735952D01*
X143136904Y-109783571D01*
X143232142Y-109831190D01*
X143613095Y-109831190D01*
X142089285Y-110307380D02*
X142660714Y-110307380D01*
X142375000Y-110307380D02*
X142375000Y-109307380D01*
X142470238Y-109450238D01*
X142565476Y-109545476D01*
X142660714Y-109593095D01*
%TO.C,R8*%
X154471666Y-89352380D02*
X154805000Y-88876190D01*
X155043095Y-89352380D02*
X155043095Y-88352380D01*
X154662142Y-88352380D01*
X154566904Y-88400000D01*
X154519285Y-88447619D01*
X154471666Y-88542857D01*
X154471666Y-88685714D01*
X154519285Y-88780952D01*
X154566904Y-88828571D01*
X154662142Y-88876190D01*
X155043095Y-88876190D01*
X153900238Y-88780952D02*
X153995476Y-88733333D01*
X154043095Y-88685714D01*
X154090714Y-88590476D01*
X154090714Y-88542857D01*
X154043095Y-88447619D01*
X153995476Y-88400000D01*
X153900238Y-88352380D01*
X153709761Y-88352380D01*
X153614523Y-88400000D01*
X153566904Y-88447619D01*
X153519285Y-88542857D01*
X153519285Y-88590476D01*
X153566904Y-88685714D01*
X153614523Y-88733333D01*
X153709761Y-88780952D01*
X153900238Y-88780952D01*
X153995476Y-88828571D01*
X154043095Y-88876190D01*
X154090714Y-88971428D01*
X154090714Y-89161904D01*
X154043095Y-89257142D01*
X153995476Y-89304761D01*
X153900238Y-89352380D01*
X153709761Y-89352380D01*
X153614523Y-89304761D01*
X153566904Y-89257142D01*
X153519285Y-89161904D01*
X153519285Y-88971428D01*
X153566904Y-88876190D01*
X153614523Y-88828571D01*
X153709761Y-88780952D01*
%TD*%
M02*
