M48
; DRILL file {KiCad (6.0.5)} date Sat Jun  4 12:49:32 2022
; FORMAT={-:-/ absolute / inch / decimal}
; #@! TF.CreationDate,2022-06-04T12:49:32-04:00
; #@! TF.GenerationSoftware,Kicad,Pcbnew,(6.0.5)
; #@! TF.FileFunction,Plated,1,2,PTH
FMAT,2
INCH
; #@! TA.AperFunction,Plated,PTH,ViaDrill
T1C0.0157
; #@! TA.AperFunction,Plated,PTH,ComponentDrill
T2C0.0295
; #@! TA.AperFunction,Plated,PTH,ComponentDrill
T3C0.0315
; #@! TA.AperFunction,Plated,PTH,ComponentDrill
T4C0.0394
; #@! TA.AperFunction,Plated,PTH,ComponentDrill
T5C0.0469
%
G90
G05
T1
X4.9Y-3.325
X4.9Y-3.525
X4.9Y-3.95
X4.9Y-4.125
X4.9Y-4.375
X4.95Y-3.75
X4.95Y-3.9
X4.975Y-4.175
X4.975Y-4.325
X5.025Y-3.525
X5.05Y-3.325
X5.05Y-4.15
X5.075Y-4.225
X5.1Y-3.575
X5.1Y-4.075
X5.1Y-4.475
X5.15Y-4.15
X5.175Y-3.525
X5.175Y-3.975
X5.225Y-3.325
X5.225Y-3.975
X5.25Y-3.575
X5.275Y-3.4
X5.3Y-4.1
X5.325Y-4.475
X5.35Y-3.325
X5.35Y-4.25
X5.375Y-3.875
X5.375Y-4.375
X5.4Y-3.525
X5.425Y-3.425
X5.475Y-3.625
X5.475Y-3.725
X5.5Y-3.5
X5.5Y-4.0
X5.5Y-4.275
X5.525Y-4.475
X5.55Y-3.825
X5.6Y-3.65
X5.6Y-4.375
X5.625Y-3.975
X5.625Y-4.25
X5.675Y-3.65
X5.7Y-4.1
X5.725Y-4.35
X5.75Y-4.475
X5.775Y-3.475
X5.775Y-3.7
X5.775Y-3.85
X5.775Y-4.0
X5.8Y-3.725
X5.8Y-3.775
X5.8Y-3.825
X5.8Y-3.925
X5.825Y-4.125
X5.85Y-4.25
X5.925Y-4.05
X5.95Y-3.35
X5.975Y-3.525
X5.975Y-3.95
X6.0Y-3.725
X6.0Y-4.425
X6.0Y-4.475
X6.05Y-4.3
X6.05Y-4.425
X6.05Y-4.475
X6.1Y-4.05
X6.1Y-4.2
X6.1Y-4.425
X6.1Y-4.475
X6.25Y-3.325
X6.25Y-3.425
X6.25Y-4.05
X6.25Y-4.2
X6.25Y-4.3
X6.325Y-4.425
X6.35Y-3.525
X6.35Y-3.75
X6.35Y-4.475
X6.375Y-4.425
X6.39Y-3.325
X6.4Y-4.475
X6.425Y-3.95
X6.425Y-4.05
X6.425Y-4.15
X6.425Y-4.25
X6.425Y-4.35
X6.475Y-3.725
X6.5Y-4.45
X6.525Y-3.95
X6.525Y-4.05
X6.525Y-4.15
X6.525Y-4.25
X6.525Y-4.35
X6.575Y-3.675
X6.6Y-3.575
X6.625Y-3.95
X6.625Y-4.05
X6.625Y-4.15
X6.625Y-4.25
X6.625Y-4.35
X6.675Y-3.325
X6.675Y-3.625
X6.675Y-3.775
X6.675Y-4.475
T2
X5.8748Y-3.4
X5.875Y-3.325
X5.875Y-3.9
X5.875Y-3.975
X6.1748Y-3.4
X6.175Y-3.325
X6.175Y-3.9
X6.175Y-3.975
T3
X4.925Y-4.05
X4.925Y-4.45
X4.9697Y-3.45
X5.025Y-4.05
X5.025Y-4.45
X5.0484Y-3.45
X5.15Y-3.35
X5.15Y-3.45
X5.3Y-3.875
X5.3Y-3.975
X5.325Y-3.7
X5.4037Y-3.7
X5.425Y-4.15
X5.425Y-4.325
X5.425Y-4.425
X5.5037Y-4.15
X5.525Y-3.5766
X5.525Y-3.675
X5.55Y-3.35
X5.55Y-3.45
X5.65Y-4.15
X5.6766Y-3.4
X5.7Y-3.875
X5.7Y-3.975
X5.7484Y-4.15
X5.775Y-3.4
X5.825Y-4.325
X5.825Y-4.425
X5.875Y-3.5
X5.875Y-3.6
X5.875Y-3.7
X5.875Y-3.8
X5.925Y-4.125
X6.0037Y-4.125
X6.175Y-4.125
X6.2537Y-4.125
X6.275Y-3.5
X6.275Y-3.6
X6.275Y-3.7
X6.275Y-3.8
X6.275Y-4.3758
X6.275Y-4.4742
T4
X5.0469Y-3.6766
X5.0469Y-3.775
X5.0469Y-3.8734
X5.1453Y-3.6766
X5.1453Y-3.775
X5.1453Y-3.8734
X5.175Y-4.425
X5.275Y-4.425
X6.475Y-3.9
X6.475Y-4.0
X6.475Y-4.1
X6.475Y-4.2
X6.475Y-4.3
X6.575Y-3.9
X6.575Y-4.0
X6.575Y-4.1
X6.575Y-4.2
X6.575Y-4.3
T5
X5.225Y-4.1
X5.225Y-4.2
X5.225Y-4.3
X6.425Y-3.4742
X6.525Y-3.4742
X6.625Y-3.4742
T0
M30
