%TF.GenerationSoftware,KiCad,Pcbnew,(6.0.5)*%
%TF.CreationDate,2022-06-04T12:49:29-04:00*%
%TF.ProjectId,headphone_amp,68656164-7068-46f6-9e65-5f616d702e6b,0.1*%
%TF.SameCoordinates,Original*%
%TF.FileFunction,Copper,L2,Bot*%
%TF.FilePolarity,Positive*%
%FSLAX46Y46*%
G04 Gerber Fmt 4.6, Leading zero omitted, Abs format (unit mm)*
G04 Created by KiCad (PCBNEW (6.0.5)) date 2022-06-04 12:49:29*
%MOMM*%
%LPD*%
G01*
G04 APERTURE LIST*
G04 Aperture macros list*
%AMRoundRect*
0 Rectangle with rounded corners*
0 $1 Rounding radius*
0 $2 $3 $4 $5 $6 $7 $8 $9 X,Y pos of 4 corners*
0 Add a 4 corners polygon primitive as box body*
4,1,4,$2,$3,$4,$5,$6,$7,$8,$9,$2,$3,0*
0 Add four circle primitives for the rounded corners*
1,1,$1+$1,$2,$3*
1,1,$1+$1,$4,$5*
1,1,$1+$1,$6,$7*
1,1,$1+$1,$8,$9*
0 Add four rect primitives between the rounded corners*
20,1,$1+$1,$2,$3,$4,$5,0*
20,1,$1+$1,$4,$5,$6,$7,0*
20,1,$1+$1,$6,$7,$8,$9,0*
20,1,$1+$1,$8,$9,$2,$3,0*%
G04 Aperture macros list end*
%TA.AperFunction,ComponentPad*%
%ADD10R,1.700000X1.700000*%
%TD*%
%TA.AperFunction,ComponentPad*%
%ADD11O,1.700000X1.700000*%
%TD*%
%TA.AperFunction,ComponentPad*%
%ADD12C,2.000000*%
%TD*%
%TA.AperFunction,ComponentPad*%
%ADD13C,1.600000*%
%TD*%
%TA.AperFunction,ComponentPad*%
%ADD14O,1.600000X1.600000*%
%TD*%
%TA.AperFunction,ComponentPad*%
%ADD15R,1.500000X1.500000*%
%TD*%
%TA.AperFunction,ComponentPad*%
%ADD16O,1.500000X1.500000*%
%TD*%
%TA.AperFunction,ComponentPad*%
%ADD17R,1.600000X1.600000*%
%TD*%
%TA.AperFunction,ComponentPad*%
%ADD18RoundRect,0.250000X0.600000X0.600000X-0.600000X0.600000X-0.600000X-0.600000X0.600000X-0.600000X0*%
%TD*%
%TA.AperFunction,ComponentPad*%
%ADD19C,1.700000*%
%TD*%
%TA.AperFunction,ComponentPad*%
%ADD20O,1.740000X2.190000*%
%TD*%
%TA.AperFunction,ComponentPad*%
%ADD21RoundRect,0.250000X0.620000X0.845000X-0.620000X0.845000X-0.620000X-0.845000X0.620000X-0.845000X0*%
%TD*%
%TA.AperFunction,ComponentPad*%
%ADD22RoundRect,0.250000X0.845000X-0.620000X0.845000X0.620000X-0.845000X0.620000X-0.845000X-0.620000X0*%
%TD*%
%TA.AperFunction,ComponentPad*%
%ADD23O,2.190000X1.740000*%
%TD*%
%TA.AperFunction,ViaPad*%
%ADD24C,0.800000*%
%TD*%
%TA.AperFunction,Conductor*%
%ADD25C,0.600000*%
%TD*%
%TA.AperFunction,Conductor*%
%ADD26C,1.000000*%
%TD*%
G04 APERTURE END LIST*
D10*
%TO.P,JP1,1,A*%
%TO.N,/SIG_L*%
X131445000Y-112395000D03*
D11*
%TO.P,JP1,2,B*%
%TO.N,/SIG_R*%
X133985000Y-112395000D03*
%TD*%
D12*
%TO.P,RV1,1,1*%
%TO.N,GND*%
X128190000Y-93385000D03*
%TO.P,RV1,2,2*%
%TO.N,/SIG_ATTN_R*%
X128190000Y-95885000D03*
%TO.P,RV1,3,3*%
%TO.N,Net-(R12-Pad2)*%
X128190000Y-98385000D03*
%TO.P,RV1,4,4*%
%TO.N,GND*%
X130690000Y-93385000D03*
%TO.P,RV1,5,5*%
%TO.N,/SIG_ATTN_L*%
X130690000Y-95885000D03*
%TO.P,RV1,6,6*%
%TO.N,Net-(R11-Pad2)*%
X130690000Y-98385000D03*
%TD*%
D13*
%TO.P,R7,1*%
%TO.N,/HP_FLT_L*%
X149225000Y-96520000D03*
D14*
%TO.P,R7,2*%
%TO.N,GND*%
X159385000Y-96520000D03*
%TD*%
D15*
%TO.P,D5,1,K*%
%TO.N,/HP_FLT_R*%
X149220000Y-86360000D03*
D16*
%TO.P,D5,2,A*%
%TO.N,-12V*%
X156840000Y-86360000D03*
%TD*%
D13*
%TO.P,C2,1*%
%TO.N,GND*%
X159385000Y-113645000D03*
%TO.P,C2,2*%
%TO.N,+5V*%
X159385000Y-111145000D03*
%TD*%
%TO.P,R12,1*%
%TO.N,/SIG_R*%
X125095000Y-113030000D03*
D14*
%TO.P,R12,2*%
%TO.N,Net-(R12-Pad2)*%
X125095000Y-102870000D03*
%TD*%
D13*
%TO.P,R3,1*%
%TO.N,Net-(C6-Pad1)*%
X134620000Y-98425000D03*
D14*
%TO.P,R3,2*%
%TO.N,/AMP_IN_L*%
X144780000Y-98425000D03*
%TD*%
D13*
%TO.P,C5,1*%
%TO.N,+5V*%
X140335000Y-90845000D03*
%TO.P,C5,2*%
%TO.N,GND*%
X140335000Y-93345000D03*
%TD*%
D17*
%TO.P,C7,1*%
%TO.N,Net-(C7-Pad1)*%
X128230000Y-87630000D03*
D13*
%TO.P,C7,2*%
%TO.N,/SIG_ATTN_R*%
X126230000Y-87630000D03*
%TD*%
D17*
%TO.P,C9,1*%
%TO.N,/AMP_OUT_R*%
X144185000Y-86360000D03*
D13*
%TO.P,C9,2*%
%TO.N,/HP_FLT_R*%
X146685000Y-86360000D03*
%TD*%
%TO.P,R2,1*%
%TO.N,/AMP_BIAS*%
X137795000Y-112395000D03*
D14*
%TO.P,R2,2*%
%TO.N,GND*%
X147955000Y-112395000D03*
%TD*%
D18*
%TO.P,J1,1,Pin_1*%
%TO.N,-12V*%
X167005000Y-109220000D03*
D19*
%TO.P,J1,2,Pin_2*%
X164465000Y-109220000D03*
%TO.P,J1,3,Pin_3*%
%TO.N,GND*%
X167005000Y-106680000D03*
%TO.P,J1,4,Pin_4*%
X164465000Y-106680000D03*
%TO.P,J1,5,Pin_5*%
X167005000Y-104140000D03*
%TO.P,J1,6,Pin_6*%
X164465000Y-104140000D03*
%TO.P,J1,7,Pin_7*%
X167005000Y-101600000D03*
%TO.P,J1,8,Pin_8*%
X164465000Y-101600000D03*
%TO.P,J1,9,Pin_9*%
%TO.N,+12V*%
X167005000Y-99060000D03*
%TO.P,J1,10,Pin_10*%
X164465000Y-99060000D03*
%TD*%
D13*
%TO.P,R11,1*%
%TO.N,/SIG_L*%
X127635000Y-113030000D03*
D14*
%TO.P,R11,2*%
%TO.N,Net-(R11-Pad2)*%
X127635000Y-102870000D03*
%TD*%
D17*
%TO.P,C6,1*%
%TO.N,Net-(C6-Pad1)*%
X137255000Y-93980000D03*
D13*
%TO.P,C6,2*%
%TO.N,/SIG_ATTN_L*%
X135255000Y-93980000D03*
%TD*%
D15*
%TO.P,D2,1,K*%
%TO.N,+12V*%
X156845000Y-100965000D03*
D16*
%TO.P,D2,2,A*%
%TO.N,/HP_FLT_L*%
X149225000Y-100965000D03*
%TD*%
D13*
%TO.P,R9,1*%
%TO.N,/HP_FLT_L*%
X149225000Y-93980000D03*
D14*
%TO.P,R9,2*%
%TO.N,/HP_L*%
X159385000Y-93980000D03*
%TD*%
D13*
%TO.P,R10,1*%
%TO.N,/HP_FLT_R*%
X149225000Y-91440000D03*
D14*
%TO.P,R10,2*%
%TO.N,/HP_R*%
X159385000Y-91440000D03*
%TD*%
D17*
%TO.P,C8,1*%
%TO.N,/AMP_OUT_L*%
X143510000Y-105410000D03*
D13*
%TO.P,C8,2*%
%TO.N,/HP_FLT_L*%
X146010000Y-105410000D03*
%TD*%
%TO.P,R6,1*%
%TO.N,/AMP_IN_R*%
X130810000Y-87630000D03*
D14*
%TO.P,R6,2*%
%TO.N,/AMP_OUT_R*%
X140970000Y-87630000D03*
%TD*%
D20*
%TO.P,J3,R*%
%TO.N,/HP_R*%
X165735000Y-88245000D03*
%TO.P,J3,S*%
%TO.N,GND*%
X163195000Y-88245000D03*
D21*
%TO.P,J3,T*%
%TO.N,/HP_L*%
X168275000Y-88245000D03*
%TD*%
D15*
%TO.P,D3,1,K*%
%TO.N,/HP_FLT_L*%
X149225000Y-99060000D03*
D16*
%TO.P,D3,2,A*%
%TO.N,-12V*%
X156845000Y-99060000D03*
%TD*%
D15*
%TO.P,D4,1,K*%
%TO.N,+12V*%
X156845000Y-84455000D03*
D16*
%TO.P,D4,2,A*%
%TO.N,/HP_FLT_R*%
X149225000Y-84455000D03*
%TD*%
D13*
%TO.P,R5,1*%
%TO.N,/AMP_IN_L*%
X134620000Y-100965000D03*
D14*
%TO.P,R5,2*%
%TO.N,/AMP_OUT_L*%
X144780000Y-100965000D03*
%TD*%
D13*
%TO.P,R4,1*%
%TO.N,Net-(C7-Pad1)*%
X130810000Y-85090000D03*
D14*
%TO.P,R4,2*%
%TO.N,/AMP_IN_R*%
X140970000Y-85090000D03*
%TD*%
D17*
%TO.P,C4,1*%
%TO.N,/AMP_BIAS*%
X137795000Y-105410000D03*
D13*
%TO.P,C4,2*%
%TO.N,GND*%
X139795000Y-105410000D03*
%TD*%
D17*
%TO.P,C3,1*%
%TO.N,+5V*%
X150495000Y-104775000D03*
D13*
%TO.P,C3,2*%
%TO.N,GND*%
X152495000Y-104775000D03*
%TD*%
D22*
%TO.P,J2,1,Pin_1*%
%TO.N,/SIG_L*%
X132715000Y-109220000D03*
D23*
%TO.P,J2,2,Pin_2*%
%TO.N,/SIG_R*%
X132715000Y-106680000D03*
%TO.P,J2,3,Pin_3*%
%TO.N,GND*%
X132715000Y-104140000D03*
%TD*%
D17*
%TO.P,C1,1*%
%TO.N,+12V*%
X156845000Y-104775000D03*
D13*
%TO.P,C1,2*%
%TO.N,GND*%
X158845000Y-104775000D03*
%TD*%
%TO.P,R1,1*%
%TO.N,+5V*%
X147955000Y-109855000D03*
D14*
%TO.P,R1,2*%
%TO.N,/AMP_BIAS*%
X137795000Y-109855000D03*
%TD*%
D13*
%TO.P,R8,1*%
%TO.N,/HP_FLT_R*%
X149225000Y-88900000D03*
D14*
%TO.P,R8,2*%
%TO.N,GND*%
X159385000Y-88900000D03*
%TD*%
D24*
%TO.N,GND*%
X162560000Y-113665000D03*
X161925000Y-112395000D03*
X160655000Y-112395000D03*
X167005000Y-93345000D03*
X167640000Y-90805000D03*
X161290000Y-95250000D03*
X135890000Y-107950000D03*
X126365000Y-106045000D03*
X128270000Y-105410000D03*
X128905000Y-107315000D03*
X126365000Y-109855000D03*
X130810000Y-105410000D03*
%TO.N,+5V*%
X132715000Y-100965000D03*
%TO.N,GND*%
X124460000Y-84455000D03*
X152400000Y-113665000D03*
X125730000Y-99060000D03*
X133350000Y-90805000D03*
X163195000Y-110490000D03*
X146685000Y-97790000D03*
X139065000Y-94615000D03*
X154940000Y-106680000D03*
X129540000Y-113665000D03*
X168275000Y-105410000D03*
X128270000Y-84455000D03*
X124460000Y-89535000D03*
X124460000Y-100330000D03*
X140335000Y-113665000D03*
X163195000Y-107950000D03*
X153670000Y-113665000D03*
X164465000Y-94615000D03*
X158750000Y-109220000D03*
X151130000Y-85090000D03*
X146685000Y-101600000D03*
X161290000Y-113665000D03*
X154940000Y-113665000D03*
X147320000Y-94615000D03*
X150495000Y-102870000D03*
X169545000Y-84455000D03*
X147320000Y-97155000D03*
X129540000Y-103505000D03*
X127635000Y-89535000D03*
X147320000Y-95885000D03*
X147320000Y-99695000D03*
X165735000Y-102870000D03*
X146685000Y-93980000D03*
X137795000Y-86995000D03*
X154940000Y-112395000D03*
X165100000Y-113030000D03*
X144780000Y-104140000D03*
X163195000Y-100330000D03*
X146050000Y-113665000D03*
X134620000Y-104140000D03*
X163195000Y-105410000D03*
X168275000Y-107950000D03*
X132715000Y-84455000D03*
X139065000Y-92075000D03*
X165735000Y-107950000D03*
X142875000Y-107950000D03*
X152400000Y-94615000D03*
X151765000Y-100330000D03*
X129540000Y-90805000D03*
X142875000Y-100965000D03*
X165735000Y-110490000D03*
X124460000Y-111125000D03*
X131445000Y-89535000D03*
X168275000Y-110490000D03*
X161290000Y-89535000D03*
X158750000Y-106680000D03*
X147955000Y-104775000D03*
X139700000Y-108585000D03*
X153670000Y-109220000D03*
X158750000Y-84455000D03*
X152400000Y-112395000D03*
X158750000Y-86995000D03*
X169545000Y-92075000D03*
X133985000Y-86360000D03*
X135255000Y-113665000D03*
X145415000Y-110490000D03*
X165735000Y-105410000D03*
X168275000Y-102870000D03*
X139700000Y-101600000D03*
X168275000Y-100330000D03*
X158750000Y-102870000D03*
X162306000Y-84455000D03*
X148590000Y-107950000D03*
X137160000Y-89535000D03*
X146685000Y-88265000D03*
X169545000Y-113665000D03*
X124460000Y-104775000D03*
X142240000Y-92710000D03*
X165735000Y-100330000D03*
X139700000Y-88900000D03*
X163195000Y-102870000D03*
X153670000Y-112395000D03*
X142240000Y-111125000D03*
X136525000Y-111125000D03*
X169545000Y-95885000D03*
X135890000Y-84455000D03*
X151765000Y-89535000D03*
X154940000Y-102870000D03*
X125730000Y-95250000D03*
X131445000Y-100965000D03*
X136525000Y-98425000D03*
X144145000Y-92710000D03*
X140970000Y-97155000D03*
%TD*%
D25*
%TO.N,+5V*%
X134620000Y-102870000D02*
X132715000Y-100965000D01*
X140335000Y-102870000D02*
X134620000Y-102870000D01*
D26*
%TO.N,+12V*%
X164465000Y-99060000D02*
X167005000Y-99060000D01*
D25*
%TO.N,+5V*%
X148590000Y-102870000D02*
X140335000Y-102870000D01*
X150495000Y-104775000D02*
X148590000Y-102870000D01*
%TO.N,/SIG_ATTN_L*%
X133325113Y-95885000D02*
X135230113Y-93980000D01*
X130690000Y-95885000D02*
X133325113Y-95885000D01*
%TO.N,/AMP_OUT_R*%
X142939888Y-87630000D02*
X144209888Y-86360000D01*
X141669888Y-87630000D02*
X142939888Y-87630000D01*
D26*
%TO.N,-12V*%
X164465000Y-109220000D02*
X167005000Y-109220000D01*
D25*
%TO.N,/AMP_IN_L*%
X144780000Y-98425000D02*
X140970000Y-98425000D01*
X140970000Y-98425000D02*
X138430000Y-100965000D01*
X138430000Y-100965000D02*
X134620000Y-100965000D01*
%TD*%
%TA.AperFunction,Conductor*%
%TO.N,GND*%
G36*
X130208400Y-83713502D02*
G01*
X130254893Y-83767158D01*
X130264997Y-83837432D01*
X130235503Y-83902012D01*
X130193529Y-83933695D01*
X130158238Y-83950151D01*
X130158233Y-83950154D01*
X130153251Y-83952477D01*
X130059762Y-84017939D01*
X129970211Y-84080643D01*
X129970208Y-84080645D01*
X129965700Y-84083802D01*
X129803802Y-84245700D01*
X129672477Y-84433251D01*
X129670154Y-84438233D01*
X129670151Y-84438238D01*
X129664888Y-84449525D01*
X129575716Y-84640757D01*
X129574294Y-84646065D01*
X129574293Y-84646067D01*
X129566709Y-84674371D01*
X129516457Y-84861913D01*
X129496502Y-85090000D01*
X129516457Y-85318087D01*
X129517881Y-85323400D01*
X129517881Y-85323402D01*
X129574185Y-85533528D01*
X129575716Y-85539243D01*
X129578039Y-85544224D01*
X129578039Y-85544225D01*
X129670151Y-85741762D01*
X129670154Y-85741767D01*
X129672477Y-85746749D01*
X129803802Y-85934300D01*
X129965700Y-86096198D01*
X129970208Y-86099355D01*
X129970211Y-86099357D01*
X130021570Y-86135319D01*
X130153251Y-86227523D01*
X130158233Y-86229846D01*
X130158238Y-86229849D01*
X130192457Y-86245805D01*
X130245742Y-86292722D01*
X130265203Y-86360999D01*
X130244661Y-86428959D01*
X130192457Y-86474195D01*
X130158238Y-86490151D01*
X130158233Y-86490154D01*
X130153251Y-86492477D01*
X130071106Y-86549996D01*
X129970211Y-86620643D01*
X129970208Y-86620645D01*
X129965700Y-86623802D01*
X129803802Y-86785700D01*
X129800645Y-86790208D01*
X129800643Y-86790211D01*
X129766766Y-86838593D01*
X129711309Y-86882921D01*
X129640690Y-86890230D01*
X129577329Y-86858199D01*
X129541344Y-86796998D01*
X129538290Y-86779930D01*
X129535855Y-86757520D01*
X129531745Y-86719684D01*
X129480615Y-86583295D01*
X129393261Y-86466739D01*
X129276705Y-86379385D01*
X129140316Y-86328255D01*
X129078134Y-86321500D01*
X127381866Y-86321500D01*
X127319684Y-86328255D01*
X127183295Y-86379385D01*
X127066739Y-86466739D01*
X127061358Y-86473919D01*
X127055008Y-86480269D01*
X127052768Y-86478029D01*
X127008435Y-86511171D01*
X126937616Y-86516190D01*
X126896210Y-86498051D01*
X126896019Y-86498383D01*
X126893036Y-86496661D01*
X126892203Y-86496296D01*
X126886749Y-86492477D01*
X126881767Y-86490154D01*
X126881762Y-86490151D01*
X126684225Y-86398039D01*
X126684224Y-86398039D01*
X126679243Y-86395716D01*
X126673935Y-86394294D01*
X126673933Y-86394293D01*
X126463402Y-86337881D01*
X126463400Y-86337881D01*
X126458087Y-86336457D01*
X126230000Y-86316502D01*
X126001913Y-86336457D01*
X125996600Y-86337881D01*
X125996598Y-86337881D01*
X125786067Y-86394293D01*
X125786065Y-86394294D01*
X125780757Y-86395716D01*
X125775776Y-86398039D01*
X125775775Y-86398039D01*
X125578238Y-86490151D01*
X125578233Y-86490154D01*
X125573251Y-86492477D01*
X125491106Y-86549996D01*
X125390211Y-86620643D01*
X125390208Y-86620645D01*
X125385700Y-86623802D01*
X125223802Y-86785700D01*
X125220645Y-86790208D01*
X125220643Y-86790211D01*
X125165902Y-86868389D01*
X125092477Y-86973251D01*
X125090154Y-86978233D01*
X125090151Y-86978238D01*
X125006400Y-87157845D01*
X124995716Y-87180757D01*
X124994294Y-87186065D01*
X124994293Y-87186067D01*
X124947071Y-87362301D01*
X124936457Y-87401913D01*
X124916502Y-87630000D01*
X124936457Y-87858087D01*
X124937881Y-87863400D01*
X124937881Y-87863402D01*
X124990703Y-88060533D01*
X124995716Y-88079243D01*
X124998039Y-88084224D01*
X124998039Y-88084225D01*
X125090151Y-88281762D01*
X125090154Y-88281767D01*
X125092477Y-88286749D01*
X125131087Y-88341890D01*
X125211156Y-88456239D01*
X125223802Y-88474300D01*
X125385700Y-88636198D01*
X125390208Y-88639355D01*
X125390211Y-88639357D01*
X125431542Y-88668297D01*
X125573251Y-88767523D01*
X125578233Y-88769846D01*
X125578238Y-88769849D01*
X125775775Y-88861961D01*
X125780757Y-88864284D01*
X125786065Y-88865706D01*
X125786067Y-88865707D01*
X125996598Y-88922119D01*
X125996600Y-88922119D01*
X126001913Y-88923543D01*
X126230000Y-88943498D01*
X126458087Y-88923543D01*
X126463400Y-88922119D01*
X126463402Y-88922119D01*
X126673933Y-88865707D01*
X126673935Y-88865706D01*
X126679243Y-88864284D01*
X126684225Y-88861961D01*
X126881762Y-88769849D01*
X126881767Y-88769846D01*
X126886749Y-88767523D01*
X126892202Y-88763705D01*
X126892686Y-88763541D01*
X126896019Y-88761617D01*
X126896406Y-88762287D01*
X126959474Y-88741012D01*
X127028335Y-88758293D01*
X127053737Y-88781002D01*
X127055008Y-88779731D01*
X127061358Y-88786081D01*
X127066739Y-88793261D01*
X127183295Y-88880615D01*
X127319684Y-88931745D01*
X127381866Y-88938500D01*
X129078134Y-88938500D01*
X129140316Y-88931745D01*
X129276705Y-88880615D01*
X129393261Y-88793261D01*
X129480615Y-88676705D01*
X129531745Y-88540316D01*
X129538290Y-88480070D01*
X129565532Y-88414508D01*
X129623895Y-88374082D01*
X129694850Y-88371627D01*
X129755867Y-88407922D01*
X129766765Y-88421405D01*
X129778309Y-88437893D01*
X129791156Y-88456239D01*
X129803802Y-88474300D01*
X129965700Y-88636198D01*
X129970208Y-88639355D01*
X129970211Y-88639357D01*
X130011542Y-88668297D01*
X130153251Y-88767523D01*
X130158233Y-88769846D01*
X130158238Y-88769849D01*
X130355775Y-88861961D01*
X130360757Y-88864284D01*
X130366065Y-88865706D01*
X130366067Y-88865707D01*
X130576598Y-88922119D01*
X130576600Y-88922119D01*
X130581913Y-88923543D01*
X130810000Y-88943498D01*
X131038087Y-88923543D01*
X131043400Y-88922119D01*
X131043402Y-88922119D01*
X131253933Y-88865707D01*
X131253935Y-88865706D01*
X131259243Y-88864284D01*
X131264225Y-88861961D01*
X131461762Y-88769849D01*
X131461767Y-88769846D01*
X131466749Y-88767523D01*
X131608458Y-88668297D01*
X131649789Y-88639357D01*
X131649792Y-88639355D01*
X131654300Y-88636198D01*
X131816198Y-88474300D01*
X131828845Y-88456239D01*
X131908913Y-88341890D01*
X131947523Y-88286749D01*
X131949846Y-88281767D01*
X131949849Y-88281762D01*
X132041961Y-88084225D01*
X132041961Y-88084224D01*
X132044284Y-88079243D01*
X132049298Y-88060533D01*
X132102119Y-87863402D01*
X132102119Y-87863400D01*
X132103543Y-87858087D01*
X132123498Y-87630000D01*
X132103543Y-87401913D01*
X132092929Y-87362301D01*
X132045707Y-87186067D01*
X132045706Y-87186065D01*
X132044284Y-87180757D01*
X132033600Y-87157845D01*
X131949849Y-86978238D01*
X131949846Y-86978233D01*
X131947523Y-86973251D01*
X131874098Y-86868389D01*
X131819357Y-86790211D01*
X131819355Y-86790208D01*
X131816198Y-86785700D01*
X131654300Y-86623802D01*
X131649792Y-86620645D01*
X131649789Y-86620643D01*
X131548894Y-86549996D01*
X131466749Y-86492477D01*
X131461767Y-86490154D01*
X131461762Y-86490151D01*
X131427543Y-86474195D01*
X131374258Y-86427278D01*
X131354797Y-86359001D01*
X131375339Y-86291041D01*
X131427543Y-86245805D01*
X131461762Y-86229849D01*
X131461767Y-86229846D01*
X131466749Y-86227523D01*
X131598430Y-86135319D01*
X131649789Y-86099357D01*
X131649792Y-86099355D01*
X131654300Y-86096198D01*
X131816198Y-85934300D01*
X131947523Y-85746749D01*
X131949846Y-85741767D01*
X131949849Y-85741762D01*
X132041961Y-85544225D01*
X132041961Y-85544224D01*
X132044284Y-85539243D01*
X132045816Y-85533528D01*
X132102119Y-85323402D01*
X132102119Y-85323400D01*
X132103543Y-85318087D01*
X132123498Y-85090000D01*
X132103543Y-84861913D01*
X132053291Y-84674371D01*
X132045707Y-84646067D01*
X132045706Y-84646065D01*
X132044284Y-84640757D01*
X131955112Y-84449525D01*
X131949849Y-84438238D01*
X131949846Y-84438233D01*
X131947523Y-84433251D01*
X131816198Y-84245700D01*
X131654300Y-84083802D01*
X131649792Y-84080645D01*
X131649789Y-84080643D01*
X131560238Y-84017939D01*
X131466749Y-83952477D01*
X131461767Y-83950154D01*
X131461762Y-83950151D01*
X131426471Y-83933695D01*
X131373186Y-83886778D01*
X131353725Y-83818500D01*
X131374267Y-83750540D01*
X131428290Y-83704475D01*
X131479721Y-83693500D01*
X140300279Y-83693500D01*
X140368400Y-83713502D01*
X140414893Y-83767158D01*
X140424997Y-83837432D01*
X140395503Y-83902012D01*
X140353529Y-83933695D01*
X140318238Y-83950151D01*
X140318233Y-83950154D01*
X140313251Y-83952477D01*
X140219762Y-84017939D01*
X140130211Y-84080643D01*
X140130208Y-84080645D01*
X140125700Y-84083802D01*
X139963802Y-84245700D01*
X139832477Y-84433251D01*
X139830154Y-84438233D01*
X139830151Y-84438238D01*
X139824888Y-84449525D01*
X139735716Y-84640757D01*
X139734294Y-84646065D01*
X139734293Y-84646067D01*
X139726709Y-84674371D01*
X139676457Y-84861913D01*
X139656502Y-85090000D01*
X139676457Y-85318087D01*
X139677881Y-85323400D01*
X139677881Y-85323402D01*
X139734185Y-85533528D01*
X139735716Y-85539243D01*
X139738039Y-85544224D01*
X139738039Y-85544225D01*
X139830151Y-85741762D01*
X139830154Y-85741767D01*
X139832477Y-85746749D01*
X139963802Y-85934300D01*
X140125700Y-86096198D01*
X140130208Y-86099355D01*
X140130211Y-86099357D01*
X140181570Y-86135319D01*
X140313251Y-86227523D01*
X140318233Y-86229846D01*
X140318238Y-86229849D01*
X140352457Y-86245805D01*
X140405742Y-86292722D01*
X140425203Y-86360999D01*
X140404661Y-86428959D01*
X140352457Y-86474195D01*
X140318238Y-86490151D01*
X140318233Y-86490154D01*
X140313251Y-86492477D01*
X140231106Y-86549996D01*
X140130211Y-86620643D01*
X140130208Y-86620645D01*
X140125700Y-86623802D01*
X139963802Y-86785700D01*
X139960645Y-86790208D01*
X139960643Y-86790211D01*
X139905902Y-86868389D01*
X139832477Y-86973251D01*
X139830154Y-86978233D01*
X139830151Y-86978238D01*
X139746400Y-87157845D01*
X139735716Y-87180757D01*
X139734294Y-87186065D01*
X139734293Y-87186067D01*
X139687071Y-87362301D01*
X139676457Y-87401913D01*
X139656502Y-87630000D01*
X139676457Y-87858087D01*
X139677881Y-87863400D01*
X139677881Y-87863402D01*
X139730703Y-88060533D01*
X139735716Y-88079243D01*
X139738039Y-88084224D01*
X139738039Y-88084225D01*
X139830151Y-88281762D01*
X139830154Y-88281767D01*
X139832477Y-88286749D01*
X139871087Y-88341890D01*
X139951156Y-88456239D01*
X139963802Y-88474300D01*
X140125700Y-88636198D01*
X140130208Y-88639355D01*
X140130211Y-88639357D01*
X140171542Y-88668297D01*
X140313251Y-88767523D01*
X140318233Y-88769846D01*
X140318238Y-88769849D01*
X140515775Y-88861961D01*
X140520757Y-88864284D01*
X140526065Y-88865706D01*
X140526067Y-88865707D01*
X140736598Y-88922119D01*
X140736600Y-88922119D01*
X140741913Y-88923543D01*
X140970000Y-88943498D01*
X141198087Y-88923543D01*
X141203400Y-88922119D01*
X141203402Y-88922119D01*
X141413933Y-88865707D01*
X141413935Y-88865706D01*
X141419243Y-88864284D01*
X141424225Y-88861961D01*
X141621762Y-88769849D01*
X141621767Y-88769846D01*
X141626749Y-88767523D01*
X141768458Y-88668297D01*
X141809789Y-88639357D01*
X141809792Y-88639355D01*
X141814300Y-88636198D01*
X141975093Y-88475405D01*
X142037405Y-88441379D01*
X142064188Y-88438500D01*
X142930674Y-88438500D01*
X142931994Y-88438507D01*
X143022109Y-88439451D01*
X143064485Y-88430289D01*
X143077051Y-88428231D01*
X143120143Y-88423397D01*
X143126794Y-88421081D01*
X143126798Y-88421080D01*
X143151818Y-88412367D01*
X143166630Y-88408204D01*
X143192507Y-88402609D01*
X143199398Y-88401119D01*
X143238701Y-88382792D01*
X143250477Y-88378010D01*
X143291440Y-88363745D01*
X143297415Y-88360011D01*
X143297418Y-88360010D01*
X143319883Y-88345973D01*
X143333400Y-88338634D01*
X143357402Y-88327441D01*
X143357403Y-88327440D01*
X143363790Y-88324462D01*
X143398041Y-88297894D01*
X143408500Y-88290598D01*
X143439292Y-88271358D01*
X143439295Y-88271356D01*
X143445264Y-88267626D01*
X143450260Y-88262665D01*
X143474067Y-88239024D01*
X143474692Y-88238439D01*
X143475358Y-88237922D01*
X143501348Y-88211932D01*
X143573970Y-88139815D01*
X143574628Y-88138778D01*
X143575731Y-88137549D01*
X144007875Y-87705405D01*
X144070187Y-87671379D01*
X144096970Y-87668500D01*
X145033134Y-87668500D01*
X145095316Y-87661745D01*
X145231705Y-87610615D01*
X145348261Y-87523261D01*
X145435615Y-87406705D01*
X145486745Y-87270316D01*
X145488691Y-87271046D01*
X145518545Y-87218795D01*
X145581503Y-87185979D01*
X145652207Y-87192409D01*
X145695000Y-87220498D01*
X145840700Y-87366198D01*
X145845208Y-87369355D01*
X145845211Y-87369357D01*
X145886542Y-87398297D01*
X146028251Y-87497523D01*
X146033233Y-87499846D01*
X146033238Y-87499849D01*
X146230775Y-87591961D01*
X146235757Y-87594284D01*
X146241065Y-87595706D01*
X146241067Y-87595707D01*
X146451598Y-87652119D01*
X146451600Y-87652119D01*
X146456913Y-87653543D01*
X146685000Y-87673498D01*
X146913087Y-87653543D01*
X146918400Y-87652119D01*
X146918402Y-87652119D01*
X147128933Y-87595707D01*
X147128935Y-87595706D01*
X147134243Y-87594284D01*
X147139225Y-87591961D01*
X147336762Y-87499849D01*
X147336767Y-87499846D01*
X147341749Y-87497523D01*
X147483458Y-87398297D01*
X147524789Y-87369357D01*
X147524792Y-87369355D01*
X147529300Y-87366198D01*
X147691198Y-87204300D01*
X147699525Y-87192409D01*
X147737265Y-87138510D01*
X147792722Y-87094182D01*
X147863342Y-87086873D01*
X147926702Y-87118904D01*
X147962687Y-87180105D01*
X147965741Y-87197174D01*
X147967401Y-87212460D01*
X147967402Y-87212464D01*
X147968255Y-87220316D01*
X148019385Y-87356705D01*
X148106739Y-87473261D01*
X148223295Y-87560615D01*
X148359684Y-87611745D01*
X148385492Y-87614549D01*
X148393337Y-87615401D01*
X148458899Y-87642643D01*
X148499325Y-87701006D01*
X148501780Y-87771961D01*
X148465485Y-87832978D01*
X148452000Y-87843877D01*
X148385211Y-87890643D01*
X148385208Y-87890645D01*
X148380700Y-87893802D01*
X148218802Y-88055700D01*
X148215645Y-88060208D01*
X148215643Y-88060211D01*
X148161491Y-88137549D01*
X148087477Y-88243251D01*
X148085154Y-88248233D01*
X148085151Y-88248238D01*
X147995988Y-88439451D01*
X147990716Y-88450757D01*
X147989294Y-88456065D01*
X147989293Y-88456067D01*
X147941756Y-88633478D01*
X147931457Y-88671913D01*
X147911502Y-88900000D01*
X147931457Y-89128087D01*
X147932881Y-89133400D01*
X147932881Y-89133402D01*
X147988442Y-89340755D01*
X147990716Y-89349243D01*
X147993039Y-89354224D01*
X147993039Y-89354225D01*
X148085151Y-89551762D01*
X148085154Y-89551767D01*
X148087477Y-89556749D01*
X148151233Y-89647802D01*
X148195601Y-89711165D01*
X148218802Y-89744300D01*
X148380700Y-89906198D01*
X148385208Y-89909355D01*
X148385211Y-89909357D01*
X148463389Y-89964098D01*
X148568251Y-90037523D01*
X148573233Y-90039846D01*
X148573238Y-90039849D01*
X148607457Y-90055805D01*
X148660742Y-90102722D01*
X148680203Y-90170999D01*
X148659661Y-90238959D01*
X148607457Y-90284195D01*
X148573238Y-90300151D01*
X148573233Y-90300154D01*
X148568251Y-90302477D01*
X148463389Y-90375902D01*
X148385211Y-90430643D01*
X148385208Y-90430645D01*
X148380700Y-90433802D01*
X148218802Y-90595700D01*
X148087477Y-90783251D01*
X148085154Y-90788233D01*
X148085151Y-90788238D01*
X148061236Y-90839525D01*
X147990716Y-90990757D01*
X147989294Y-90996065D01*
X147989293Y-90996067D01*
X147967231Y-91078402D01*
X147931457Y-91211913D01*
X147911502Y-91440000D01*
X147931457Y-91668087D01*
X147932881Y-91673400D01*
X147932881Y-91673402D01*
X147979478Y-91847301D01*
X147990716Y-91889243D01*
X147993039Y-91894224D01*
X147993039Y-91894225D01*
X148085151Y-92091762D01*
X148085154Y-92091767D01*
X148087477Y-92096749D01*
X148130714Y-92158498D01*
X148193041Y-92247509D01*
X148218802Y-92284300D01*
X148380700Y-92446198D01*
X148385208Y-92449355D01*
X148385211Y-92449357D01*
X148463389Y-92504098D01*
X148568251Y-92577523D01*
X148573233Y-92579846D01*
X148573238Y-92579849D01*
X148607457Y-92595805D01*
X148660742Y-92642722D01*
X148680203Y-92710999D01*
X148659661Y-92778959D01*
X148607457Y-92824195D01*
X148573238Y-92840151D01*
X148573233Y-92840154D01*
X148568251Y-92842477D01*
X148467551Y-92912988D01*
X148385211Y-92970643D01*
X148385208Y-92970645D01*
X148380700Y-92973802D01*
X148218802Y-93135700D01*
X148215645Y-93140208D01*
X148215643Y-93140211D01*
X148160902Y-93218389D01*
X148087477Y-93323251D01*
X148085154Y-93328233D01*
X148085151Y-93328238D01*
X147993039Y-93525775D01*
X147990716Y-93530757D01*
X147989294Y-93536065D01*
X147989293Y-93536067D01*
X147967688Y-93616699D01*
X147931457Y-93751913D01*
X147911502Y-93980000D01*
X147931457Y-94208087D01*
X147932881Y-94213400D01*
X147932881Y-94213402D01*
X147943467Y-94252907D01*
X147990716Y-94429243D01*
X147993039Y-94434224D01*
X147993039Y-94434225D01*
X148085151Y-94631762D01*
X148085154Y-94631767D01*
X148087477Y-94636749D01*
X148090634Y-94641257D01*
X148214942Y-94818787D01*
X148218802Y-94824300D01*
X148380700Y-94986198D01*
X148385208Y-94989355D01*
X148385211Y-94989357D01*
X148426542Y-95018297D01*
X148568251Y-95117523D01*
X148573233Y-95119846D01*
X148573238Y-95119849D01*
X148607457Y-95135805D01*
X148660742Y-95182722D01*
X148680203Y-95250999D01*
X148659661Y-95318959D01*
X148607457Y-95364195D01*
X148573238Y-95380151D01*
X148573233Y-95380154D01*
X148568251Y-95382477D01*
X148511495Y-95422218D01*
X148385211Y-95510643D01*
X148385208Y-95510645D01*
X148380700Y-95513802D01*
X148218802Y-95675700D01*
X148087477Y-95863251D01*
X148085154Y-95868233D01*
X148085151Y-95868238D01*
X148085034Y-95868489D01*
X147990716Y-96070757D01*
X147931457Y-96291913D01*
X147911502Y-96520000D01*
X147931457Y-96748087D01*
X147932881Y-96753400D01*
X147932881Y-96753402D01*
X147985884Y-96951208D01*
X147990716Y-96969243D01*
X147993039Y-96974224D01*
X147993039Y-96974225D01*
X148085151Y-97171762D01*
X148085154Y-97171767D01*
X148087477Y-97176749D01*
X148125332Y-97230811D01*
X148182054Y-97311818D01*
X148218802Y-97364300D01*
X148380700Y-97526198D01*
X148385210Y-97529356D01*
X148385216Y-97529361D01*
X148452671Y-97576593D01*
X148497000Y-97632050D01*
X148504309Y-97702669D01*
X148472279Y-97766029D01*
X148411077Y-97802015D01*
X148394010Y-97805069D01*
X148387771Y-97805747D01*
X148364684Y-97808255D01*
X148228295Y-97859385D01*
X148111739Y-97946739D01*
X148024385Y-98063295D01*
X147973255Y-98199684D01*
X147966500Y-98261866D01*
X147966500Y-99858134D01*
X147973255Y-99920316D01*
X148024385Y-100056705D01*
X148111739Y-100173261D01*
X148116026Y-100176474D01*
X148149180Y-100237189D01*
X148144115Y-100308004D01*
X148135178Y-100326973D01*
X148134101Y-100328839D01*
X148130944Y-100333347D01*
X148128621Y-100338329D01*
X148128618Y-100338334D01*
X148096139Y-100407987D01*
X148037880Y-100532924D01*
X147980885Y-100745629D01*
X147961693Y-100965000D01*
X147980885Y-101184371D01*
X148037880Y-101397076D01*
X148081415Y-101490438D01*
X148128618Y-101591666D01*
X148128621Y-101591671D01*
X148130944Y-101596653D01*
X148134100Y-101601160D01*
X148134101Y-101601162D01*
X148245123Y-101759717D01*
X148257251Y-101777038D01*
X148326618Y-101846405D01*
X148360644Y-101908717D01*
X148355579Y-101979532D01*
X148313032Y-102036368D01*
X148246512Y-102061179D01*
X148237523Y-102061500D01*
X145838188Y-102061500D01*
X145770067Y-102041498D01*
X145723574Y-101987842D01*
X145713470Y-101917568D01*
X145742964Y-101852988D01*
X145749093Y-101846405D01*
X145786198Y-101809300D01*
X145803580Y-101784477D01*
X145878913Y-101676890D01*
X145917523Y-101621749D01*
X145919846Y-101616767D01*
X145919849Y-101616762D01*
X146011961Y-101419225D01*
X146011961Y-101419224D01*
X146014284Y-101414243D01*
X146025490Y-101372424D01*
X146072119Y-101198402D01*
X146072119Y-101198400D01*
X146073543Y-101193087D01*
X146093498Y-100965000D01*
X146073543Y-100736913D01*
X146072119Y-100731598D01*
X146015707Y-100521067D01*
X146015706Y-100521065D01*
X146014284Y-100515757D01*
X146001694Y-100488758D01*
X145919849Y-100313238D01*
X145919846Y-100313233D01*
X145917523Y-100308251D01*
X145823002Y-100173261D01*
X145789357Y-100125211D01*
X145789355Y-100125208D01*
X145786198Y-100120700D01*
X145624300Y-99958802D01*
X145619792Y-99955645D01*
X145619789Y-99955643D01*
X145537702Y-99898165D01*
X145436749Y-99827477D01*
X145431767Y-99825154D01*
X145431762Y-99825151D01*
X145397543Y-99809195D01*
X145344258Y-99762278D01*
X145324797Y-99694001D01*
X145345339Y-99626041D01*
X145397543Y-99580805D01*
X145431762Y-99564849D01*
X145431767Y-99564846D01*
X145436749Y-99562523D01*
X145595723Y-99451208D01*
X145619789Y-99434357D01*
X145619792Y-99434355D01*
X145624300Y-99431198D01*
X145786198Y-99269300D01*
X145803531Y-99244547D01*
X145844098Y-99186611D01*
X145917523Y-99081749D01*
X145919846Y-99076767D01*
X145919849Y-99076762D01*
X146011961Y-98879225D01*
X146011961Y-98879224D01*
X146014284Y-98874243D01*
X146021824Y-98846106D01*
X146072119Y-98658402D01*
X146072119Y-98658400D01*
X146073543Y-98653087D01*
X146093498Y-98425000D01*
X146073543Y-98196913D01*
X146060514Y-98148289D01*
X146015707Y-97981067D01*
X146015706Y-97981065D01*
X146014284Y-97975757D01*
X145998244Y-97941358D01*
X145919849Y-97773238D01*
X145919846Y-97773233D01*
X145917523Y-97768251D01*
X145810652Y-97615624D01*
X145789357Y-97585211D01*
X145789355Y-97585208D01*
X145786198Y-97580700D01*
X145624300Y-97418802D01*
X145619792Y-97415645D01*
X145619789Y-97415643D01*
X145471511Y-97311818D01*
X145436749Y-97287477D01*
X145431767Y-97285154D01*
X145431762Y-97285151D01*
X145234225Y-97193039D01*
X145234224Y-97193039D01*
X145229243Y-97190716D01*
X145223935Y-97189294D01*
X145223933Y-97189293D01*
X145013402Y-97132881D01*
X145013400Y-97132881D01*
X145008087Y-97131457D01*
X144780000Y-97111502D01*
X144551913Y-97131457D01*
X144546600Y-97132881D01*
X144546598Y-97132881D01*
X144336067Y-97189293D01*
X144336065Y-97189294D01*
X144330757Y-97190716D01*
X144325776Y-97193039D01*
X144325775Y-97193039D01*
X144128238Y-97285151D01*
X144128233Y-97285154D01*
X144123251Y-97287477D01*
X144088489Y-97311818D01*
X143940211Y-97415643D01*
X143940208Y-97415645D01*
X143935700Y-97418802D01*
X143774907Y-97579595D01*
X143712595Y-97613621D01*
X143685812Y-97616500D01*
X140979164Y-97616500D01*
X140977845Y-97616493D01*
X140887779Y-97615550D01*
X140880893Y-97617039D01*
X140880891Y-97617039D01*
X140862313Y-97621056D01*
X140845414Y-97624710D01*
X140832835Y-97626770D01*
X140796741Y-97630818D01*
X140796738Y-97630819D01*
X140789745Y-97631603D01*
X140758068Y-97642634D01*
X140743258Y-97646796D01*
X140717378Y-97652391D01*
X140717374Y-97652392D01*
X140710489Y-97653881D01*
X140704105Y-97656858D01*
X140704099Y-97656860D01*
X140671193Y-97672204D01*
X140659384Y-97676999D01*
X140618448Y-97691255D01*
X140612476Y-97694987D01*
X140612469Y-97694990D01*
X140590005Y-97709027D01*
X140576488Y-97716366D01*
X140552481Y-97727561D01*
X140552477Y-97727563D01*
X140546098Y-97730538D01*
X140529007Y-97743795D01*
X140511844Y-97757108D01*
X140501395Y-97764397D01*
X140464624Y-97787374D01*
X140459625Y-97792339D01*
X140459623Y-97792340D01*
X140435815Y-97815983D01*
X140435192Y-97816566D01*
X140434530Y-97817079D01*
X140408682Y-97842927D01*
X140344657Y-97906507D01*
X140335918Y-97915185D01*
X140335259Y-97916223D01*
X140334153Y-97917456D01*
X138132013Y-100119595D01*
X138069701Y-100153621D01*
X138042918Y-100156500D01*
X135714188Y-100156500D01*
X135646067Y-100136498D01*
X135625093Y-100119595D01*
X135464300Y-99958802D01*
X135459792Y-99955645D01*
X135459789Y-99955643D01*
X135377702Y-99898165D01*
X135276749Y-99827477D01*
X135271767Y-99825154D01*
X135271762Y-99825151D01*
X135237543Y-99809195D01*
X135184258Y-99762278D01*
X135164797Y-99694001D01*
X135185339Y-99626041D01*
X135237543Y-99580805D01*
X135271762Y-99564849D01*
X135271767Y-99564846D01*
X135276749Y-99562523D01*
X135435723Y-99451208D01*
X135459789Y-99434357D01*
X135459792Y-99434355D01*
X135464300Y-99431198D01*
X135626198Y-99269300D01*
X135643531Y-99244547D01*
X135684098Y-99186611D01*
X135757523Y-99081749D01*
X135759846Y-99076767D01*
X135759849Y-99076762D01*
X135851961Y-98879225D01*
X135851961Y-98879224D01*
X135854284Y-98874243D01*
X135861824Y-98846106D01*
X135912119Y-98658402D01*
X135912119Y-98658400D01*
X135913543Y-98653087D01*
X135933498Y-98425000D01*
X135913543Y-98196913D01*
X135900514Y-98148289D01*
X135855707Y-97981067D01*
X135855706Y-97981065D01*
X135854284Y-97975757D01*
X135838244Y-97941358D01*
X135759849Y-97773238D01*
X135759846Y-97773233D01*
X135757523Y-97768251D01*
X135650652Y-97615624D01*
X135629357Y-97585211D01*
X135629355Y-97585208D01*
X135626198Y-97580700D01*
X135464300Y-97418802D01*
X135459792Y-97415645D01*
X135459789Y-97415643D01*
X135311511Y-97311818D01*
X135276749Y-97287477D01*
X135271767Y-97285154D01*
X135271762Y-97285151D01*
X135074225Y-97193039D01*
X135074224Y-97193039D01*
X135069243Y-97190716D01*
X135063935Y-97189294D01*
X135063933Y-97189293D01*
X134853402Y-97132881D01*
X134853400Y-97132881D01*
X134848087Y-97131457D01*
X134620000Y-97111502D01*
X134391913Y-97131457D01*
X134386600Y-97132881D01*
X134386598Y-97132881D01*
X134176067Y-97189293D01*
X134176065Y-97189294D01*
X134170757Y-97190716D01*
X134165776Y-97193039D01*
X134165775Y-97193039D01*
X133968238Y-97285151D01*
X133968233Y-97285154D01*
X133963251Y-97287477D01*
X133928489Y-97311818D01*
X133780211Y-97415643D01*
X133780208Y-97415645D01*
X133775700Y-97418802D01*
X133613802Y-97580700D01*
X133610645Y-97585208D01*
X133610643Y-97585211D01*
X133589348Y-97615624D01*
X133482477Y-97768251D01*
X133480154Y-97773233D01*
X133480151Y-97773238D01*
X133401756Y-97941358D01*
X133385716Y-97975757D01*
X133384294Y-97981065D01*
X133384293Y-97981067D01*
X133339486Y-98148289D01*
X133326457Y-98196913D01*
X133306502Y-98425000D01*
X133326457Y-98653087D01*
X133327881Y-98658400D01*
X133327881Y-98658402D01*
X133378177Y-98846106D01*
X133385716Y-98874243D01*
X133388039Y-98879224D01*
X133388039Y-98879225D01*
X133480151Y-99076762D01*
X133480154Y-99076767D01*
X133482477Y-99081749D01*
X133555902Y-99186611D01*
X133596470Y-99244547D01*
X133613802Y-99269300D01*
X133775700Y-99431198D01*
X133780208Y-99434355D01*
X133780211Y-99434357D01*
X133804277Y-99451208D01*
X133963251Y-99562523D01*
X133968233Y-99564846D01*
X133968238Y-99564849D01*
X134002457Y-99580805D01*
X134055742Y-99627722D01*
X134075203Y-99695999D01*
X134054661Y-99763959D01*
X134002457Y-99809195D01*
X133968238Y-99825151D01*
X133968233Y-99825154D01*
X133963251Y-99827477D01*
X133862298Y-99898165D01*
X133780211Y-99955643D01*
X133780208Y-99955645D01*
X133775700Y-99958802D01*
X133613802Y-100120700D01*
X133610645Y-100125208D01*
X133610643Y-100125211D01*
X133512854Y-100264868D01*
X133457397Y-100309196D01*
X133386777Y-100316505D01*
X133327147Y-100287126D01*
X133326253Y-100286134D01*
X133250225Y-100230896D01*
X133177094Y-100177763D01*
X133177093Y-100177762D01*
X133171752Y-100173882D01*
X133165724Y-100171198D01*
X133165722Y-100171197D01*
X133003319Y-100098891D01*
X133003318Y-100098891D01*
X132997288Y-100096206D01*
X132903888Y-100076353D01*
X132816944Y-100057872D01*
X132816939Y-100057872D01*
X132810487Y-100056500D01*
X132619513Y-100056500D01*
X132613061Y-100057872D01*
X132613056Y-100057872D01*
X132526112Y-100076353D01*
X132432712Y-100096206D01*
X132426682Y-100098891D01*
X132426681Y-100098891D01*
X132264278Y-100171197D01*
X132264276Y-100171198D01*
X132258248Y-100173882D01*
X132252907Y-100177762D01*
X132252906Y-100177763D01*
X132234844Y-100190886D01*
X132103747Y-100286134D01*
X132099326Y-100291044D01*
X132099325Y-100291045D01*
X131994949Y-100406967D01*
X131975960Y-100428056D01*
X131880473Y-100593444D01*
X131821458Y-100775072D01*
X131801496Y-100965000D01*
X131802186Y-100971565D01*
X131818290Y-101124783D01*
X131821458Y-101154928D01*
X131880473Y-101336556D01*
X131975960Y-101501944D01*
X131980378Y-101506851D01*
X131980379Y-101506852D01*
X132067279Y-101603364D01*
X132103747Y-101643866D01*
X132258248Y-101756118D01*
X132264276Y-101758802D01*
X132264278Y-101758803D01*
X132425242Y-101830468D01*
X132463088Y-101856480D01*
X133154296Y-102547688D01*
X133188322Y-102610000D01*
X133183257Y-102680815D01*
X133140710Y-102737651D01*
X133074190Y-102762462D01*
X133059262Y-102762643D01*
X133047118Y-102762070D01*
X133044151Y-102762000D01*
X132987115Y-102762000D01*
X132971876Y-102766475D01*
X132970671Y-102767865D01*
X132969000Y-102775548D01*
X132969000Y-103867885D01*
X132973475Y-103883124D01*
X132974865Y-103884329D01*
X132982548Y-103886000D01*
X134276627Y-103886000D01*
X134290158Y-103882027D01*
X134291683Y-103871420D01*
X134278591Y-103809026D01*
X134284178Y-103738250D01*
X134327143Y-103681730D01*
X134393844Y-103657410D01*
X134427363Y-103660322D01*
X134428685Y-103660803D01*
X134435673Y-103661686D01*
X134435678Y-103661687D01*
X134471692Y-103666237D01*
X134484243Y-103668472D01*
X134526485Y-103678225D01*
X134533529Y-103678250D01*
X134533533Y-103678250D01*
X134567072Y-103678367D01*
X134567942Y-103678396D01*
X134568769Y-103678500D01*
X134605258Y-103678500D01*
X134605697Y-103678501D01*
X134704343Y-103678845D01*
X134704348Y-103678845D01*
X134707870Y-103678857D01*
X134709070Y-103678589D01*
X134710708Y-103678500D01*
X148202918Y-103678500D01*
X148271039Y-103698502D01*
X148292013Y-103715405D01*
X149149595Y-104572987D01*
X149183621Y-104635299D01*
X149186500Y-104662082D01*
X149186500Y-105623134D01*
X149193255Y-105685316D01*
X149244385Y-105821705D01*
X149331739Y-105938261D01*
X149448295Y-106025615D01*
X149584684Y-106076745D01*
X149646866Y-106083500D01*
X151343134Y-106083500D01*
X151405316Y-106076745D01*
X151541705Y-106025615D01*
X151601875Y-105980520D01*
X151651078Y-105943645D01*
X151651081Y-105943642D01*
X151658261Y-105938261D01*
X151663642Y-105931081D01*
X151669993Y-105924730D01*
X151672135Y-105926872D01*
X151716846Y-105893436D01*
X151787664Y-105888406D01*
X151829035Y-105906523D01*
X151829232Y-105906182D01*
X151832298Y-105907952D01*
X151833090Y-105908299D01*
X151833989Y-105908929D01*
X151843489Y-105914414D01*
X152040947Y-106006490D01*
X152051239Y-106010236D01*
X152261688Y-106066625D01*
X152272481Y-106068528D01*
X152489525Y-106087517D01*
X152500475Y-106087517D01*
X152717519Y-106068528D01*
X152728312Y-106066625D01*
X152938761Y-106010236D01*
X152949053Y-106006490D01*
X153146511Y-105914414D01*
X153156006Y-105908931D01*
X153208048Y-105872491D01*
X153216424Y-105862012D01*
X153209356Y-105848566D01*
X152983924Y-105623134D01*
X155536500Y-105623134D01*
X155543255Y-105685316D01*
X155594385Y-105821705D01*
X155681739Y-105938261D01*
X155798295Y-106025615D01*
X155934684Y-106076745D01*
X155996866Y-106083500D01*
X157693134Y-106083500D01*
X157755316Y-106076745D01*
X157891705Y-106025615D01*
X157951875Y-105980520D01*
X158001078Y-105943645D01*
X158001081Y-105943642D01*
X158008261Y-105938261D01*
X158013642Y-105931081D01*
X158019993Y-105924730D01*
X158022135Y-105926872D01*
X158066846Y-105893436D01*
X158137664Y-105888406D01*
X158179035Y-105906523D01*
X158179232Y-105906182D01*
X158182298Y-105907952D01*
X158183090Y-105908299D01*
X158183989Y-105908929D01*
X158193489Y-105914414D01*
X158390947Y-106006490D01*
X158401239Y-106010236D01*
X158611688Y-106066625D01*
X158622481Y-106068528D01*
X158839525Y-106087517D01*
X158850475Y-106087517D01*
X159067519Y-106068528D01*
X159078312Y-106066625D01*
X159288761Y-106010236D01*
X159299053Y-106006490D01*
X159496511Y-105914414D01*
X159506006Y-105908931D01*
X159558048Y-105872491D01*
X159566424Y-105862012D01*
X159559356Y-105848566D01*
X158574885Y-104864095D01*
X158540859Y-104801783D01*
X158542694Y-104776132D01*
X159209408Y-104776132D01*
X159209539Y-104777965D01*
X159213790Y-104784580D01*
X159919287Y-105490077D01*
X159931062Y-105496507D01*
X159943077Y-105487211D01*
X159978931Y-105436006D01*
X159984414Y-105426511D01*
X160059796Y-105264853D01*
X163704977Y-105264853D01*
X163710258Y-105271907D01*
X163757479Y-105299501D01*
X163806203Y-105351139D01*
X163819274Y-105420922D01*
X163792543Y-105486694D01*
X163752087Y-105520053D01*
X163743466Y-105524541D01*
X163734734Y-105530039D01*
X163714677Y-105545099D01*
X163706223Y-105556427D01*
X163712968Y-105568758D01*
X164452188Y-106307978D01*
X164466132Y-106315592D01*
X164467965Y-106315461D01*
X164474580Y-106311210D01*
X165218389Y-105567401D01*
X165225410Y-105554544D01*
X165218611Y-105545213D01*
X165214559Y-105542521D01*
X165177116Y-105521852D01*
X165127145Y-105471420D01*
X165112373Y-105401977D01*
X165137489Y-105335572D01*
X165164840Y-105308965D01*
X165214247Y-105273723D01*
X165221211Y-105264853D01*
X166244977Y-105264853D01*
X166250258Y-105271907D01*
X166297479Y-105299501D01*
X166346203Y-105351139D01*
X166359274Y-105420922D01*
X166332543Y-105486694D01*
X166292087Y-105520053D01*
X166283466Y-105524541D01*
X166274734Y-105530039D01*
X166254677Y-105545099D01*
X166246223Y-105556427D01*
X166252968Y-105568758D01*
X166992188Y-106307978D01*
X167006132Y-106315592D01*
X167007965Y-106315461D01*
X167014580Y-106311210D01*
X167758389Y-105567401D01*
X167765410Y-105554544D01*
X167758611Y-105545213D01*
X167754559Y-105542521D01*
X167717116Y-105521852D01*
X167667145Y-105471420D01*
X167652373Y-105401977D01*
X167677489Y-105335572D01*
X167704840Y-105308965D01*
X167754247Y-105273723D01*
X167762648Y-105263023D01*
X167755660Y-105249870D01*
X167017812Y-104512022D01*
X167003868Y-104504408D01*
X167002035Y-104504539D01*
X166995420Y-104508790D01*
X166251737Y-105252473D01*
X166244977Y-105264853D01*
X165221211Y-105264853D01*
X165222648Y-105263023D01*
X165215660Y-105249870D01*
X164477812Y-104512022D01*
X164463868Y-104504408D01*
X164462035Y-104504539D01*
X164455420Y-104508790D01*
X163711737Y-105252473D01*
X163704977Y-105264853D01*
X160059796Y-105264853D01*
X160076490Y-105229053D01*
X160080236Y-105218761D01*
X160136625Y-105008312D01*
X160138528Y-104997519D01*
X160157517Y-104780475D01*
X160157517Y-104769525D01*
X160138528Y-104552481D01*
X160136625Y-104541688D01*
X160080236Y-104331239D01*
X160076490Y-104320947D01*
X159984414Y-104123489D01*
X159978931Y-104113994D01*
X159977439Y-104111863D01*
X163103050Y-104111863D01*
X163115309Y-104324477D01*
X163116745Y-104334697D01*
X163163565Y-104542446D01*
X163166645Y-104552275D01*
X163246770Y-104749603D01*
X163251413Y-104758794D01*
X163331460Y-104889420D01*
X163341916Y-104898880D01*
X163350694Y-104895096D01*
X164092978Y-104152812D01*
X164099356Y-104141132D01*
X164829408Y-104141132D01*
X164829539Y-104142965D01*
X164833790Y-104149580D01*
X165575474Y-104891264D01*
X165587484Y-104897823D01*
X165599223Y-104888855D01*
X165633022Y-104841819D01*
X165634149Y-104842629D01*
X165681659Y-104798881D01*
X165751596Y-104786661D01*
X165817038Y-104814191D01*
X165844870Y-104846029D01*
X165871459Y-104889419D01*
X165881916Y-104898880D01*
X165890694Y-104895096D01*
X166632978Y-104152812D01*
X166639356Y-104141132D01*
X167369408Y-104141132D01*
X167369539Y-104142965D01*
X167373790Y-104149580D01*
X168115474Y-104891264D01*
X168127484Y-104897823D01*
X168139223Y-104888855D01*
X168170004Y-104846019D01*
X168175315Y-104837180D01*
X168269670Y-104646267D01*
X168273469Y-104636672D01*
X168335376Y-104432915D01*
X168337555Y-104422834D01*
X168365590Y-104209887D01*
X168366109Y-104203212D01*
X168367572Y-104143364D01*
X168367378Y-104136646D01*
X168349781Y-103922604D01*
X168348096Y-103912424D01*
X168296214Y-103705875D01*
X168292894Y-103696124D01*
X168207972Y-103500814D01*
X168203105Y-103491739D01*
X168138063Y-103391197D01*
X168127377Y-103381995D01*
X168117812Y-103386398D01*
X167377022Y-104127188D01*
X167369408Y-104141132D01*
X166639356Y-104141132D01*
X166640592Y-104138868D01*
X166640461Y-104137035D01*
X166636210Y-104130420D01*
X165894849Y-103389059D01*
X165883313Y-103382759D01*
X165871028Y-103392384D01*
X165838192Y-103440520D01*
X165783281Y-103485523D01*
X165712756Y-103493694D01*
X165649009Y-103462440D01*
X165628311Y-103437955D01*
X165598062Y-103391197D01*
X165587377Y-103381995D01*
X165577812Y-103386398D01*
X164837022Y-104127188D01*
X164829408Y-104141132D01*
X164099356Y-104141132D01*
X164100592Y-104138868D01*
X164100461Y-104137035D01*
X164096210Y-104130420D01*
X163354849Y-103389059D01*
X163343313Y-103382759D01*
X163331031Y-103392382D01*
X163283089Y-103462662D01*
X163278004Y-103471613D01*
X163188338Y-103664783D01*
X163184775Y-103674470D01*
X163127864Y-103879681D01*
X163125933Y-103889800D01*
X163103302Y-104101574D01*
X163103050Y-104111863D01*
X159977439Y-104111863D01*
X159942491Y-104061952D01*
X159932012Y-104053576D01*
X159918566Y-104060644D01*
X159217022Y-104762188D01*
X159209408Y-104776132D01*
X158542694Y-104776132D01*
X158545924Y-104730968D01*
X158574885Y-104685905D01*
X159560077Y-103700713D01*
X159566507Y-103688938D01*
X159557211Y-103676923D01*
X159506006Y-103641069D01*
X159496511Y-103635586D01*
X159299053Y-103543510D01*
X159288761Y-103539764D01*
X159078312Y-103483375D01*
X159067519Y-103481472D01*
X158850475Y-103462483D01*
X158839525Y-103462483D01*
X158622481Y-103481472D01*
X158611688Y-103483375D01*
X158401239Y-103539764D01*
X158390947Y-103543510D01*
X158193489Y-103635586D01*
X158183989Y-103641071D01*
X158183090Y-103641701D01*
X158182630Y-103641856D01*
X158179232Y-103643818D01*
X158178838Y-103643135D01*
X158115816Y-103664388D01*
X158046956Y-103647102D01*
X158021197Y-103624066D01*
X158019993Y-103625270D01*
X158013642Y-103618919D01*
X158008261Y-103611739D01*
X158001081Y-103606358D01*
X158001078Y-103606355D01*
X157912225Y-103539764D01*
X157891705Y-103524385D01*
X157755316Y-103473255D01*
X157693134Y-103466500D01*
X155996866Y-103466500D01*
X155934684Y-103473255D01*
X155798295Y-103524385D01*
X155681739Y-103611739D01*
X155594385Y-103728295D01*
X155543255Y-103864684D01*
X155536500Y-103926866D01*
X155536500Y-105623134D01*
X152983924Y-105623134D01*
X152224885Y-104864095D01*
X152190859Y-104801783D01*
X152192694Y-104776132D01*
X152859408Y-104776132D01*
X152859539Y-104777965D01*
X152863790Y-104784580D01*
X153569287Y-105490077D01*
X153581062Y-105496507D01*
X153593077Y-105487211D01*
X153628931Y-105436006D01*
X153634414Y-105426511D01*
X153726490Y-105229053D01*
X153730236Y-105218761D01*
X153786625Y-105008312D01*
X153788528Y-104997519D01*
X153807517Y-104780475D01*
X153807517Y-104769525D01*
X153788528Y-104552481D01*
X153786625Y-104541688D01*
X153730236Y-104331239D01*
X153726490Y-104320947D01*
X153634414Y-104123489D01*
X153628931Y-104113994D01*
X153592491Y-104061952D01*
X153582012Y-104053576D01*
X153568566Y-104060644D01*
X152867022Y-104762188D01*
X152859408Y-104776132D01*
X152192694Y-104776132D01*
X152195924Y-104730968D01*
X152224885Y-104685905D01*
X153210077Y-103700713D01*
X153216507Y-103688938D01*
X153207211Y-103676923D01*
X153156006Y-103641069D01*
X153146511Y-103635586D01*
X152949053Y-103543510D01*
X152938761Y-103539764D01*
X152728312Y-103483375D01*
X152717519Y-103481472D01*
X152500475Y-103462483D01*
X152489525Y-103462483D01*
X152272481Y-103481472D01*
X152261688Y-103483375D01*
X152051239Y-103539764D01*
X152040947Y-103543510D01*
X151843489Y-103635586D01*
X151833989Y-103641071D01*
X151833090Y-103641701D01*
X151832630Y-103641856D01*
X151829232Y-103643818D01*
X151828838Y-103643135D01*
X151765816Y-103664388D01*
X151696956Y-103647102D01*
X151671197Y-103624066D01*
X151669993Y-103625270D01*
X151663642Y-103618919D01*
X151658261Y-103611739D01*
X151651081Y-103606358D01*
X151651078Y-103606355D01*
X151562225Y-103539764D01*
X151541705Y-103524385D01*
X151405316Y-103473255D01*
X151343134Y-103466500D01*
X150382082Y-103466500D01*
X150313961Y-103446498D01*
X150292987Y-103429595D01*
X149588245Y-102724853D01*
X163704977Y-102724853D01*
X163710258Y-102731907D01*
X163757479Y-102759501D01*
X163806203Y-102811139D01*
X163819274Y-102880922D01*
X163792543Y-102946694D01*
X163752087Y-102980053D01*
X163743466Y-102984541D01*
X163734734Y-102990039D01*
X163714677Y-103005099D01*
X163706223Y-103016427D01*
X163712968Y-103028758D01*
X164452188Y-103767978D01*
X164466132Y-103775592D01*
X164467965Y-103775461D01*
X164474580Y-103771210D01*
X165218389Y-103027401D01*
X165225410Y-103014544D01*
X165218611Y-103005213D01*
X165214559Y-103002521D01*
X165177116Y-102981852D01*
X165127145Y-102931420D01*
X165112373Y-102861977D01*
X165137489Y-102795572D01*
X165164840Y-102768965D01*
X165214247Y-102733723D01*
X165221211Y-102724853D01*
X166244977Y-102724853D01*
X166250258Y-102731907D01*
X166297479Y-102759501D01*
X166346203Y-102811139D01*
X166359274Y-102880922D01*
X166332543Y-102946694D01*
X166292087Y-102980053D01*
X166283466Y-102984541D01*
X166274734Y-102990039D01*
X166254677Y-103005099D01*
X166246223Y-103016427D01*
X166252968Y-103028758D01*
X166992188Y-103767978D01*
X167006132Y-103775592D01*
X167007965Y-103775461D01*
X167014580Y-103771210D01*
X167758389Y-103027401D01*
X167765410Y-103014544D01*
X167758611Y-103005213D01*
X167754559Y-103002521D01*
X167717116Y-102981852D01*
X167667145Y-102931420D01*
X167652373Y-102861977D01*
X167677489Y-102795572D01*
X167704840Y-102768965D01*
X167754247Y-102733723D01*
X167762648Y-102723023D01*
X167755660Y-102709870D01*
X167017812Y-101972022D01*
X167003868Y-101964408D01*
X167002035Y-101964539D01*
X166995420Y-101968790D01*
X166251737Y-102712473D01*
X166244977Y-102724853D01*
X165221211Y-102724853D01*
X165222648Y-102723023D01*
X165215660Y-102709870D01*
X164477812Y-101972022D01*
X164463868Y-101964408D01*
X164462035Y-101964539D01*
X164455420Y-101968790D01*
X163711737Y-102712473D01*
X163704977Y-102724853D01*
X149588245Y-102724853D01*
X149293489Y-102430097D01*
X149259463Y-102367785D01*
X149264528Y-102296970D01*
X149307075Y-102240134D01*
X149371602Y-102215481D01*
X149444371Y-102209115D01*
X149657076Y-102152120D01*
X149856654Y-102059056D01*
X149980951Y-101972022D01*
X150032527Y-101935908D01*
X150032529Y-101935906D01*
X150037038Y-101932749D01*
X150192749Y-101777038D01*
X150204878Y-101759717D01*
X150315899Y-101601162D01*
X150315900Y-101601160D01*
X150319056Y-101596653D01*
X150321379Y-101591671D01*
X150321382Y-101591666D01*
X150368585Y-101490438D01*
X150412120Y-101397076D01*
X150469115Y-101184371D01*
X150488307Y-100965000D01*
X150469115Y-100745629D01*
X150412120Y-100532924D01*
X150353861Y-100407987D01*
X150321382Y-100338334D01*
X150321379Y-100338329D01*
X150319056Y-100333347D01*
X150315899Y-100328839D01*
X150314822Y-100326973D01*
X150298084Y-100257978D01*
X150321304Y-100190886D01*
X150332666Y-100177454D01*
X150338261Y-100173261D01*
X150425615Y-100056705D01*
X150476745Y-99920316D01*
X150483500Y-99858134D01*
X150483500Y-99060000D01*
X155581693Y-99060000D01*
X155600885Y-99279371D01*
X155657880Y-99492076D01*
X155699255Y-99580805D01*
X155748618Y-99686666D01*
X155748621Y-99686671D01*
X155750944Y-99691653D01*
X155754101Y-99696161D01*
X155755178Y-99698027D01*
X155771916Y-99767022D01*
X155748696Y-99834114D01*
X155737334Y-99847546D01*
X155731739Y-99851739D01*
X155644385Y-99968295D01*
X155593255Y-100104684D01*
X155586500Y-100166866D01*
X155586500Y-101763134D01*
X155593255Y-101825316D01*
X155644385Y-101961705D01*
X155731739Y-102078261D01*
X155848295Y-102165615D01*
X155984684Y-102216745D01*
X156046866Y-102223500D01*
X157643134Y-102223500D01*
X157705316Y-102216745D01*
X157841705Y-102165615D01*
X157958261Y-102078261D01*
X158045615Y-101961705D01*
X158096745Y-101825316D01*
X158103500Y-101763134D01*
X158103500Y-101571863D01*
X163103050Y-101571863D01*
X163115309Y-101784477D01*
X163116745Y-101794697D01*
X163163565Y-102002446D01*
X163166645Y-102012275D01*
X163246770Y-102209603D01*
X163251413Y-102218794D01*
X163331460Y-102349420D01*
X163341916Y-102358880D01*
X163350694Y-102355096D01*
X164092978Y-101612812D01*
X164099356Y-101601132D01*
X164829408Y-101601132D01*
X164829539Y-101602965D01*
X164833790Y-101609580D01*
X165575474Y-102351264D01*
X165587484Y-102357823D01*
X165599223Y-102348855D01*
X165633022Y-102301819D01*
X165634149Y-102302629D01*
X165681659Y-102258881D01*
X165751596Y-102246661D01*
X165817038Y-102274191D01*
X165844870Y-102306029D01*
X165871459Y-102349419D01*
X165881916Y-102358880D01*
X165890694Y-102355096D01*
X166632978Y-101612812D01*
X166639356Y-101601132D01*
X167369408Y-101601132D01*
X167369539Y-101602965D01*
X167373790Y-101609580D01*
X168115474Y-102351264D01*
X168127484Y-102357823D01*
X168139223Y-102348855D01*
X168170004Y-102306019D01*
X168175315Y-102297180D01*
X168269670Y-102106267D01*
X168273469Y-102096672D01*
X168335376Y-101892915D01*
X168337555Y-101882834D01*
X168365590Y-101669887D01*
X168366109Y-101663212D01*
X168367572Y-101603364D01*
X168367378Y-101596646D01*
X168349781Y-101382604D01*
X168348096Y-101372424D01*
X168296214Y-101165875D01*
X168292894Y-101156124D01*
X168207972Y-100960814D01*
X168203105Y-100951739D01*
X168138063Y-100851197D01*
X168127377Y-100841995D01*
X168117812Y-100846398D01*
X167377022Y-101587188D01*
X167369408Y-101601132D01*
X166639356Y-101601132D01*
X166640592Y-101598868D01*
X166640461Y-101597035D01*
X166636210Y-101590420D01*
X165894849Y-100849059D01*
X165883313Y-100842759D01*
X165871028Y-100852384D01*
X165838192Y-100900520D01*
X165783281Y-100945523D01*
X165712756Y-100953694D01*
X165649009Y-100922440D01*
X165628311Y-100897955D01*
X165598062Y-100851197D01*
X165587377Y-100841995D01*
X165577812Y-100846398D01*
X164837022Y-101587188D01*
X164829408Y-101601132D01*
X164099356Y-101601132D01*
X164100592Y-101598868D01*
X164100461Y-101597035D01*
X164096210Y-101590420D01*
X163354849Y-100849059D01*
X163343313Y-100842759D01*
X163331031Y-100852382D01*
X163283089Y-100922662D01*
X163278004Y-100931613D01*
X163188338Y-101124783D01*
X163184775Y-101134470D01*
X163127864Y-101339681D01*
X163125933Y-101349800D01*
X163103302Y-101561574D01*
X163103050Y-101571863D01*
X158103500Y-101571863D01*
X158103500Y-100166866D01*
X158096745Y-100104684D01*
X158045615Y-99968295D01*
X157958261Y-99851739D01*
X157953974Y-99848526D01*
X157920820Y-99787811D01*
X157925885Y-99716996D01*
X157934822Y-99698027D01*
X157935899Y-99696161D01*
X157939056Y-99691653D01*
X157941379Y-99686671D01*
X157941382Y-99686666D01*
X157990745Y-99580805D01*
X158032120Y-99492076D01*
X158089115Y-99279371D01*
X158108307Y-99060000D01*
X158105393Y-99026695D01*
X163102251Y-99026695D01*
X163102548Y-99031848D01*
X163102548Y-99031851D01*
X163108011Y-99126590D01*
X163115110Y-99249715D01*
X163116247Y-99254761D01*
X163116248Y-99254767D01*
X163130398Y-99317551D01*
X163164222Y-99467639D01*
X163248266Y-99674616D01*
X163282606Y-99730654D01*
X163361207Y-99858919D01*
X163364987Y-99865088D01*
X163511250Y-100033938D01*
X163621189Y-100125211D01*
X163676580Y-100171197D01*
X163683126Y-100176632D01*
X163707519Y-100190886D01*
X163756955Y-100219774D01*
X163805679Y-100271412D01*
X163818750Y-100341195D01*
X163792019Y-100406967D01*
X163751562Y-100440327D01*
X163743460Y-100444544D01*
X163734734Y-100450039D01*
X163714677Y-100465099D01*
X163706223Y-100476427D01*
X163712968Y-100488758D01*
X164452188Y-101227978D01*
X164466132Y-101235592D01*
X164467965Y-101235461D01*
X164474580Y-101231210D01*
X165218389Y-100487401D01*
X165225410Y-100474544D01*
X165218611Y-100465213D01*
X165214559Y-100462521D01*
X165177602Y-100442120D01*
X165127631Y-100391687D01*
X165112859Y-100322245D01*
X165137975Y-100255839D01*
X165165327Y-100229232D01*
X165328924Y-100112540D01*
X165344860Y-100101173D01*
X165347886Y-100098157D01*
X165412588Y-100069570D01*
X165428976Y-100068500D01*
X166047393Y-100068500D01*
X166115514Y-100088502D01*
X166127877Y-100097555D01*
X166223126Y-100176632D01*
X166247519Y-100190886D01*
X166296955Y-100219774D01*
X166345679Y-100271412D01*
X166358750Y-100341195D01*
X166332019Y-100406967D01*
X166291562Y-100440327D01*
X166283460Y-100444544D01*
X166274734Y-100450039D01*
X166254677Y-100465099D01*
X166246223Y-100476427D01*
X166252968Y-100488758D01*
X166992188Y-101227978D01*
X167006132Y-101235592D01*
X167007965Y-101235461D01*
X167014580Y-101231210D01*
X167758389Y-100487401D01*
X167765410Y-100474544D01*
X167758611Y-100465213D01*
X167754559Y-100462521D01*
X167717602Y-100442120D01*
X167667631Y-100391687D01*
X167652859Y-100322245D01*
X167677975Y-100255839D01*
X167705327Y-100229232D01*
X167759086Y-100190886D01*
X167884860Y-100101173D01*
X167889845Y-100096206D01*
X168039435Y-99947137D01*
X168043096Y-99943489D01*
X168059748Y-99920316D01*
X168170435Y-99766277D01*
X168173453Y-99762077D01*
X168186769Y-99735135D01*
X168270136Y-99566453D01*
X168270137Y-99566451D01*
X168272430Y-99561811D01*
X168337370Y-99348069D01*
X168366529Y-99126590D01*
X168366611Y-99123240D01*
X168368074Y-99063365D01*
X168368074Y-99063361D01*
X168368156Y-99060000D01*
X168349852Y-98837361D01*
X168295431Y-98620702D01*
X168206354Y-98415840D01*
X168166906Y-98354862D01*
X168087822Y-98232617D01*
X168087820Y-98232614D01*
X168085014Y-98228277D01*
X167934670Y-98063051D01*
X167930619Y-98059852D01*
X167930615Y-98059848D01*
X167763414Y-97927800D01*
X167763410Y-97927798D01*
X167759359Y-97924598D01*
X167746422Y-97917456D01*
X167669883Y-97875205D01*
X167563789Y-97816638D01*
X167558920Y-97814914D01*
X167558916Y-97814912D01*
X167358087Y-97743795D01*
X167358083Y-97743794D01*
X167353212Y-97742069D01*
X167348119Y-97741162D01*
X167348116Y-97741161D01*
X167138373Y-97703800D01*
X167138367Y-97703799D01*
X167133284Y-97702894D01*
X167059452Y-97701992D01*
X166915081Y-97700228D01*
X166915079Y-97700228D01*
X166909911Y-97700165D01*
X166689091Y-97733955D01*
X166476756Y-97803357D01*
X166278607Y-97906507D01*
X166274474Y-97909610D01*
X166274471Y-97909612D01*
X166119111Y-98026260D01*
X166052626Y-98051166D01*
X166043458Y-98051500D01*
X165423799Y-98051500D01*
X165355678Y-98031498D01*
X165345707Y-98024382D01*
X165223414Y-97927800D01*
X165223410Y-97927798D01*
X165219359Y-97924598D01*
X165206422Y-97917456D01*
X165129883Y-97875205D01*
X165023789Y-97816638D01*
X165018920Y-97814914D01*
X165018916Y-97814912D01*
X164818087Y-97743795D01*
X164818083Y-97743794D01*
X164813212Y-97742069D01*
X164808119Y-97741162D01*
X164808116Y-97741161D01*
X164598373Y-97703800D01*
X164598367Y-97703799D01*
X164593284Y-97702894D01*
X164519452Y-97701992D01*
X164375081Y-97700228D01*
X164375079Y-97700228D01*
X164369911Y-97700165D01*
X164149091Y-97733955D01*
X163936756Y-97803357D01*
X163738607Y-97906507D01*
X163734474Y-97909610D01*
X163734471Y-97909612D01*
X163572134Y-98031498D01*
X163559965Y-98040635D01*
X163405629Y-98202138D01*
X163279743Y-98386680D01*
X163185688Y-98589305D01*
X163125989Y-98804570D01*
X163102251Y-99026695D01*
X158105393Y-99026695D01*
X158089115Y-98840629D01*
X158032120Y-98627924D01*
X157988585Y-98534562D01*
X157941382Y-98433334D01*
X157941379Y-98433329D01*
X157939056Y-98428347D01*
X157935899Y-98423838D01*
X157815908Y-98252473D01*
X157815906Y-98252470D01*
X157812749Y-98247962D01*
X157657038Y-98092251D01*
X157620791Y-98066870D01*
X157562794Y-98026260D01*
X157476654Y-97965944D01*
X157277076Y-97872880D01*
X157064371Y-97815885D01*
X156845000Y-97796693D01*
X156625629Y-97815885D01*
X156412924Y-97872880D01*
X156334152Y-97909612D01*
X156218334Y-97963618D01*
X156218329Y-97963621D01*
X156213347Y-97965944D01*
X156208840Y-97969100D01*
X156208838Y-97969101D01*
X156037473Y-98089092D01*
X156037470Y-98089094D01*
X156032962Y-98092251D01*
X155877251Y-98247962D01*
X155874094Y-98252470D01*
X155874092Y-98252473D01*
X155754101Y-98423838D01*
X155750944Y-98428347D01*
X155748621Y-98433329D01*
X155748618Y-98433334D01*
X155701415Y-98534562D01*
X155657880Y-98627924D01*
X155600885Y-98840629D01*
X155581693Y-99060000D01*
X150483500Y-99060000D01*
X150483500Y-98261866D01*
X150476745Y-98199684D01*
X150425615Y-98063295D01*
X150338261Y-97946739D01*
X150221705Y-97859385D01*
X150085316Y-97808255D01*
X150062229Y-97805747D01*
X150055990Y-97805069D01*
X149990428Y-97777826D01*
X149950002Y-97719463D01*
X149947548Y-97648509D01*
X149983844Y-97587491D01*
X149997329Y-97576593D01*
X150064784Y-97529361D01*
X150064790Y-97529356D01*
X150069300Y-97526198D01*
X150231198Y-97364300D01*
X150267947Y-97311818D01*
X150324668Y-97230811D01*
X150362523Y-97176749D01*
X150364846Y-97171767D01*
X150364849Y-97171762D01*
X150456961Y-96974225D01*
X150456961Y-96974224D01*
X150459284Y-96969243D01*
X150464117Y-96951208D01*
X150508245Y-96786522D01*
X158102273Y-96786522D01*
X158149764Y-96963761D01*
X158153510Y-96974053D01*
X158245586Y-97171511D01*
X158251069Y-97181007D01*
X158376028Y-97359467D01*
X158383084Y-97367875D01*
X158537125Y-97521916D01*
X158545533Y-97528972D01*
X158723993Y-97653931D01*
X158733489Y-97659414D01*
X158930947Y-97751490D01*
X158941239Y-97755236D01*
X159113503Y-97801394D01*
X159127599Y-97801058D01*
X159131000Y-97793116D01*
X159131000Y-97787967D01*
X159639000Y-97787967D01*
X159642973Y-97801498D01*
X159651522Y-97802727D01*
X159828761Y-97755236D01*
X159839053Y-97751490D01*
X160036511Y-97659414D01*
X160046007Y-97653931D01*
X160224467Y-97528972D01*
X160232875Y-97521916D01*
X160386916Y-97367875D01*
X160393972Y-97359467D01*
X160518931Y-97181007D01*
X160524414Y-97171511D01*
X160616490Y-96974053D01*
X160620236Y-96963761D01*
X160666394Y-96791497D01*
X160666058Y-96777401D01*
X160658116Y-96774000D01*
X159657115Y-96774000D01*
X159641876Y-96778475D01*
X159640671Y-96779865D01*
X159639000Y-96787548D01*
X159639000Y-97787967D01*
X159131000Y-97787967D01*
X159131000Y-96792115D01*
X159126525Y-96776876D01*
X159125135Y-96775671D01*
X159117452Y-96774000D01*
X158117033Y-96774000D01*
X158103502Y-96777973D01*
X158102273Y-96786522D01*
X150508245Y-96786522D01*
X150517119Y-96753402D01*
X150517119Y-96753400D01*
X150518543Y-96748087D01*
X150538498Y-96520000D01*
X150518543Y-96291913D01*
X150459284Y-96070757D01*
X150364966Y-95868489D01*
X150364849Y-95868238D01*
X150364846Y-95868233D01*
X150362523Y-95863251D01*
X150231198Y-95675700D01*
X150069300Y-95513802D01*
X150064792Y-95510645D01*
X150064789Y-95510643D01*
X149938505Y-95422218D01*
X149881749Y-95382477D01*
X149876767Y-95380154D01*
X149876762Y-95380151D01*
X149842543Y-95364195D01*
X149789258Y-95317278D01*
X149769797Y-95249001D01*
X149790339Y-95181041D01*
X149842543Y-95135805D01*
X149876762Y-95119849D01*
X149876767Y-95119846D01*
X149881749Y-95117523D01*
X150023458Y-95018297D01*
X150064789Y-94989357D01*
X150064792Y-94989355D01*
X150069300Y-94986198D01*
X150231198Y-94824300D01*
X150235059Y-94818787D01*
X150359366Y-94641257D01*
X150362523Y-94636749D01*
X150364846Y-94631767D01*
X150364849Y-94631762D01*
X150456961Y-94434225D01*
X150456961Y-94434224D01*
X150459284Y-94429243D01*
X150506534Y-94252907D01*
X150517119Y-94213402D01*
X150517119Y-94213400D01*
X150518543Y-94208087D01*
X150538498Y-93980000D01*
X158071502Y-93980000D01*
X158091457Y-94208087D01*
X158092881Y-94213400D01*
X158092881Y-94213402D01*
X158103467Y-94252907D01*
X158150716Y-94429243D01*
X158153039Y-94434224D01*
X158153039Y-94434225D01*
X158245151Y-94631762D01*
X158245154Y-94631767D01*
X158247477Y-94636749D01*
X158250634Y-94641257D01*
X158374942Y-94818787D01*
X158378802Y-94824300D01*
X158540700Y-94986198D01*
X158545208Y-94989355D01*
X158545211Y-94989357D01*
X158586542Y-95018297D01*
X158728251Y-95117523D01*
X158733233Y-95119846D01*
X158733238Y-95119849D01*
X158768049Y-95136081D01*
X158821334Y-95182998D01*
X158840795Y-95251275D01*
X158820253Y-95319235D01*
X158768049Y-95364471D01*
X158733489Y-95380586D01*
X158723993Y-95386069D01*
X158545533Y-95511028D01*
X158537125Y-95518084D01*
X158383084Y-95672125D01*
X158376028Y-95680533D01*
X158251069Y-95858993D01*
X158245586Y-95868489D01*
X158153510Y-96065947D01*
X158149764Y-96076239D01*
X158103606Y-96248503D01*
X158103942Y-96262599D01*
X158111884Y-96266000D01*
X160652967Y-96266000D01*
X160666498Y-96262027D01*
X160667727Y-96253478D01*
X160620236Y-96076239D01*
X160616490Y-96065947D01*
X160524414Y-95868489D01*
X160518931Y-95858993D01*
X160393972Y-95680533D01*
X160386916Y-95672125D01*
X160232875Y-95518084D01*
X160224467Y-95511028D01*
X160046007Y-95386069D01*
X160036511Y-95380586D01*
X160001951Y-95364471D01*
X159948666Y-95317554D01*
X159929205Y-95249277D01*
X159949747Y-95181317D01*
X160001951Y-95136081D01*
X160036762Y-95119849D01*
X160036767Y-95119846D01*
X160041749Y-95117523D01*
X160183458Y-95018297D01*
X160224789Y-94989357D01*
X160224792Y-94989355D01*
X160229300Y-94986198D01*
X160391198Y-94824300D01*
X160395059Y-94818787D01*
X160519366Y-94641257D01*
X160522523Y-94636749D01*
X160524846Y-94631767D01*
X160524849Y-94631762D01*
X160616961Y-94434225D01*
X160616961Y-94434224D01*
X160619284Y-94429243D01*
X160666534Y-94252907D01*
X160677119Y-94213402D01*
X160677119Y-94213400D01*
X160678543Y-94208087D01*
X160698498Y-93980000D01*
X160678543Y-93751913D01*
X160642312Y-93616699D01*
X160620707Y-93536067D01*
X160620706Y-93536065D01*
X160619284Y-93530757D01*
X160616961Y-93525775D01*
X160524849Y-93328238D01*
X160524846Y-93328233D01*
X160522523Y-93323251D01*
X160449098Y-93218389D01*
X160394357Y-93140211D01*
X160394355Y-93140208D01*
X160391198Y-93135700D01*
X160229300Y-92973802D01*
X160224792Y-92970645D01*
X160224789Y-92970643D01*
X160142449Y-92912988D01*
X160041749Y-92842477D01*
X160036767Y-92840154D01*
X160036762Y-92840151D01*
X160002543Y-92824195D01*
X159949258Y-92777278D01*
X159929797Y-92709001D01*
X159950339Y-92641041D01*
X160002543Y-92595805D01*
X160036762Y-92579849D01*
X160036767Y-92579846D01*
X160041749Y-92577523D01*
X160146611Y-92504098D01*
X160224789Y-92449357D01*
X160224792Y-92449355D01*
X160229300Y-92446198D01*
X160391198Y-92284300D01*
X160416960Y-92247509D01*
X160479286Y-92158498D01*
X160522523Y-92096749D01*
X160524846Y-92091767D01*
X160524849Y-92091762D01*
X160616961Y-91894225D01*
X160616961Y-91894224D01*
X160619284Y-91889243D01*
X160630523Y-91847301D01*
X160677119Y-91673402D01*
X160677119Y-91673400D01*
X160678543Y-91668087D01*
X160698498Y-91440000D01*
X160678543Y-91211913D01*
X160642769Y-91078402D01*
X160620707Y-90996067D01*
X160620706Y-90996065D01*
X160619284Y-90990757D01*
X160548764Y-90839525D01*
X160524849Y-90788238D01*
X160524846Y-90788233D01*
X160522523Y-90783251D01*
X160391198Y-90595700D01*
X160229300Y-90433802D01*
X160224792Y-90430645D01*
X160224789Y-90430643D01*
X160146611Y-90375902D01*
X160041749Y-90302477D01*
X160036767Y-90300154D01*
X160036762Y-90300151D01*
X160001951Y-90283919D01*
X159948666Y-90237002D01*
X159929205Y-90168725D01*
X159949747Y-90100765D01*
X160001951Y-90055529D01*
X160036511Y-90039414D01*
X160046007Y-90033931D01*
X160224467Y-89908972D01*
X160232875Y-89901916D01*
X160386916Y-89747875D01*
X160393972Y-89739467D01*
X160518931Y-89561007D01*
X160524414Y-89551511D01*
X160616490Y-89354053D01*
X160620236Y-89343761D01*
X160666394Y-89171497D01*
X160666058Y-89157401D01*
X160658116Y-89154000D01*
X158117033Y-89154000D01*
X158103502Y-89157973D01*
X158102273Y-89166522D01*
X158149764Y-89343761D01*
X158153510Y-89354053D01*
X158245586Y-89551511D01*
X158251069Y-89561007D01*
X158376028Y-89739467D01*
X158383084Y-89747875D01*
X158537125Y-89901916D01*
X158545533Y-89908972D01*
X158723993Y-90033931D01*
X158733489Y-90039414D01*
X158768049Y-90055529D01*
X158821334Y-90102446D01*
X158840795Y-90170723D01*
X158820253Y-90238683D01*
X158768049Y-90283919D01*
X158733238Y-90300151D01*
X158733233Y-90300154D01*
X158728251Y-90302477D01*
X158623389Y-90375902D01*
X158545211Y-90430643D01*
X158545208Y-90430645D01*
X158540700Y-90433802D01*
X158378802Y-90595700D01*
X158247477Y-90783251D01*
X158245154Y-90788233D01*
X158245151Y-90788238D01*
X158221236Y-90839525D01*
X158150716Y-90990757D01*
X158149294Y-90996065D01*
X158149293Y-90996067D01*
X158127231Y-91078402D01*
X158091457Y-91211913D01*
X158071502Y-91440000D01*
X158091457Y-91668087D01*
X158092881Y-91673400D01*
X158092881Y-91673402D01*
X158139478Y-91847301D01*
X158150716Y-91889243D01*
X158153039Y-91894224D01*
X158153039Y-91894225D01*
X158245151Y-92091762D01*
X158245154Y-92091767D01*
X158247477Y-92096749D01*
X158290714Y-92158498D01*
X158353041Y-92247509D01*
X158378802Y-92284300D01*
X158540700Y-92446198D01*
X158545208Y-92449355D01*
X158545211Y-92449357D01*
X158623389Y-92504098D01*
X158728251Y-92577523D01*
X158733233Y-92579846D01*
X158733238Y-92579849D01*
X158767457Y-92595805D01*
X158820742Y-92642722D01*
X158840203Y-92710999D01*
X158819661Y-92778959D01*
X158767457Y-92824195D01*
X158733238Y-92840151D01*
X158733233Y-92840154D01*
X158728251Y-92842477D01*
X158627551Y-92912988D01*
X158545211Y-92970643D01*
X158545208Y-92970645D01*
X158540700Y-92973802D01*
X158378802Y-93135700D01*
X158375645Y-93140208D01*
X158375643Y-93140211D01*
X158320902Y-93218389D01*
X158247477Y-93323251D01*
X158245154Y-93328233D01*
X158245151Y-93328238D01*
X158153039Y-93525775D01*
X158150716Y-93530757D01*
X158149294Y-93536065D01*
X158149293Y-93536067D01*
X158127688Y-93616699D01*
X158091457Y-93751913D01*
X158071502Y-93980000D01*
X150538498Y-93980000D01*
X150518543Y-93751913D01*
X150482312Y-93616699D01*
X150460707Y-93536067D01*
X150460706Y-93536065D01*
X150459284Y-93530757D01*
X150456961Y-93525775D01*
X150364849Y-93328238D01*
X150364846Y-93328233D01*
X150362523Y-93323251D01*
X150289098Y-93218389D01*
X150234357Y-93140211D01*
X150234355Y-93140208D01*
X150231198Y-93135700D01*
X150069300Y-92973802D01*
X150064792Y-92970645D01*
X150064789Y-92970643D01*
X149982449Y-92912988D01*
X149881749Y-92842477D01*
X149876767Y-92840154D01*
X149876762Y-92840151D01*
X149842543Y-92824195D01*
X149789258Y-92777278D01*
X149769797Y-92709001D01*
X149790339Y-92641041D01*
X149842543Y-92595805D01*
X149876762Y-92579849D01*
X149876767Y-92579846D01*
X149881749Y-92577523D01*
X149986611Y-92504098D01*
X150064789Y-92449357D01*
X150064792Y-92449355D01*
X150069300Y-92446198D01*
X150231198Y-92284300D01*
X150256960Y-92247509D01*
X150319286Y-92158498D01*
X150362523Y-92096749D01*
X150364846Y-92091767D01*
X150364849Y-92091762D01*
X150456961Y-91894225D01*
X150456961Y-91894224D01*
X150459284Y-91889243D01*
X150470523Y-91847301D01*
X150517119Y-91673402D01*
X150517119Y-91673400D01*
X150518543Y-91668087D01*
X150538498Y-91440000D01*
X150518543Y-91211913D01*
X150482769Y-91078402D01*
X150460707Y-90996067D01*
X150460706Y-90996065D01*
X150459284Y-90990757D01*
X150388764Y-90839525D01*
X150364849Y-90788238D01*
X150364846Y-90788233D01*
X150362523Y-90783251D01*
X150231198Y-90595700D01*
X150069300Y-90433802D01*
X150064792Y-90430645D01*
X150064789Y-90430643D01*
X149986611Y-90375902D01*
X149881749Y-90302477D01*
X149876767Y-90300154D01*
X149876762Y-90300151D01*
X149842543Y-90284195D01*
X149789258Y-90237278D01*
X149769797Y-90169001D01*
X149790339Y-90101041D01*
X149842543Y-90055805D01*
X149876762Y-90039849D01*
X149876767Y-90039846D01*
X149881749Y-90037523D01*
X149986611Y-89964098D01*
X150064789Y-89909357D01*
X150064792Y-89909355D01*
X150069300Y-89906198D01*
X150231198Y-89744300D01*
X150254400Y-89711165D01*
X150298767Y-89647802D01*
X150362523Y-89556749D01*
X150364846Y-89551767D01*
X150364849Y-89551762D01*
X150456961Y-89354225D01*
X150456961Y-89354224D01*
X150459284Y-89349243D01*
X150461559Y-89340755D01*
X150517119Y-89133402D01*
X150517119Y-89133400D01*
X150518543Y-89128087D01*
X150538498Y-88900000D01*
X150518543Y-88671913D01*
X150508244Y-88633478D01*
X150506911Y-88628503D01*
X158103606Y-88628503D01*
X158103942Y-88642599D01*
X158111884Y-88646000D01*
X159112885Y-88646000D01*
X159128124Y-88641525D01*
X159129329Y-88640135D01*
X159131000Y-88632452D01*
X159131000Y-88627885D01*
X159639000Y-88627885D01*
X159643475Y-88643124D01*
X159644865Y-88644329D01*
X159652548Y-88646000D01*
X160652967Y-88646000D01*
X160666498Y-88642027D01*
X160667727Y-88633478D01*
X160638943Y-88526054D01*
X161817000Y-88526054D01*
X161817225Y-88531363D01*
X161831339Y-88697707D01*
X161833129Y-88708179D01*
X161889198Y-88924202D01*
X161892734Y-88934242D01*
X161984399Y-89137732D01*
X161989568Y-89147018D01*
X162114210Y-89332155D01*
X162120871Y-89340441D01*
X162274924Y-89501930D01*
X162282892Y-89508979D01*
X162461952Y-89642203D01*
X162470982Y-89647802D01*
X162669931Y-89748953D01*
X162679792Y-89752956D01*
X162892929Y-89819138D01*
X162903309Y-89821420D01*
X162923043Y-89824036D01*
X162937207Y-89821840D01*
X162941000Y-89808655D01*
X162941000Y-89806627D01*
X163449000Y-89806627D01*
X163452973Y-89820158D01*
X163463580Y-89821683D01*
X163587188Y-89795748D01*
X163597384Y-89792688D01*
X163804952Y-89710716D01*
X163814489Y-89705982D01*
X164005285Y-89590204D01*
X164013878Y-89583938D01*
X164182441Y-89437667D01*
X164189861Y-89430036D01*
X164331368Y-89257458D01*
X164337393Y-89248691D01*
X164355989Y-89216022D01*
X164407071Y-89166715D01*
X164476702Y-89152854D01*
X164542773Y-89178837D01*
X164570011Y-89207987D01*
X164656798Y-89336896D01*
X164818276Y-89506168D01*
X165005965Y-89645813D01*
X165010716Y-89648229D01*
X165010720Y-89648231D01*
X165209744Y-89749420D01*
X165214500Y-89751838D01*
X165437917Y-89821210D01*
X165443204Y-89821911D01*
X165443205Y-89821911D01*
X165664545Y-89851248D01*
X165664549Y-89851248D01*
X165669829Y-89851948D01*
X165675158Y-89851748D01*
X165675160Y-89851748D01*
X165786717Y-89847560D01*
X165903604Y-89843172D01*
X166006019Y-89821683D01*
X166127332Y-89796229D01*
X166127335Y-89796228D01*
X166132559Y-89795132D01*
X166350146Y-89709203D01*
X166459860Y-89642627D01*
X166545583Y-89590609D01*
X166545586Y-89590607D01*
X166550144Y-89587841D01*
X166726834Y-89434517D01*
X166757408Y-89397229D01*
X166816067Y-89357236D01*
X166887038Y-89355305D01*
X166947786Y-89392050D01*
X166962733Y-89414390D01*
X166963450Y-89413946D01*
X167056522Y-89564348D01*
X167181697Y-89689305D01*
X167187927Y-89693145D01*
X167187928Y-89693146D01*
X167325090Y-89777694D01*
X167332262Y-89782115D01*
X167374815Y-89796229D01*
X167493611Y-89835632D01*
X167493613Y-89835632D01*
X167500139Y-89837797D01*
X167506975Y-89838497D01*
X167506978Y-89838498D01*
X167547982Y-89842699D01*
X167604600Y-89848500D01*
X168945400Y-89848500D01*
X168948646Y-89848163D01*
X168948650Y-89848163D01*
X169044308Y-89838238D01*
X169044312Y-89838237D01*
X169051166Y-89837526D01*
X169057702Y-89835345D01*
X169057704Y-89835345D01*
X169189806Y-89791272D01*
X169218946Y-89781550D01*
X169369348Y-89688478D01*
X169494305Y-89563303D01*
X169571530Y-89438021D01*
X169583275Y-89418968D01*
X169583276Y-89418966D01*
X169587115Y-89412738D01*
X169642797Y-89244861D01*
X169653500Y-89140400D01*
X169653500Y-87349600D01*
X169651233Y-87327749D01*
X169643238Y-87250692D01*
X169643237Y-87250688D01*
X169642526Y-87243834D01*
X169638665Y-87232259D01*
X169592598Y-87094182D01*
X169586550Y-87076054D01*
X169493478Y-86925652D01*
X169368303Y-86800695D01*
X169362072Y-86796854D01*
X169223968Y-86711725D01*
X169223966Y-86711724D01*
X169217738Y-86707885D01*
X169137722Y-86681345D01*
X169056389Y-86654368D01*
X169056387Y-86654368D01*
X169049861Y-86652203D01*
X169043025Y-86651503D01*
X169043022Y-86651502D01*
X168995449Y-86646628D01*
X168945400Y-86641500D01*
X167604600Y-86641500D01*
X167601354Y-86641837D01*
X167601350Y-86641837D01*
X167505692Y-86651762D01*
X167505688Y-86651763D01*
X167498834Y-86652474D01*
X167492298Y-86654655D01*
X167492296Y-86654655D01*
X167375052Y-86693771D01*
X167331054Y-86708450D01*
X167180652Y-86801522D01*
X167055695Y-86926697D01*
X167051855Y-86932927D01*
X167051854Y-86932928D01*
X166976310Y-87055483D01*
X166962885Y-87077262D01*
X166960738Y-87075938D01*
X166921688Y-87120290D01*
X166853411Y-87139752D01*
X166785451Y-87119212D01*
X166763239Y-87100728D01*
X166655410Y-86987694D01*
X166655398Y-86987684D01*
X166651724Y-86983832D01*
X166644206Y-86978238D01*
X166468317Y-86847373D01*
X166468318Y-86847373D01*
X166464035Y-86844187D01*
X166459284Y-86841771D01*
X166459280Y-86841769D01*
X166260256Y-86740580D01*
X166260255Y-86740580D01*
X166255500Y-86738162D01*
X166032083Y-86668790D01*
X166026796Y-86668089D01*
X166026795Y-86668089D01*
X165805455Y-86638752D01*
X165805451Y-86638752D01*
X165800171Y-86638052D01*
X165794842Y-86638252D01*
X165794840Y-86638252D01*
X165699346Y-86641837D01*
X165566396Y-86646828D01*
X165482411Y-86664450D01*
X165342668Y-86693771D01*
X165342665Y-86693772D01*
X165337441Y-86694868D01*
X165119854Y-86780797D01*
X165115290Y-86783566D01*
X165115291Y-86783566D01*
X164924417Y-86899391D01*
X164924414Y-86899393D01*
X164919856Y-86902159D01*
X164743166Y-87055483D01*
X164594835Y-87236386D01*
X164592196Y-87241022D01*
X164592194Y-87241025D01*
X164573423Y-87274001D01*
X164522341Y-87323307D01*
X164452711Y-87337169D01*
X164386640Y-87311186D01*
X164359401Y-87282036D01*
X164275790Y-87157845D01*
X164269129Y-87149559D01*
X164115076Y-86988070D01*
X164107108Y-86981021D01*
X163928048Y-86847797D01*
X163919018Y-86842198D01*
X163720069Y-86741047D01*
X163710208Y-86737044D01*
X163497071Y-86670862D01*
X163486691Y-86668580D01*
X163466957Y-86665964D01*
X163452793Y-86668160D01*
X163449000Y-86681345D01*
X163449000Y-89806627D01*
X162941000Y-89806627D01*
X162941000Y-88517115D01*
X162936525Y-88501876D01*
X162935135Y-88500671D01*
X162927452Y-88499000D01*
X161835115Y-88499000D01*
X161819876Y-88503475D01*
X161818671Y-88504865D01*
X161817000Y-88512548D01*
X161817000Y-88526054D01*
X160638943Y-88526054D01*
X160620236Y-88456239D01*
X160616490Y-88445947D01*
X160524414Y-88248489D01*
X160518931Y-88238993D01*
X160393972Y-88060533D01*
X160386916Y-88052125D01*
X160307676Y-87972885D01*
X161817000Y-87972885D01*
X161821475Y-87988124D01*
X161822865Y-87989329D01*
X161830548Y-87991000D01*
X162922885Y-87991000D01*
X162938124Y-87986525D01*
X162939329Y-87985135D01*
X162941000Y-87977452D01*
X162941000Y-86683373D01*
X162937027Y-86669842D01*
X162926420Y-86668317D01*
X162802812Y-86694252D01*
X162792616Y-86697312D01*
X162585048Y-86779284D01*
X162575511Y-86784018D01*
X162384715Y-86899796D01*
X162376122Y-86906062D01*
X162207559Y-87052333D01*
X162200139Y-87059964D01*
X162058632Y-87232542D01*
X162052607Y-87241309D01*
X161942203Y-87435262D01*
X161937738Y-87444926D01*
X161861590Y-87654711D01*
X161858819Y-87664979D01*
X161818894Y-87885766D01*
X161817961Y-87893995D01*
X161817070Y-87912874D01*
X161817000Y-87915849D01*
X161817000Y-87972885D01*
X160307676Y-87972885D01*
X160232875Y-87898084D01*
X160224467Y-87891028D01*
X160046007Y-87766069D01*
X160036511Y-87760586D01*
X159839053Y-87668510D01*
X159828761Y-87664764D01*
X159656497Y-87618606D01*
X159642401Y-87618942D01*
X159639000Y-87626884D01*
X159639000Y-88627885D01*
X159131000Y-88627885D01*
X159131000Y-87632033D01*
X159127027Y-87618502D01*
X159118478Y-87617273D01*
X158941239Y-87664764D01*
X158930947Y-87668510D01*
X158733489Y-87760586D01*
X158723993Y-87766069D01*
X158545533Y-87891028D01*
X158537125Y-87898084D01*
X158383084Y-88052125D01*
X158376028Y-88060533D01*
X158251069Y-88238993D01*
X158245586Y-88248489D01*
X158153510Y-88445947D01*
X158149764Y-88456239D01*
X158103606Y-88628503D01*
X150506911Y-88628503D01*
X150460707Y-88456067D01*
X150460706Y-88456065D01*
X150459284Y-88450757D01*
X150454012Y-88439451D01*
X150364849Y-88248238D01*
X150364846Y-88248233D01*
X150362523Y-88243251D01*
X150288509Y-88137549D01*
X150234357Y-88060211D01*
X150234355Y-88060208D01*
X150231198Y-88055700D01*
X150069300Y-87893802D01*
X150064792Y-87890645D01*
X150064789Y-87890643D01*
X149996657Y-87842936D01*
X149952328Y-87787478D01*
X149945020Y-87716859D01*
X149977051Y-87653499D01*
X150038253Y-87617514D01*
X150055320Y-87614460D01*
X150061703Y-87613767D01*
X150072459Y-87612599D01*
X150072463Y-87612598D01*
X150080316Y-87611745D01*
X150216705Y-87560615D01*
X150333261Y-87473261D01*
X150420615Y-87356705D01*
X150471745Y-87220316D01*
X150478500Y-87158134D01*
X150478500Y-85561866D01*
X150471745Y-85499684D01*
X150420615Y-85363295D01*
X150333261Y-85246739D01*
X150331394Y-85245340D01*
X150298970Y-85185961D01*
X150304035Y-85115146D01*
X150313912Y-85096363D01*
X150313150Y-85095923D01*
X150315900Y-85091160D01*
X150319056Y-85086653D01*
X150321379Y-85081671D01*
X150321382Y-85081666D01*
X150409795Y-84892061D01*
X150412120Y-84887076D01*
X150469115Y-84674371D01*
X150488307Y-84455000D01*
X150469115Y-84235629D01*
X150412120Y-84022924D01*
X150342093Y-83872750D01*
X150331432Y-83802558D01*
X150360412Y-83737745D01*
X150419832Y-83698889D01*
X150456288Y-83693500D01*
X155460500Y-83693500D01*
X155528621Y-83713502D01*
X155575114Y-83767158D01*
X155586500Y-83819500D01*
X155586500Y-85253134D01*
X155593255Y-85315316D01*
X155644385Y-85451705D01*
X155731739Y-85568261D01*
X155733606Y-85569660D01*
X155766030Y-85629039D01*
X155760965Y-85699854D01*
X155751088Y-85718637D01*
X155751850Y-85719077D01*
X155749100Y-85723840D01*
X155745944Y-85728347D01*
X155743621Y-85733329D01*
X155743618Y-85733334D01*
X155703669Y-85819006D01*
X155652880Y-85927924D01*
X155595885Y-86140629D01*
X155576693Y-86360000D01*
X155595885Y-86579371D01*
X155652880Y-86792076D01*
X155678863Y-86847797D01*
X155743618Y-86986666D01*
X155743621Y-86986671D01*
X155745944Y-86991653D01*
X155749100Y-86996160D01*
X155749101Y-86996162D01*
X155860123Y-87154717D01*
X155872251Y-87172038D01*
X156027962Y-87327749D01*
X156032471Y-87330906D01*
X156032473Y-87330908D01*
X156087384Y-87369357D01*
X156208346Y-87454056D01*
X156407924Y-87547120D01*
X156620629Y-87604115D01*
X156840000Y-87623307D01*
X157059371Y-87604115D01*
X157272076Y-87547120D01*
X157471654Y-87454056D01*
X157592616Y-87369357D01*
X157647527Y-87330908D01*
X157647529Y-87330906D01*
X157652038Y-87327749D01*
X157807749Y-87172038D01*
X157819878Y-87154717D01*
X157930899Y-86996162D01*
X157930900Y-86996160D01*
X157934056Y-86991653D01*
X157936379Y-86986671D01*
X157936382Y-86986666D01*
X158001137Y-86847797D01*
X158027120Y-86792076D01*
X158084115Y-86579371D01*
X158103307Y-86360000D01*
X158084115Y-86140629D01*
X158027120Y-85927924D01*
X157942637Y-85746749D01*
X157936383Y-85733337D01*
X157936381Y-85733334D01*
X157934056Y-85728347D01*
X157931568Y-85724793D01*
X157914914Y-85656150D01*
X157938133Y-85589057D01*
X157951331Y-85573455D01*
X157958261Y-85568261D01*
X158045615Y-85451705D01*
X158096745Y-85315316D01*
X158103500Y-85253134D01*
X158103500Y-83819500D01*
X158123502Y-83751379D01*
X158177158Y-83704886D01*
X158229500Y-83693500D01*
X170180500Y-83693500D01*
X170248621Y-83713502D01*
X170295114Y-83767158D01*
X170306500Y-83819500D01*
X170306500Y-114300500D01*
X170286498Y-114368621D01*
X170232842Y-114415114D01*
X170180500Y-114426500D01*
X160661579Y-114426500D01*
X160593458Y-114406498D01*
X160546965Y-114352842D01*
X160536861Y-114282568D01*
X160547384Y-114247250D01*
X160616490Y-114099053D01*
X160620236Y-114088761D01*
X160676625Y-113878312D01*
X160678528Y-113867519D01*
X160697517Y-113650475D01*
X160697517Y-113639525D01*
X160678528Y-113422481D01*
X160676625Y-113411688D01*
X160620236Y-113201239D01*
X160616490Y-113190947D01*
X160524414Y-112993489D01*
X160518931Y-112983994D01*
X160482491Y-112931952D01*
X160472012Y-112923576D01*
X160458566Y-112930644D01*
X159474095Y-113915115D01*
X159411783Y-113949141D01*
X159340968Y-113944076D01*
X159295905Y-113915115D01*
X158310713Y-112929923D01*
X158298938Y-112923493D01*
X158286923Y-112932789D01*
X158251069Y-112983994D01*
X158245586Y-112993489D01*
X158153510Y-113190947D01*
X158149764Y-113201239D01*
X158093375Y-113411688D01*
X158091472Y-113422481D01*
X158072483Y-113639525D01*
X158072483Y-113650475D01*
X158091472Y-113867519D01*
X158093375Y-113878312D01*
X158149764Y-114088761D01*
X158153510Y-114099053D01*
X158222616Y-114247250D01*
X158233277Y-114317441D01*
X158204297Y-114382254D01*
X158144878Y-114421111D01*
X158108421Y-114426500D01*
X128304721Y-114426500D01*
X128236600Y-114406498D01*
X128190107Y-114352842D01*
X128180003Y-114282568D01*
X128209497Y-114217988D01*
X128251471Y-114186305D01*
X128286762Y-114169849D01*
X128286767Y-114169846D01*
X128291749Y-114167523D01*
X128396611Y-114094098D01*
X128474789Y-114039357D01*
X128474792Y-114039355D01*
X128479300Y-114036198D01*
X128641198Y-113874300D01*
X128772523Y-113686749D01*
X128774846Y-113681767D01*
X128774849Y-113681762D01*
X128866961Y-113484225D01*
X128866961Y-113484224D01*
X128869284Y-113479243D01*
X128880022Y-113439171D01*
X128919152Y-113293134D01*
X130086500Y-113293134D01*
X130093255Y-113355316D01*
X130144385Y-113491705D01*
X130231739Y-113608261D01*
X130348295Y-113695615D01*
X130484684Y-113746745D01*
X130546866Y-113753500D01*
X132343134Y-113753500D01*
X132405316Y-113746745D01*
X132541705Y-113695615D01*
X132658261Y-113608261D01*
X132745615Y-113491705D01*
X132775612Y-113411688D01*
X132789598Y-113374382D01*
X132832240Y-113317618D01*
X132898802Y-113292918D01*
X132968150Y-113308126D01*
X133002817Y-113336114D01*
X133031250Y-113368938D01*
X133203126Y-113511632D01*
X133396000Y-113624338D01*
X133400825Y-113626180D01*
X133400826Y-113626181D01*
X133415017Y-113631600D01*
X133604692Y-113704030D01*
X133609760Y-113705061D01*
X133609763Y-113705062D01*
X133717017Y-113726883D01*
X133823597Y-113748567D01*
X133828772Y-113748757D01*
X133828774Y-113748757D01*
X134041673Y-113756564D01*
X134041677Y-113756564D01*
X134046837Y-113756753D01*
X134051957Y-113756097D01*
X134051959Y-113756097D01*
X134263288Y-113729025D01*
X134263289Y-113729025D01*
X134268416Y-113728368D01*
X134334646Y-113708498D01*
X134477429Y-113665661D01*
X134477434Y-113665659D01*
X134482384Y-113664174D01*
X134682994Y-113565896D01*
X134864860Y-113436173D01*
X134896788Y-113404357D01*
X135008616Y-113292918D01*
X135023096Y-113278489D01*
X135054498Y-113234789D01*
X135150435Y-113101277D01*
X135153453Y-113097077D01*
X135173628Y-113056257D01*
X135250136Y-112901453D01*
X135250137Y-112901451D01*
X135252430Y-112896811D01*
X135317370Y-112683069D01*
X135346529Y-112461590D01*
X135347703Y-112413529D01*
X135348074Y-112398365D01*
X135348074Y-112398361D01*
X135348156Y-112395000D01*
X136481502Y-112395000D01*
X136501457Y-112623087D01*
X136502881Y-112628400D01*
X136502881Y-112628402D01*
X136549374Y-112801913D01*
X136560716Y-112844243D01*
X136563039Y-112849224D01*
X136563039Y-112849225D01*
X136655151Y-113046762D01*
X136655154Y-113046767D01*
X136657477Y-113051749D01*
X136788802Y-113239300D01*
X136950700Y-113401198D01*
X136955208Y-113404355D01*
X136955211Y-113404357D01*
X136965681Y-113411688D01*
X137138251Y-113532523D01*
X137143233Y-113534846D01*
X137143238Y-113534849D01*
X137339765Y-113626490D01*
X137345757Y-113629284D01*
X137351065Y-113630706D01*
X137351067Y-113630707D01*
X137561598Y-113687119D01*
X137561600Y-113687119D01*
X137566913Y-113688543D01*
X137795000Y-113708498D01*
X138023087Y-113688543D01*
X138028400Y-113687119D01*
X138028402Y-113687119D01*
X138238933Y-113630707D01*
X138238935Y-113630706D01*
X138244243Y-113629284D01*
X138250235Y-113626490D01*
X138446762Y-113534849D01*
X138446767Y-113534846D01*
X138451749Y-113532523D01*
X138624319Y-113411688D01*
X138634789Y-113404357D01*
X138634792Y-113404355D01*
X138639300Y-113401198D01*
X138801198Y-113239300D01*
X138932523Y-113051749D01*
X138934846Y-113046767D01*
X138934849Y-113046762D01*
X139026961Y-112849225D01*
X139026961Y-112849224D01*
X139029284Y-112844243D01*
X139040627Y-112801913D01*
X139078245Y-112661522D01*
X146672273Y-112661522D01*
X146719764Y-112838761D01*
X146723510Y-112849053D01*
X146815586Y-113046511D01*
X146821069Y-113056007D01*
X146946028Y-113234467D01*
X146953084Y-113242875D01*
X147107125Y-113396916D01*
X147115533Y-113403972D01*
X147293993Y-113528931D01*
X147303489Y-113534414D01*
X147500947Y-113626490D01*
X147511239Y-113630236D01*
X147683503Y-113676394D01*
X147697599Y-113676058D01*
X147701000Y-113668116D01*
X147701000Y-113662967D01*
X148209000Y-113662967D01*
X148212973Y-113676498D01*
X148221522Y-113677727D01*
X148398761Y-113630236D01*
X148409053Y-113626490D01*
X148606511Y-113534414D01*
X148616007Y-113528931D01*
X148794467Y-113403972D01*
X148802875Y-113396916D01*
X148956916Y-113242875D01*
X148963972Y-113234467D01*
X149088931Y-113056007D01*
X149094414Y-113046511D01*
X149186490Y-112849053D01*
X149190236Y-112838761D01*
X149236394Y-112666497D01*
X149236058Y-112652401D01*
X149228116Y-112649000D01*
X148227115Y-112649000D01*
X148211876Y-112653475D01*
X148210671Y-112654865D01*
X148209000Y-112662548D01*
X148209000Y-113662967D01*
X147701000Y-113662967D01*
X147701000Y-112667115D01*
X147696525Y-112651876D01*
X147695135Y-112650671D01*
X147687452Y-112649000D01*
X146687033Y-112649000D01*
X146673502Y-112652973D01*
X146672273Y-112661522D01*
X139078245Y-112661522D01*
X139087119Y-112628402D01*
X139087119Y-112628400D01*
X139088543Y-112623087D01*
X139108498Y-112395000D01*
X139088543Y-112166913D01*
X139076911Y-112123503D01*
X139030707Y-111951067D01*
X139030706Y-111951065D01*
X139029284Y-111945757D01*
X139026961Y-111940775D01*
X138934849Y-111743238D01*
X138934846Y-111743233D01*
X138932523Y-111738251D01*
X138827969Y-111588933D01*
X138804357Y-111555211D01*
X138804355Y-111555208D01*
X138801198Y-111550700D01*
X138639300Y-111388802D01*
X138634792Y-111385645D01*
X138634789Y-111385643D01*
X138499780Y-111291109D01*
X138451749Y-111257477D01*
X138446767Y-111255154D01*
X138446762Y-111255151D01*
X138412543Y-111239195D01*
X138359258Y-111192278D01*
X138339797Y-111124001D01*
X138360339Y-111056041D01*
X138412543Y-111010805D01*
X138446762Y-110994849D01*
X138446767Y-110994846D01*
X138451749Y-110992523D01*
X138567322Y-110911598D01*
X138634789Y-110864357D01*
X138634792Y-110864355D01*
X138639300Y-110861198D01*
X138801198Y-110699300D01*
X138807168Y-110690775D01*
X138872015Y-110598163D01*
X138932523Y-110511749D01*
X138934846Y-110506767D01*
X138934849Y-110506762D01*
X139026961Y-110309225D01*
X139026961Y-110309224D01*
X139029284Y-110304243D01*
X139030828Y-110298483D01*
X139087119Y-110088402D01*
X139087119Y-110088400D01*
X139088543Y-110083087D01*
X139108498Y-109855000D01*
X146641502Y-109855000D01*
X146661457Y-110083087D01*
X146662881Y-110088400D01*
X146662881Y-110088402D01*
X146719173Y-110298483D01*
X146720716Y-110304243D01*
X146723039Y-110309224D01*
X146723039Y-110309225D01*
X146815151Y-110506762D01*
X146815154Y-110506767D01*
X146817477Y-110511749D01*
X146877985Y-110598163D01*
X146942833Y-110690775D01*
X146948802Y-110699300D01*
X147110700Y-110861198D01*
X147115208Y-110864355D01*
X147115211Y-110864357D01*
X147182678Y-110911598D01*
X147298251Y-110992523D01*
X147303233Y-110994846D01*
X147303238Y-110994849D01*
X147338049Y-111011081D01*
X147391334Y-111057998D01*
X147410795Y-111126275D01*
X147390253Y-111194235D01*
X147338049Y-111239471D01*
X147303489Y-111255586D01*
X147293993Y-111261069D01*
X147115533Y-111386028D01*
X147107125Y-111393084D01*
X146953084Y-111547125D01*
X146946028Y-111555533D01*
X146821069Y-111733993D01*
X146815586Y-111743489D01*
X146723510Y-111940947D01*
X146719764Y-111951239D01*
X146673606Y-112123503D01*
X146673942Y-112137599D01*
X146681884Y-112141000D01*
X149222967Y-112141000D01*
X149236498Y-112137027D01*
X149237727Y-112128478D01*
X149190236Y-111951239D01*
X149186490Y-111940947D01*
X149094414Y-111743489D01*
X149088931Y-111733993D01*
X148963972Y-111555533D01*
X148956916Y-111547125D01*
X148802875Y-111393084D01*
X148794467Y-111386028D01*
X148616007Y-111261069D01*
X148606511Y-111255586D01*
X148571951Y-111239471D01*
X148518666Y-111192554D01*
X148505112Y-111145000D01*
X158071502Y-111145000D01*
X158091457Y-111373087D01*
X158092881Y-111378400D01*
X158092881Y-111378402D01*
X158143582Y-111567617D01*
X158150716Y-111594243D01*
X158153039Y-111599224D01*
X158153039Y-111599225D01*
X158245151Y-111796762D01*
X158245154Y-111796767D01*
X158247477Y-111801749D01*
X158378802Y-111989300D01*
X158540700Y-112151198D01*
X158545208Y-112154355D01*
X158545211Y-112154357D01*
X158578294Y-112177522D01*
X158728251Y-112282523D01*
X158733235Y-112284847D01*
X158735528Y-112286171D01*
X158784521Y-112337553D01*
X158797957Y-112407267D01*
X158771571Y-112473178D01*
X158735528Y-112504409D01*
X158723998Y-112511066D01*
X158671952Y-112547509D01*
X158663576Y-112557988D01*
X158670644Y-112571434D01*
X159372188Y-113272978D01*
X159386132Y-113280592D01*
X159387965Y-113280461D01*
X159394580Y-113276210D01*
X160100077Y-112570713D01*
X160106507Y-112558938D01*
X160097211Y-112546923D01*
X160046002Y-112511066D01*
X160034472Y-112504409D01*
X159985479Y-112453027D01*
X159972042Y-112383313D01*
X159998429Y-112317402D01*
X160034472Y-112286171D01*
X160036765Y-112284847D01*
X160041749Y-112282523D01*
X160191706Y-112177522D01*
X160224789Y-112154357D01*
X160224792Y-112154355D01*
X160229300Y-112151198D01*
X160391198Y-111989300D01*
X160522523Y-111801749D01*
X160524846Y-111796767D01*
X160524849Y-111796762D01*
X160616961Y-111599225D01*
X160616961Y-111599224D01*
X160619284Y-111594243D01*
X160626419Y-111567617D01*
X160677119Y-111378402D01*
X160677119Y-111378400D01*
X160678543Y-111373087D01*
X160698498Y-111145000D01*
X160678543Y-110916913D01*
X160619284Y-110695757D01*
X160573780Y-110598172D01*
X160524849Y-110493238D01*
X160524846Y-110493233D01*
X160522523Y-110488251D01*
X160449098Y-110383389D01*
X160394357Y-110305211D01*
X160394355Y-110305208D01*
X160391198Y-110300700D01*
X160229300Y-110138802D01*
X160224792Y-110135645D01*
X160224789Y-110135643D01*
X160141905Y-110077607D01*
X160041749Y-110007477D01*
X160036767Y-110005154D01*
X160036762Y-110005151D01*
X159839225Y-109913039D01*
X159839224Y-109913039D01*
X159834243Y-109910716D01*
X159828935Y-109909294D01*
X159828933Y-109909293D01*
X159618402Y-109852881D01*
X159618400Y-109852881D01*
X159613087Y-109851457D01*
X159385000Y-109831502D01*
X159156913Y-109851457D01*
X159151600Y-109852881D01*
X159151598Y-109852881D01*
X158941067Y-109909293D01*
X158941065Y-109909294D01*
X158935757Y-109910716D01*
X158930776Y-109913039D01*
X158930775Y-109913039D01*
X158733238Y-110005151D01*
X158733233Y-110005154D01*
X158728251Y-110007477D01*
X158628095Y-110077607D01*
X158545211Y-110135643D01*
X158545208Y-110135645D01*
X158540700Y-110138802D01*
X158378802Y-110300700D01*
X158375645Y-110305208D01*
X158375643Y-110305211D01*
X158320902Y-110383389D01*
X158247477Y-110488251D01*
X158245154Y-110493233D01*
X158245151Y-110493238D01*
X158196220Y-110598172D01*
X158150716Y-110695757D01*
X158091457Y-110916913D01*
X158071502Y-111145000D01*
X148505112Y-111145000D01*
X148499205Y-111124277D01*
X148519747Y-111056317D01*
X148571951Y-111011081D01*
X148606762Y-110994849D01*
X148606767Y-110994846D01*
X148611749Y-110992523D01*
X148727322Y-110911598D01*
X148794789Y-110864357D01*
X148794792Y-110864355D01*
X148799300Y-110861198D01*
X148961198Y-110699300D01*
X148967168Y-110690775D01*
X149032015Y-110598163D01*
X149092523Y-110511749D01*
X149094846Y-110506767D01*
X149094849Y-110506762D01*
X149186961Y-110309225D01*
X149186961Y-110309224D01*
X149189284Y-110304243D01*
X149190828Y-110298483D01*
X149247119Y-110088402D01*
X149247119Y-110088400D01*
X149248543Y-110083087D01*
X149268498Y-109855000D01*
X149248543Y-109626913D01*
X149189284Y-109405757D01*
X149186961Y-109400775D01*
X149094849Y-109203238D01*
X149094846Y-109203233D01*
X149092523Y-109198251D01*
X149084431Y-109186695D01*
X163102251Y-109186695D01*
X163115110Y-109409715D01*
X163116247Y-109414761D01*
X163116248Y-109414767D01*
X163140304Y-109521508D01*
X163164222Y-109627639D01*
X163248266Y-109834616D01*
X163272154Y-109873598D01*
X163356130Y-110010634D01*
X163364987Y-110025088D01*
X163511250Y-110193938D01*
X163683126Y-110336632D01*
X163876000Y-110449338D01*
X164084692Y-110529030D01*
X164089760Y-110530061D01*
X164089763Y-110530062D01*
X164197017Y-110551883D01*
X164303597Y-110573567D01*
X164308772Y-110573757D01*
X164308774Y-110573757D01*
X164521673Y-110581564D01*
X164521677Y-110581564D01*
X164526837Y-110581753D01*
X164531957Y-110581097D01*
X164531959Y-110581097D01*
X164743288Y-110554025D01*
X164743289Y-110554025D01*
X164748416Y-110553368D01*
X164811576Y-110534419D01*
X164957429Y-110490661D01*
X164957434Y-110490659D01*
X164962384Y-110489174D01*
X165162994Y-110390896D01*
X165344860Y-110261173D01*
X165347886Y-110258157D01*
X165412588Y-110229570D01*
X165428976Y-110228500D01*
X165695572Y-110228500D01*
X165763693Y-110248502D01*
X165797495Y-110282888D01*
X165798125Y-110282388D01*
X165802668Y-110288120D01*
X165806522Y-110294348D01*
X165931697Y-110419305D01*
X165937927Y-110423145D01*
X165937928Y-110423146D01*
X166075090Y-110507694D01*
X166082262Y-110512115D01*
X166147846Y-110533868D01*
X166243611Y-110565632D01*
X166243613Y-110565632D01*
X166250139Y-110567797D01*
X166256975Y-110568497D01*
X166256978Y-110568498D01*
X166296372Y-110572534D01*
X166354600Y-110578500D01*
X167655400Y-110578500D01*
X167658646Y-110578163D01*
X167658650Y-110578163D01*
X167754308Y-110568238D01*
X167754312Y-110568237D01*
X167761166Y-110567526D01*
X167767702Y-110565345D01*
X167767704Y-110565345D01*
X167914837Y-110516257D01*
X167928946Y-110511550D01*
X168079348Y-110418478D01*
X168204305Y-110293303D01*
X168244250Y-110228500D01*
X168293275Y-110148968D01*
X168293276Y-110148966D01*
X168297115Y-110142738D01*
X168343998Y-110001389D01*
X168350632Y-109981389D01*
X168350632Y-109981387D01*
X168352797Y-109974861D01*
X168363500Y-109870400D01*
X168363500Y-108569600D01*
X168362655Y-108561457D01*
X168353238Y-108470692D01*
X168353237Y-108470688D01*
X168352526Y-108463834D01*
X168348142Y-108450692D01*
X168298868Y-108303002D01*
X168296550Y-108296054D01*
X168203478Y-108145652D01*
X168078303Y-108020695D01*
X168045857Y-108000695D01*
X167933968Y-107931725D01*
X167933966Y-107931724D01*
X167927738Y-107927885D01*
X167866981Y-107907733D01*
X167852640Y-107902976D01*
X167794280Y-107862545D01*
X167783729Y-107837146D01*
X167781424Y-107838370D01*
X167755660Y-107789870D01*
X167017812Y-107052022D01*
X167003868Y-107044408D01*
X167002035Y-107044539D01*
X166995420Y-107048790D01*
X166251737Y-107792473D01*
X166228985Y-107834139D01*
X166226777Y-107844287D01*
X166176574Y-107894488D01*
X166156067Y-107903424D01*
X166081054Y-107928450D01*
X165930652Y-108021522D01*
X165925479Y-108026704D01*
X165867686Y-108084598D01*
X165805695Y-108146697D01*
X165801854Y-108152928D01*
X165797317Y-108158673D01*
X165795987Y-108157623D01*
X165749893Y-108199108D01*
X165695403Y-108211500D01*
X165423799Y-108211500D01*
X165355678Y-108191498D01*
X165345707Y-108184382D01*
X165223414Y-108087800D01*
X165223410Y-108087798D01*
X165219359Y-108084598D01*
X165177569Y-108061529D01*
X165127598Y-108011097D01*
X165112826Y-107941654D01*
X165137942Y-107875248D01*
X165165293Y-107848642D01*
X165214247Y-107813723D01*
X165222648Y-107803023D01*
X165215660Y-107789870D01*
X164477812Y-107052022D01*
X164463868Y-107044408D01*
X164462035Y-107044539D01*
X164455420Y-107048790D01*
X163711737Y-107792473D01*
X163704977Y-107804853D01*
X163710258Y-107811907D01*
X163756969Y-107839203D01*
X163805693Y-107890841D01*
X163818764Y-107960624D01*
X163792033Y-108026396D01*
X163751584Y-108059752D01*
X163738607Y-108066507D01*
X163734474Y-108069610D01*
X163734471Y-108069612D01*
X163615853Y-108158673D01*
X163559965Y-108200635D01*
X163405629Y-108362138D01*
X163279743Y-108546680D01*
X163232715Y-108647993D01*
X163198997Y-108720634D01*
X163185688Y-108749305D01*
X163125989Y-108964570D01*
X163102251Y-109186695D01*
X149084431Y-109186695D01*
X148961198Y-109010700D01*
X148799300Y-108848802D01*
X148794792Y-108845645D01*
X148794789Y-108845643D01*
X148657204Y-108749305D01*
X148611749Y-108717477D01*
X148606767Y-108715154D01*
X148606762Y-108715151D01*
X148409225Y-108623039D01*
X148409224Y-108623039D01*
X148404243Y-108620716D01*
X148398935Y-108619294D01*
X148398933Y-108619293D01*
X148188402Y-108562881D01*
X148188400Y-108562881D01*
X148183087Y-108561457D01*
X147955000Y-108541502D01*
X147726913Y-108561457D01*
X147721600Y-108562881D01*
X147721598Y-108562881D01*
X147511067Y-108619293D01*
X147511065Y-108619294D01*
X147505757Y-108620716D01*
X147500776Y-108623039D01*
X147500775Y-108623039D01*
X147303238Y-108715151D01*
X147303233Y-108715154D01*
X147298251Y-108717477D01*
X147252796Y-108749305D01*
X147115211Y-108845643D01*
X147115208Y-108845645D01*
X147110700Y-108848802D01*
X146948802Y-109010700D01*
X146817477Y-109198251D01*
X146815154Y-109203233D01*
X146815151Y-109203238D01*
X146723039Y-109400775D01*
X146720716Y-109405757D01*
X146661457Y-109626913D01*
X146641502Y-109855000D01*
X139108498Y-109855000D01*
X139088543Y-109626913D01*
X139029284Y-109405757D01*
X139026961Y-109400775D01*
X138934849Y-109203238D01*
X138934846Y-109203233D01*
X138932523Y-109198251D01*
X138801198Y-109010700D01*
X138639300Y-108848802D01*
X138634792Y-108845645D01*
X138634789Y-108845643D01*
X138497204Y-108749305D01*
X138451749Y-108717477D01*
X138446767Y-108715154D01*
X138446762Y-108715151D01*
X138249225Y-108623039D01*
X138249224Y-108623039D01*
X138244243Y-108620716D01*
X138238935Y-108619294D01*
X138238933Y-108619293D01*
X138028402Y-108562881D01*
X138028400Y-108562881D01*
X138023087Y-108561457D01*
X137795000Y-108541502D01*
X137566913Y-108561457D01*
X137561600Y-108562881D01*
X137561598Y-108562881D01*
X137351067Y-108619293D01*
X137351065Y-108619294D01*
X137345757Y-108620716D01*
X137340776Y-108623039D01*
X137340775Y-108623039D01*
X137143238Y-108715151D01*
X137143233Y-108715154D01*
X137138251Y-108717477D01*
X137092796Y-108749305D01*
X136955211Y-108845643D01*
X136955208Y-108845645D01*
X136950700Y-108848802D01*
X136788802Y-109010700D01*
X136657477Y-109198251D01*
X136655154Y-109203233D01*
X136655151Y-109203238D01*
X136563039Y-109400775D01*
X136560716Y-109405757D01*
X136501457Y-109626913D01*
X136481502Y-109855000D01*
X136501457Y-110083087D01*
X136502881Y-110088400D01*
X136502881Y-110088402D01*
X136559173Y-110298483D01*
X136560716Y-110304243D01*
X136563039Y-110309224D01*
X136563039Y-110309225D01*
X136655151Y-110506762D01*
X136655154Y-110506767D01*
X136657477Y-110511749D01*
X136717985Y-110598163D01*
X136782833Y-110690775D01*
X136788802Y-110699300D01*
X136950700Y-110861198D01*
X136955208Y-110864355D01*
X136955211Y-110864357D01*
X137022678Y-110911598D01*
X137138251Y-110992523D01*
X137143233Y-110994846D01*
X137143238Y-110994849D01*
X137177457Y-111010805D01*
X137230742Y-111057722D01*
X137250203Y-111125999D01*
X137229661Y-111193959D01*
X137177457Y-111239195D01*
X137143238Y-111255151D01*
X137143233Y-111255154D01*
X137138251Y-111257477D01*
X137090220Y-111291109D01*
X136955211Y-111385643D01*
X136955208Y-111385645D01*
X136950700Y-111388802D01*
X136788802Y-111550700D01*
X136785645Y-111555208D01*
X136785643Y-111555211D01*
X136762031Y-111588933D01*
X136657477Y-111738251D01*
X136655154Y-111743233D01*
X136655151Y-111743238D01*
X136563039Y-111940775D01*
X136560716Y-111945757D01*
X136559294Y-111951065D01*
X136559293Y-111951067D01*
X136513089Y-112123503D01*
X136501457Y-112166913D01*
X136481502Y-112395000D01*
X135348156Y-112395000D01*
X135329852Y-112172361D01*
X135275431Y-111955702D01*
X135186354Y-111750840D01*
X135065014Y-111563277D01*
X134914670Y-111398051D01*
X134910619Y-111394852D01*
X134910615Y-111394848D01*
X134743414Y-111262800D01*
X134743410Y-111262798D01*
X134739359Y-111259598D01*
X134732092Y-111255586D01*
X134687136Y-111230769D01*
X134543789Y-111151638D01*
X134538920Y-111149914D01*
X134538916Y-111149912D01*
X134338087Y-111078795D01*
X134338083Y-111078794D01*
X134333212Y-111077069D01*
X134328119Y-111076162D01*
X134328116Y-111076161D01*
X134118373Y-111038800D01*
X134118367Y-111038799D01*
X134113284Y-111037894D01*
X134039452Y-111036992D01*
X133895081Y-111035228D01*
X133895079Y-111035228D01*
X133889911Y-111035165D01*
X133669091Y-111068955D01*
X133456756Y-111138357D01*
X133426443Y-111154137D01*
X133349416Y-111194235D01*
X133258607Y-111241507D01*
X133254474Y-111244610D01*
X133254471Y-111244612D01*
X133090657Y-111367607D01*
X133079965Y-111375635D01*
X133023537Y-111434684D01*
X132999283Y-111460064D01*
X132937759Y-111495494D01*
X132866846Y-111492037D01*
X132809060Y-111450791D01*
X132790207Y-111417243D01*
X132748767Y-111306703D01*
X132745615Y-111298295D01*
X132658261Y-111181739D01*
X132541705Y-111094385D01*
X132405316Y-111043255D01*
X132343134Y-111036500D01*
X130546866Y-111036500D01*
X130484684Y-111043255D01*
X130348295Y-111094385D01*
X130231739Y-111181739D01*
X130144385Y-111298295D01*
X130093255Y-111434684D01*
X130086500Y-111496866D01*
X130086500Y-113293134D01*
X128919152Y-113293134D01*
X128927119Y-113263402D01*
X128927119Y-113263400D01*
X128928543Y-113258087D01*
X128948498Y-113030000D01*
X128928543Y-112801913D01*
X128888769Y-112653475D01*
X128870707Y-112586067D01*
X128870706Y-112586065D01*
X128869284Y-112580757D01*
X128864937Y-112571434D01*
X128774849Y-112378238D01*
X128774846Y-112378233D01*
X128772523Y-112373251D01*
X128641198Y-112185700D01*
X128479300Y-112023802D01*
X128474792Y-112020645D01*
X128474789Y-112020643D01*
X128382043Y-111955702D01*
X128291749Y-111892477D01*
X128286767Y-111890154D01*
X128286762Y-111890151D01*
X128089225Y-111798039D01*
X128089224Y-111798039D01*
X128084243Y-111795716D01*
X128078935Y-111794294D01*
X128078933Y-111794293D01*
X127868402Y-111737881D01*
X127868400Y-111737881D01*
X127863087Y-111736457D01*
X127635000Y-111716502D01*
X127406913Y-111736457D01*
X127401600Y-111737881D01*
X127401598Y-111737881D01*
X127191067Y-111794293D01*
X127191065Y-111794294D01*
X127185757Y-111795716D01*
X127180776Y-111798039D01*
X127180775Y-111798039D01*
X126983238Y-111890151D01*
X126983233Y-111890154D01*
X126978251Y-111892477D01*
X126887957Y-111955702D01*
X126795211Y-112020643D01*
X126795208Y-112020645D01*
X126790700Y-112023802D01*
X126628802Y-112185700D01*
X126497477Y-112373251D01*
X126495154Y-112378233D01*
X126495151Y-112378238D01*
X126479195Y-112412457D01*
X126432278Y-112465742D01*
X126364001Y-112485203D01*
X126296041Y-112464661D01*
X126250805Y-112412457D01*
X126234849Y-112378238D01*
X126234846Y-112378233D01*
X126232523Y-112373251D01*
X126101198Y-112185700D01*
X125939300Y-112023802D01*
X125934792Y-112020645D01*
X125934789Y-112020643D01*
X125842043Y-111955702D01*
X125751749Y-111892477D01*
X125746767Y-111890154D01*
X125746762Y-111890151D01*
X125549225Y-111798039D01*
X125549224Y-111798039D01*
X125544243Y-111795716D01*
X125538935Y-111794294D01*
X125538933Y-111794293D01*
X125328402Y-111737881D01*
X125328400Y-111737881D01*
X125323087Y-111736457D01*
X125095000Y-111716502D01*
X124866913Y-111736457D01*
X124861600Y-111737881D01*
X124861598Y-111737881D01*
X124651067Y-111794293D01*
X124651065Y-111794294D01*
X124645757Y-111795716D01*
X124640776Y-111798039D01*
X124640775Y-111798039D01*
X124443238Y-111890151D01*
X124443233Y-111890154D01*
X124438251Y-111892477D01*
X124347957Y-111955702D01*
X124255211Y-112020643D01*
X124255208Y-112020645D01*
X124250700Y-112023802D01*
X124088802Y-112185700D01*
X123957477Y-112373251D01*
X123955154Y-112378233D01*
X123955151Y-112378238D01*
X123938695Y-112413529D01*
X123891778Y-112466814D01*
X123823500Y-112486275D01*
X123755540Y-112465733D01*
X123709475Y-112411710D01*
X123698500Y-112360279D01*
X123698500Y-106614829D01*
X131108052Y-106614829D01*
X131108252Y-106620158D01*
X131108252Y-106620160D01*
X131111310Y-106701625D01*
X131116828Y-106848604D01*
X131117923Y-106853822D01*
X131158832Y-107048790D01*
X131164868Y-107077559D01*
X131250797Y-107295146D01*
X131253566Y-107299709D01*
X131337376Y-107437823D01*
X131372159Y-107495144D01*
X131525483Y-107671834D01*
X131529609Y-107675217D01*
X131562770Y-107702407D01*
X131602764Y-107761067D01*
X131604695Y-107832038D01*
X131567950Y-107892786D01*
X131545610Y-107907733D01*
X131546054Y-107908450D01*
X131395652Y-108001522D01*
X131270695Y-108126697D01*
X131266855Y-108132927D01*
X131266854Y-108132928D01*
X131222815Y-108204373D01*
X131177885Y-108277262D01*
X131122203Y-108445139D01*
X131121503Y-108451975D01*
X131121502Y-108451978D01*
X131119585Y-108470692D01*
X131111500Y-108549600D01*
X131111500Y-109890400D01*
X131111837Y-109893646D01*
X131111837Y-109893650D01*
X131120941Y-109981389D01*
X131122474Y-109996166D01*
X131124655Y-110002702D01*
X131124655Y-110002704D01*
X131132123Y-110025088D01*
X131178450Y-110163946D01*
X131271522Y-110314348D01*
X131396697Y-110439305D01*
X131402927Y-110443145D01*
X131402928Y-110443146D01*
X131540090Y-110527694D01*
X131547262Y-110532115D01*
X131606861Y-110551883D01*
X131708611Y-110585632D01*
X131708613Y-110585632D01*
X131715139Y-110587797D01*
X131721975Y-110588497D01*
X131721978Y-110588498D01*
X131765031Y-110592909D01*
X131819600Y-110598500D01*
X133610400Y-110598500D01*
X133613646Y-110598163D01*
X133613650Y-110598163D01*
X133709308Y-110588238D01*
X133709312Y-110588237D01*
X133716166Y-110587526D01*
X133722702Y-110585345D01*
X133722704Y-110585345D01*
X133854806Y-110541272D01*
X133883946Y-110531550D01*
X134034348Y-110438478D01*
X134159305Y-110313303D01*
X134167074Y-110300700D01*
X134248275Y-110168968D01*
X134248276Y-110168966D01*
X134252115Y-110162738D01*
X134299230Y-110020689D01*
X134305632Y-110001389D01*
X134305632Y-110001387D01*
X134307797Y-109994861D01*
X134309178Y-109981389D01*
X134318172Y-109893598D01*
X134318500Y-109890400D01*
X134318500Y-108549600D01*
X134317753Y-108542401D01*
X134308238Y-108450692D01*
X134308237Y-108450688D01*
X134307526Y-108443834D01*
X134251550Y-108276054D01*
X134158478Y-108125652D01*
X134033303Y-108000695D01*
X133921414Y-107931725D01*
X133882738Y-107907885D01*
X133884062Y-107905738D01*
X133839710Y-107866688D01*
X133820248Y-107798411D01*
X133840788Y-107730451D01*
X133859272Y-107708239D01*
X133972306Y-107600410D01*
X133972316Y-107600398D01*
X133976168Y-107596724D01*
X134115813Y-107409035D01*
X134129651Y-107381819D01*
X134219420Y-107205256D01*
X134219420Y-107205255D01*
X134221838Y-107200500D01*
X134291210Y-106977083D01*
X134293099Y-106962834D01*
X134321248Y-106750455D01*
X134321248Y-106750451D01*
X134321948Y-106745171D01*
X134321117Y-106723019D01*
X134316857Y-106609545D01*
X134313172Y-106511396D01*
X134272088Y-106315592D01*
X134266229Y-106287668D01*
X134266228Y-106287665D01*
X134265132Y-106282441D01*
X134255533Y-106258134D01*
X136486500Y-106258134D01*
X136493255Y-106320316D01*
X136544385Y-106456705D01*
X136631739Y-106573261D01*
X136748295Y-106660615D01*
X136884684Y-106711745D01*
X136946866Y-106718500D01*
X138643134Y-106718500D01*
X138705316Y-106711745D01*
X138841705Y-106660615D01*
X138902797Y-106614829D01*
X138951078Y-106578645D01*
X138951081Y-106578642D01*
X138958261Y-106573261D01*
X138963642Y-106566081D01*
X138969993Y-106559730D01*
X138972135Y-106561872D01*
X139016846Y-106528436D01*
X139087664Y-106523406D01*
X139129035Y-106541523D01*
X139129232Y-106541182D01*
X139132298Y-106542952D01*
X139133090Y-106543299D01*
X139133989Y-106543929D01*
X139143489Y-106549414D01*
X139340947Y-106641490D01*
X139351239Y-106645236D01*
X139561688Y-106701625D01*
X139572481Y-106703528D01*
X139789525Y-106722517D01*
X139800475Y-106722517D01*
X140017519Y-106703528D01*
X140028312Y-106701625D01*
X140238761Y-106645236D01*
X140249053Y-106641490D01*
X140446511Y-106549414D01*
X140456006Y-106543931D01*
X140508048Y-106507491D01*
X140516424Y-106497012D01*
X140509356Y-106483566D01*
X140283924Y-106258134D01*
X142201500Y-106258134D01*
X142208255Y-106320316D01*
X142259385Y-106456705D01*
X142346739Y-106573261D01*
X142463295Y-106660615D01*
X142599684Y-106711745D01*
X142661866Y-106718500D01*
X144358134Y-106718500D01*
X144420316Y-106711745D01*
X144556705Y-106660615D01*
X144673261Y-106573261D01*
X144760615Y-106456705D01*
X144811745Y-106320316D01*
X144813691Y-106321046D01*
X144843545Y-106268795D01*
X144906503Y-106235979D01*
X144977207Y-106242409D01*
X145020000Y-106270498D01*
X145165700Y-106416198D01*
X145170208Y-106419355D01*
X145170211Y-106419357D01*
X145211542Y-106448297D01*
X145353251Y-106547523D01*
X145358233Y-106549846D01*
X145358238Y-106549849D01*
X145554765Y-106641490D01*
X145560757Y-106644284D01*
X145566065Y-106645706D01*
X145566067Y-106645707D01*
X145776598Y-106702119D01*
X145776600Y-106702119D01*
X145781913Y-106703543D01*
X146010000Y-106723498D01*
X146238087Y-106703543D01*
X146243400Y-106702119D01*
X146243402Y-106702119D01*
X146430959Y-106651863D01*
X163103050Y-106651863D01*
X163115309Y-106864477D01*
X163116745Y-106874697D01*
X163163565Y-107082446D01*
X163166645Y-107092275D01*
X163246770Y-107289603D01*
X163251413Y-107298794D01*
X163331460Y-107429420D01*
X163341916Y-107438880D01*
X163350694Y-107435096D01*
X164092978Y-106692812D01*
X164099356Y-106681132D01*
X164829408Y-106681132D01*
X164829539Y-106682965D01*
X164833790Y-106689580D01*
X165575474Y-107431264D01*
X165587484Y-107437823D01*
X165599223Y-107428855D01*
X165633022Y-107381819D01*
X165634149Y-107382629D01*
X165681659Y-107338881D01*
X165751596Y-107326661D01*
X165817038Y-107354191D01*
X165844870Y-107386029D01*
X165871459Y-107429419D01*
X165881916Y-107438880D01*
X165890694Y-107435096D01*
X166632978Y-106692812D01*
X166639356Y-106681132D01*
X167369408Y-106681132D01*
X167369539Y-106682965D01*
X167373790Y-106689580D01*
X168115474Y-107431264D01*
X168127484Y-107437823D01*
X168139223Y-107428855D01*
X168170004Y-107386019D01*
X168175315Y-107377180D01*
X168269670Y-107186267D01*
X168273469Y-107176672D01*
X168335376Y-106972915D01*
X168337555Y-106962834D01*
X168365590Y-106749887D01*
X168366109Y-106743212D01*
X168367572Y-106683364D01*
X168367378Y-106676646D01*
X168349781Y-106462604D01*
X168348096Y-106452424D01*
X168296214Y-106245875D01*
X168292894Y-106236124D01*
X168207972Y-106040814D01*
X168203105Y-106031739D01*
X168138063Y-105931197D01*
X168127377Y-105921995D01*
X168117812Y-105926398D01*
X167377022Y-106667188D01*
X167369408Y-106681132D01*
X166639356Y-106681132D01*
X166640592Y-106678868D01*
X166640461Y-106677035D01*
X166636210Y-106670420D01*
X165894849Y-105929059D01*
X165883313Y-105922759D01*
X165871028Y-105932384D01*
X165838192Y-105980520D01*
X165783281Y-106025523D01*
X165712756Y-106033694D01*
X165649009Y-106002440D01*
X165628311Y-105977955D01*
X165598062Y-105931197D01*
X165587377Y-105921995D01*
X165577812Y-105926398D01*
X164837022Y-106667188D01*
X164829408Y-106681132D01*
X164099356Y-106681132D01*
X164100592Y-106678868D01*
X164100461Y-106677035D01*
X164096210Y-106670420D01*
X163354849Y-105929059D01*
X163343313Y-105922759D01*
X163331031Y-105932382D01*
X163283089Y-106002662D01*
X163278004Y-106011613D01*
X163188338Y-106204783D01*
X163184775Y-106214470D01*
X163127864Y-106419681D01*
X163125933Y-106429800D01*
X163103302Y-106641574D01*
X163103050Y-106651863D01*
X146430959Y-106651863D01*
X146453933Y-106645707D01*
X146453935Y-106645706D01*
X146459243Y-106644284D01*
X146465235Y-106641490D01*
X146661762Y-106549849D01*
X146661767Y-106549846D01*
X146666749Y-106547523D01*
X146808458Y-106448297D01*
X146849789Y-106419357D01*
X146849792Y-106419355D01*
X146854300Y-106416198D01*
X147016198Y-106254300D01*
X147022098Y-106245875D01*
X147132981Y-106087517D01*
X147147523Y-106066749D01*
X147149846Y-106061767D01*
X147149849Y-106061762D01*
X147241961Y-105864225D01*
X147241961Y-105864224D01*
X147244284Y-105859243D01*
X147254343Y-105821705D01*
X147302119Y-105643402D01*
X147302119Y-105643400D01*
X147303543Y-105638087D01*
X147323498Y-105410000D01*
X147303543Y-105181913D01*
X147302119Y-105176598D01*
X147245707Y-104966067D01*
X147245706Y-104966065D01*
X147244284Y-104960757D01*
X147239401Y-104950285D01*
X147149849Y-104758238D01*
X147149846Y-104758233D01*
X147147523Y-104753251D01*
X147047142Y-104609892D01*
X147019357Y-104570211D01*
X147019355Y-104570208D01*
X147016198Y-104565700D01*
X146854300Y-104403802D01*
X146849792Y-104400645D01*
X146849789Y-104400643D01*
X146755608Y-104334697D01*
X146666749Y-104272477D01*
X146661767Y-104270154D01*
X146661762Y-104270151D01*
X146464225Y-104178039D01*
X146464224Y-104178039D01*
X146459243Y-104175716D01*
X146453935Y-104174294D01*
X146453933Y-104174293D01*
X146243402Y-104117881D01*
X146243400Y-104117881D01*
X146238087Y-104116457D01*
X146010000Y-104096502D01*
X145781913Y-104116457D01*
X145776600Y-104117881D01*
X145776598Y-104117881D01*
X145566067Y-104174293D01*
X145566065Y-104174294D01*
X145560757Y-104175716D01*
X145555776Y-104178039D01*
X145555775Y-104178039D01*
X145358238Y-104270151D01*
X145358233Y-104270154D01*
X145353251Y-104272477D01*
X145264392Y-104334697D01*
X145170211Y-104400643D01*
X145170208Y-104400645D01*
X145165700Y-104403802D01*
X145020000Y-104549502D01*
X144957688Y-104583528D01*
X144886873Y-104578463D01*
X144830037Y-104535916D01*
X144812868Y-104499263D01*
X144811745Y-104499684D01*
X144763767Y-104371703D01*
X144760615Y-104363295D01*
X144673261Y-104246739D01*
X144556705Y-104159385D01*
X144420316Y-104108255D01*
X144358134Y-104101500D01*
X142661866Y-104101500D01*
X142599684Y-104108255D01*
X142463295Y-104159385D01*
X142346739Y-104246739D01*
X142259385Y-104363295D01*
X142208255Y-104499684D01*
X142201500Y-104561866D01*
X142201500Y-106258134D01*
X140283924Y-106258134D01*
X139524885Y-105499095D01*
X139490859Y-105436783D01*
X139492694Y-105411132D01*
X140159408Y-105411132D01*
X140159539Y-105412965D01*
X140163790Y-105419580D01*
X140869287Y-106125077D01*
X140881062Y-106131507D01*
X140893077Y-106122211D01*
X140928931Y-106071006D01*
X140934414Y-106061511D01*
X141026490Y-105864053D01*
X141030236Y-105853761D01*
X141086625Y-105643312D01*
X141088528Y-105632519D01*
X141107517Y-105415475D01*
X141107517Y-105404525D01*
X141088528Y-105187481D01*
X141086625Y-105176688D01*
X141030236Y-104966239D01*
X141026490Y-104955947D01*
X140934414Y-104758489D01*
X140928931Y-104748994D01*
X140892491Y-104696952D01*
X140882012Y-104688576D01*
X140868566Y-104695644D01*
X140167022Y-105397188D01*
X140159408Y-105411132D01*
X139492694Y-105411132D01*
X139495924Y-105365968D01*
X139524885Y-105320905D01*
X140510077Y-104335713D01*
X140516507Y-104323938D01*
X140507211Y-104311923D01*
X140456006Y-104276069D01*
X140446511Y-104270586D01*
X140249053Y-104178510D01*
X140238761Y-104174764D01*
X140028312Y-104118375D01*
X140017519Y-104116472D01*
X139800475Y-104097483D01*
X139789525Y-104097483D01*
X139572481Y-104116472D01*
X139561688Y-104118375D01*
X139351239Y-104174764D01*
X139340947Y-104178510D01*
X139143489Y-104270586D01*
X139133989Y-104276071D01*
X139133090Y-104276701D01*
X139132630Y-104276856D01*
X139129232Y-104278818D01*
X139128838Y-104278135D01*
X139065816Y-104299388D01*
X138996956Y-104282102D01*
X138971197Y-104259066D01*
X138969993Y-104260270D01*
X138963642Y-104253919D01*
X138958261Y-104246739D01*
X138951081Y-104241358D01*
X138951078Y-104241355D01*
X138862225Y-104174764D01*
X138841705Y-104159385D01*
X138705316Y-104108255D01*
X138643134Y-104101500D01*
X136946866Y-104101500D01*
X136884684Y-104108255D01*
X136748295Y-104159385D01*
X136631739Y-104246739D01*
X136544385Y-104363295D01*
X136493255Y-104499684D01*
X136486500Y-104561866D01*
X136486500Y-106258134D01*
X134255533Y-106258134D01*
X134179203Y-106064854D01*
X134107495Y-105946683D01*
X134060609Y-105869417D01*
X134060607Y-105869414D01*
X134057841Y-105864856D01*
X133904517Y-105688166D01*
X133723614Y-105539835D01*
X133718978Y-105537196D01*
X133718975Y-105537194D01*
X133685999Y-105518423D01*
X133636693Y-105467341D01*
X133622831Y-105397711D01*
X133648814Y-105331640D01*
X133677964Y-105304401D01*
X133802155Y-105220790D01*
X133810441Y-105214129D01*
X133971930Y-105060076D01*
X133978979Y-105052108D01*
X134112203Y-104873048D01*
X134117802Y-104864018D01*
X134218953Y-104665069D01*
X134222956Y-104655208D01*
X134289138Y-104442071D01*
X134291420Y-104431691D01*
X134294036Y-104411957D01*
X134291840Y-104397793D01*
X134278655Y-104394000D01*
X131153373Y-104394000D01*
X131139842Y-104397973D01*
X131138317Y-104408580D01*
X131164252Y-104532188D01*
X131167312Y-104542384D01*
X131249284Y-104749952D01*
X131254018Y-104759489D01*
X131369796Y-104950285D01*
X131376062Y-104958878D01*
X131522333Y-105127441D01*
X131529964Y-105134861D01*
X131702542Y-105276368D01*
X131711309Y-105282393D01*
X131743978Y-105300989D01*
X131793285Y-105352071D01*
X131807146Y-105421702D01*
X131781163Y-105487773D01*
X131752013Y-105515011D01*
X131707322Y-105545099D01*
X131623104Y-105601798D01*
X131453832Y-105763276D01*
X131314187Y-105950965D01*
X131311771Y-105955716D01*
X131311769Y-105955720D01*
X131222394Y-106131507D01*
X131208162Y-106159500D01*
X131138790Y-106382917D01*
X131138089Y-106388204D01*
X131138089Y-106388205D01*
X131116665Y-106549849D01*
X131108052Y-106614829D01*
X123698500Y-106614829D01*
X123698500Y-103539721D01*
X123718502Y-103471600D01*
X123772158Y-103425107D01*
X123842432Y-103415003D01*
X123907012Y-103444497D01*
X123938695Y-103486471D01*
X123955151Y-103521762D01*
X123955154Y-103521767D01*
X123957477Y-103526749D01*
X124007903Y-103598765D01*
X124082903Y-103705875D01*
X124088802Y-103714300D01*
X124250700Y-103876198D01*
X124255208Y-103879355D01*
X124255211Y-103879357D01*
X124302436Y-103912424D01*
X124438251Y-104007523D01*
X124443233Y-104009846D01*
X124443238Y-104009849D01*
X124639945Y-104101574D01*
X124645757Y-104104284D01*
X124651065Y-104105706D01*
X124651067Y-104105707D01*
X124861598Y-104162119D01*
X124861600Y-104162119D01*
X124866913Y-104163543D01*
X125095000Y-104183498D01*
X125323087Y-104163543D01*
X125328400Y-104162119D01*
X125328402Y-104162119D01*
X125538933Y-104105707D01*
X125538935Y-104105706D01*
X125544243Y-104104284D01*
X125550055Y-104101574D01*
X125746762Y-104009849D01*
X125746767Y-104009846D01*
X125751749Y-104007523D01*
X125887564Y-103912424D01*
X125934789Y-103879357D01*
X125934792Y-103879355D01*
X125939300Y-103876198D01*
X126101198Y-103714300D01*
X126107098Y-103705875D01*
X126182097Y-103598765D01*
X126232523Y-103526749D01*
X126234846Y-103521767D01*
X126234849Y-103521762D01*
X126250805Y-103487543D01*
X126297722Y-103434258D01*
X126365999Y-103414797D01*
X126433959Y-103435339D01*
X126479195Y-103487543D01*
X126495151Y-103521762D01*
X126495154Y-103521767D01*
X126497477Y-103526749D01*
X126547903Y-103598765D01*
X126622903Y-103705875D01*
X126628802Y-103714300D01*
X126790700Y-103876198D01*
X126795208Y-103879355D01*
X126795211Y-103879357D01*
X126842436Y-103912424D01*
X126978251Y-104007523D01*
X126983233Y-104009846D01*
X126983238Y-104009849D01*
X127179945Y-104101574D01*
X127185757Y-104104284D01*
X127191065Y-104105706D01*
X127191067Y-104105707D01*
X127401598Y-104162119D01*
X127401600Y-104162119D01*
X127406913Y-104163543D01*
X127635000Y-104183498D01*
X127863087Y-104163543D01*
X127868400Y-104162119D01*
X127868402Y-104162119D01*
X128078933Y-104105707D01*
X128078935Y-104105706D01*
X128084243Y-104104284D01*
X128090055Y-104101574D01*
X128286762Y-104009849D01*
X128286767Y-104009846D01*
X128291749Y-104007523D01*
X128427564Y-103912424D01*
X128474789Y-103879357D01*
X128474792Y-103879355D01*
X128479300Y-103876198D01*
X128487455Y-103868043D01*
X131135964Y-103868043D01*
X131138160Y-103882207D01*
X131151345Y-103886000D01*
X132442885Y-103886000D01*
X132458124Y-103881525D01*
X132459329Y-103880135D01*
X132461000Y-103872452D01*
X132461000Y-102780115D01*
X132456525Y-102764876D01*
X132455135Y-102763671D01*
X132447452Y-102762000D01*
X132433946Y-102762000D01*
X132428637Y-102762225D01*
X132262293Y-102776339D01*
X132251821Y-102778129D01*
X132035798Y-102834198D01*
X132025758Y-102837734D01*
X131822268Y-102929399D01*
X131812982Y-102934568D01*
X131627845Y-103059210D01*
X131619559Y-103065871D01*
X131458070Y-103219924D01*
X131451021Y-103227892D01*
X131317797Y-103406952D01*
X131312198Y-103415982D01*
X131211047Y-103614931D01*
X131207044Y-103624792D01*
X131140862Y-103837929D01*
X131138580Y-103848309D01*
X131135964Y-103868043D01*
X128487455Y-103868043D01*
X128641198Y-103714300D01*
X128647098Y-103705875D01*
X128722097Y-103598765D01*
X128772523Y-103526749D01*
X128774846Y-103521767D01*
X128774849Y-103521762D01*
X128866961Y-103324225D01*
X128866961Y-103324224D01*
X128869284Y-103319243D01*
X128928543Y-103098087D01*
X128948498Y-102870000D01*
X128928543Y-102641913D01*
X128869284Y-102420757D01*
X128844583Y-102367785D01*
X128774849Y-102218238D01*
X128774846Y-102218233D01*
X128772523Y-102213251D01*
X128641198Y-102025700D01*
X128479300Y-101863802D01*
X128474792Y-101860645D01*
X128474789Y-101860643D01*
X128360954Y-101780935D01*
X128291749Y-101732477D01*
X128286767Y-101730154D01*
X128286762Y-101730151D01*
X128089225Y-101638039D01*
X128089224Y-101638039D01*
X128084243Y-101635716D01*
X128078935Y-101634294D01*
X128078933Y-101634293D01*
X127868402Y-101577881D01*
X127868400Y-101577881D01*
X127863087Y-101576457D01*
X127635000Y-101556502D01*
X127406913Y-101576457D01*
X127401600Y-101577881D01*
X127401598Y-101577881D01*
X127191067Y-101634293D01*
X127191065Y-101634294D01*
X127185757Y-101635716D01*
X127180776Y-101638039D01*
X127180775Y-101638039D01*
X126983238Y-101730151D01*
X126983233Y-101730154D01*
X126978251Y-101732477D01*
X126909046Y-101780935D01*
X126795211Y-101860643D01*
X126795208Y-101860645D01*
X126790700Y-101863802D01*
X126628802Y-102025700D01*
X126497477Y-102213251D01*
X126495154Y-102218233D01*
X126495151Y-102218238D01*
X126479195Y-102252457D01*
X126432278Y-102305742D01*
X126364001Y-102325203D01*
X126296041Y-102304661D01*
X126250805Y-102252457D01*
X126234849Y-102218238D01*
X126234846Y-102218233D01*
X126232523Y-102213251D01*
X126101198Y-102025700D01*
X125939300Y-101863802D01*
X125934792Y-101860645D01*
X125934789Y-101860643D01*
X125820954Y-101780935D01*
X125751749Y-101732477D01*
X125746767Y-101730154D01*
X125746762Y-101730151D01*
X125549225Y-101638039D01*
X125549224Y-101638039D01*
X125544243Y-101635716D01*
X125538935Y-101634294D01*
X125538933Y-101634293D01*
X125328402Y-101577881D01*
X125328400Y-101577881D01*
X125323087Y-101576457D01*
X125095000Y-101556502D01*
X124866913Y-101576457D01*
X124861600Y-101577881D01*
X124861598Y-101577881D01*
X124651067Y-101634293D01*
X124651065Y-101634294D01*
X124645757Y-101635716D01*
X124640776Y-101638039D01*
X124640775Y-101638039D01*
X124443238Y-101730151D01*
X124443233Y-101730154D01*
X124438251Y-101732477D01*
X124369046Y-101780935D01*
X124255211Y-101860643D01*
X124255208Y-101860645D01*
X124250700Y-101863802D01*
X124088802Y-102025700D01*
X123957477Y-102213251D01*
X123955154Y-102218233D01*
X123955151Y-102218238D01*
X123938695Y-102253529D01*
X123891778Y-102306814D01*
X123823500Y-102326275D01*
X123755540Y-102305733D01*
X123709475Y-102251710D01*
X123698500Y-102200279D01*
X123698500Y-98385000D01*
X126676835Y-98385000D01*
X126695465Y-98621711D01*
X126696619Y-98626518D01*
X126696620Y-98626524D01*
X126731640Y-98772391D01*
X126750895Y-98852594D01*
X126752788Y-98857165D01*
X126752789Y-98857167D01*
X126839073Y-99065475D01*
X126841760Y-99071963D01*
X126844346Y-99076183D01*
X126963241Y-99270202D01*
X126963245Y-99270208D01*
X126965824Y-99274416D01*
X127120031Y-99454969D01*
X127300584Y-99609176D01*
X127304792Y-99611755D01*
X127304798Y-99611759D01*
X127445575Y-99698027D01*
X127503037Y-99733240D01*
X127507607Y-99735133D01*
X127507611Y-99735135D01*
X127717833Y-99822211D01*
X127722406Y-99824105D01*
X127764097Y-99834114D01*
X127948476Y-99878380D01*
X127948482Y-99878381D01*
X127953289Y-99879535D01*
X128190000Y-99898165D01*
X128426711Y-99879535D01*
X128431518Y-99878381D01*
X128431524Y-99878380D01*
X128615903Y-99834114D01*
X128657594Y-99824105D01*
X128662167Y-99822211D01*
X128872389Y-99735135D01*
X128872393Y-99735133D01*
X128876963Y-99733240D01*
X128934425Y-99698027D01*
X129075202Y-99611759D01*
X129075208Y-99611755D01*
X129079416Y-99609176D01*
X129259969Y-99454969D01*
X129263177Y-99451213D01*
X129263182Y-99451208D01*
X129344189Y-99356361D01*
X129403639Y-99317551D01*
X129474634Y-99317045D01*
X129535811Y-99356361D01*
X129616818Y-99451208D01*
X129616823Y-99451213D01*
X129620031Y-99454969D01*
X129800584Y-99609176D01*
X129804792Y-99611755D01*
X129804798Y-99611759D01*
X129945575Y-99698027D01*
X130003037Y-99733240D01*
X130007607Y-99735133D01*
X130007611Y-99735135D01*
X130217833Y-99822211D01*
X130222406Y-99824105D01*
X130264097Y-99834114D01*
X130448476Y-99878380D01*
X130448482Y-99878381D01*
X130453289Y-99879535D01*
X130690000Y-99898165D01*
X130926711Y-99879535D01*
X130931518Y-99878381D01*
X130931524Y-99878380D01*
X131115903Y-99834114D01*
X131157594Y-99824105D01*
X131162167Y-99822211D01*
X131372389Y-99735135D01*
X131372393Y-99735133D01*
X131376963Y-99733240D01*
X131434425Y-99698027D01*
X131575202Y-99611759D01*
X131575208Y-99611755D01*
X131579416Y-99609176D01*
X131759969Y-99454969D01*
X131914176Y-99274416D01*
X131916755Y-99270208D01*
X131916759Y-99270202D01*
X132035654Y-99076183D01*
X132038240Y-99071963D01*
X132040928Y-99065475D01*
X132127211Y-98857167D01*
X132127212Y-98857165D01*
X132129105Y-98852594D01*
X132148360Y-98772391D01*
X132183380Y-98626524D01*
X132183381Y-98626518D01*
X132184535Y-98621711D01*
X132203165Y-98385000D01*
X132184535Y-98148289D01*
X132171082Y-98092251D01*
X132131600Y-97927800D01*
X132129105Y-97917406D01*
X132110662Y-97872880D01*
X132040135Y-97702611D01*
X132040133Y-97702607D01*
X132038240Y-97698037D01*
X132032665Y-97688939D01*
X131916759Y-97499798D01*
X131916755Y-97499792D01*
X131914176Y-97495584D01*
X131759969Y-97315031D01*
X131756213Y-97311823D01*
X131756208Y-97311818D01*
X131661361Y-97230811D01*
X131622551Y-97171361D01*
X131622045Y-97100366D01*
X131661361Y-97039189D01*
X131756208Y-96958182D01*
X131756213Y-96958177D01*
X131759969Y-96954969D01*
X131903837Y-96786522D01*
X131910963Y-96778178D01*
X131914176Y-96774416D01*
X131926893Y-96753664D01*
X131979538Y-96706034D01*
X132034324Y-96693500D01*
X133315899Y-96693500D01*
X133317219Y-96693507D01*
X133407334Y-96694451D01*
X133449710Y-96685289D01*
X133462276Y-96683231D01*
X133505368Y-96678397D01*
X133512019Y-96676081D01*
X133512023Y-96676080D01*
X133537043Y-96667367D01*
X133551855Y-96663204D01*
X133577732Y-96657609D01*
X133584623Y-96656119D01*
X133623926Y-96637792D01*
X133635702Y-96633010D01*
X133676665Y-96618745D01*
X133682640Y-96615011D01*
X133682643Y-96615010D01*
X133705108Y-96600973D01*
X133718625Y-96593634D01*
X133742627Y-96582441D01*
X133742628Y-96582440D01*
X133749015Y-96579462D01*
X133764580Y-96567389D01*
X133783266Y-96552894D01*
X133793725Y-96545598D01*
X133824517Y-96526358D01*
X133824520Y-96526356D01*
X133830489Y-96522626D01*
X133859292Y-96494024D01*
X133859917Y-96493439D01*
X133860583Y-96492922D01*
X133886573Y-96466932D01*
X133959195Y-96394815D01*
X133959853Y-96393778D01*
X133960956Y-96392549D01*
X135034147Y-95319358D01*
X135096459Y-95285332D01*
X135134223Y-95282932D01*
X135249525Y-95293019D01*
X135255000Y-95293498D01*
X135483087Y-95273543D01*
X135488400Y-95272119D01*
X135488402Y-95272119D01*
X135698933Y-95215707D01*
X135698935Y-95215706D01*
X135704243Y-95214284D01*
X135748135Y-95193817D01*
X135906762Y-95119849D01*
X135906767Y-95119846D01*
X135911749Y-95117523D01*
X135917202Y-95113705D01*
X135917686Y-95113541D01*
X135921019Y-95111617D01*
X135921406Y-95112287D01*
X135984474Y-95091012D01*
X136053335Y-95108293D01*
X136078737Y-95131002D01*
X136080008Y-95129731D01*
X136086358Y-95136081D01*
X136091739Y-95143261D01*
X136208295Y-95230615D01*
X136344684Y-95281745D01*
X136406866Y-95288500D01*
X138103134Y-95288500D01*
X138165316Y-95281745D01*
X138301705Y-95230615D01*
X138418261Y-95143261D01*
X138505615Y-95026705D01*
X138556745Y-94890316D01*
X138563500Y-94828134D01*
X138563500Y-94431062D01*
X139613493Y-94431062D01*
X139622789Y-94443077D01*
X139673994Y-94478931D01*
X139683489Y-94484414D01*
X139880947Y-94576490D01*
X139891239Y-94580236D01*
X140101688Y-94636625D01*
X140112481Y-94638528D01*
X140329525Y-94657517D01*
X140340475Y-94657517D01*
X140557519Y-94638528D01*
X140568312Y-94636625D01*
X140778761Y-94580236D01*
X140789053Y-94576490D01*
X140986511Y-94484414D01*
X140996006Y-94478931D01*
X141048048Y-94442491D01*
X141056424Y-94432012D01*
X141049356Y-94418566D01*
X140347812Y-93717022D01*
X140333868Y-93709408D01*
X140332035Y-93709539D01*
X140325420Y-93713790D01*
X139619923Y-94419287D01*
X139613493Y-94431062D01*
X138563500Y-94431062D01*
X138563500Y-93350475D01*
X139022483Y-93350475D01*
X139041472Y-93567519D01*
X139043375Y-93578312D01*
X139099764Y-93788761D01*
X139103510Y-93799053D01*
X139195586Y-93996511D01*
X139201069Y-94006006D01*
X139237509Y-94058048D01*
X139247988Y-94066424D01*
X139261434Y-94059356D01*
X139962978Y-93357812D01*
X139969356Y-93346132D01*
X140699408Y-93346132D01*
X140699539Y-93347965D01*
X140703790Y-93354580D01*
X141409287Y-94060077D01*
X141421062Y-94066507D01*
X141433077Y-94057211D01*
X141468931Y-94006006D01*
X141474414Y-93996511D01*
X141566490Y-93799053D01*
X141570236Y-93788761D01*
X141626625Y-93578312D01*
X141628528Y-93567519D01*
X141647517Y-93350475D01*
X141647517Y-93339525D01*
X141628528Y-93122481D01*
X141626625Y-93111688D01*
X141570236Y-92901239D01*
X141566490Y-92890947D01*
X141474414Y-92693489D01*
X141468931Y-92683994D01*
X141432491Y-92631952D01*
X141422012Y-92623576D01*
X141408566Y-92630644D01*
X140707022Y-93332188D01*
X140699408Y-93346132D01*
X139969356Y-93346132D01*
X139970592Y-93343868D01*
X139970461Y-93342035D01*
X139966210Y-93335420D01*
X139260713Y-92629923D01*
X139248938Y-92623493D01*
X139236923Y-92632789D01*
X139201069Y-92683994D01*
X139195586Y-92693489D01*
X139103510Y-92890947D01*
X139099764Y-92901239D01*
X139043375Y-93111688D01*
X139041472Y-93122481D01*
X139022483Y-93339525D01*
X139022483Y-93350475D01*
X138563500Y-93350475D01*
X138563500Y-93131866D01*
X138556745Y-93069684D01*
X138505615Y-92933295D01*
X138418261Y-92816739D01*
X138301705Y-92729385D01*
X138165316Y-92678255D01*
X138103134Y-92671500D01*
X136406866Y-92671500D01*
X136344684Y-92678255D01*
X136208295Y-92729385D01*
X136091739Y-92816739D01*
X136086358Y-92823919D01*
X136080008Y-92830269D01*
X136077768Y-92828029D01*
X136033435Y-92861171D01*
X135962616Y-92866190D01*
X135921210Y-92848051D01*
X135921019Y-92848383D01*
X135918036Y-92846661D01*
X135917203Y-92846296D01*
X135911749Y-92842477D01*
X135906767Y-92840154D01*
X135906762Y-92840151D01*
X135709225Y-92748039D01*
X135709224Y-92748039D01*
X135704243Y-92745716D01*
X135698935Y-92744294D01*
X135698933Y-92744293D01*
X135488402Y-92687881D01*
X135488400Y-92687881D01*
X135483087Y-92686457D01*
X135255000Y-92666502D01*
X135026913Y-92686457D01*
X135021600Y-92687881D01*
X135021598Y-92687881D01*
X134811067Y-92744293D01*
X134811065Y-92744294D01*
X134805757Y-92745716D01*
X134800776Y-92748039D01*
X134800775Y-92748039D01*
X134603238Y-92840151D01*
X134603233Y-92840154D01*
X134598251Y-92842477D01*
X134497551Y-92912988D01*
X134415211Y-92970643D01*
X134415208Y-92970645D01*
X134410700Y-92973802D01*
X134248802Y-93135700D01*
X134245645Y-93140208D01*
X134245643Y-93140211D01*
X134190902Y-93218389D01*
X134117477Y-93323251D01*
X134115154Y-93328233D01*
X134115151Y-93328238D01*
X134023039Y-93525775D01*
X134020716Y-93530757D01*
X134019294Y-93536065D01*
X134019293Y-93536067D01*
X133997688Y-93616699D01*
X133961457Y-93751913D01*
X133941502Y-93980000D01*
X133941981Y-93985475D01*
X133941981Y-93985476D01*
X133948064Y-94055007D01*
X133934075Y-94124611D01*
X133911638Y-94155083D01*
X133027126Y-95039595D01*
X132964814Y-95073621D01*
X132938031Y-95076500D01*
X132034324Y-95076500D01*
X131966203Y-95056498D01*
X131926893Y-95016336D01*
X131914176Y-94995584D01*
X131768242Y-94824717D01*
X131763177Y-94818787D01*
X131759969Y-94815031D01*
X131597474Y-94676247D01*
X131563598Y-94630314D01*
X131554122Y-94608332D01*
X130702812Y-93757022D01*
X130688868Y-93749408D01*
X130687035Y-93749539D01*
X130680420Y-93753790D01*
X129828920Y-94605290D01*
X129807974Y-94643648D01*
X129779218Y-94679072D01*
X129620031Y-94815031D01*
X129616823Y-94818787D01*
X129616818Y-94818792D01*
X129535811Y-94913639D01*
X129476361Y-94952449D01*
X129405366Y-94952955D01*
X129344189Y-94913639D01*
X129263182Y-94818792D01*
X129263177Y-94818787D01*
X129259969Y-94815031D01*
X129097474Y-94676247D01*
X129063598Y-94630314D01*
X129054122Y-94608332D01*
X128202812Y-93757022D01*
X128188868Y-93749408D01*
X128187035Y-93749539D01*
X128180420Y-93753790D01*
X127328920Y-94605290D01*
X127307974Y-94643648D01*
X127279218Y-94679072D01*
X127120031Y-94815031D01*
X127116823Y-94818787D01*
X127111758Y-94824717D01*
X126965824Y-94995584D01*
X126963245Y-94999792D01*
X126963241Y-94999798D01*
X126891099Y-95117523D01*
X126841760Y-95198037D01*
X126839867Y-95202607D01*
X126839865Y-95202611D01*
X126772821Y-95364471D01*
X126750895Y-95417406D01*
X126695465Y-95648289D01*
X126676835Y-95885000D01*
X126695465Y-96121711D01*
X126750895Y-96352594D01*
X126752788Y-96357165D01*
X126752789Y-96357167D01*
X126817969Y-96514525D01*
X126841760Y-96571963D01*
X126844346Y-96576183D01*
X126963241Y-96770202D01*
X126963245Y-96770208D01*
X126965824Y-96774416D01*
X127120031Y-96954969D01*
X127123787Y-96958177D01*
X127123792Y-96958182D01*
X127218639Y-97039189D01*
X127257449Y-97098639D01*
X127257955Y-97169634D01*
X127218639Y-97230811D01*
X127123792Y-97311818D01*
X127123787Y-97311823D01*
X127120031Y-97315031D01*
X126965824Y-97495584D01*
X126963245Y-97499792D01*
X126963241Y-97499798D01*
X126847335Y-97688939D01*
X126841760Y-97698037D01*
X126839867Y-97702607D01*
X126839865Y-97702611D01*
X126769338Y-97872880D01*
X126750895Y-97917406D01*
X126748400Y-97927800D01*
X126708919Y-98092251D01*
X126695465Y-98148289D01*
X126676835Y-98385000D01*
X123698500Y-98385000D01*
X123698500Y-93389930D01*
X126677725Y-93389930D01*
X126695572Y-93616699D01*
X126697115Y-93626446D01*
X126750217Y-93847627D01*
X126753266Y-93857012D01*
X126840313Y-94067163D01*
X126844795Y-94075958D01*
X126947432Y-94243445D01*
X126957890Y-94252907D01*
X126966666Y-94249124D01*
X127817978Y-93397812D01*
X127824356Y-93386132D01*
X128554408Y-93386132D01*
X128554539Y-93387965D01*
X128558790Y-93394580D01*
X129410290Y-94246080D01*
X129424235Y-94253695D01*
X129432075Y-94253134D01*
X129454903Y-94254194D01*
X129466667Y-94249123D01*
X130317978Y-93397812D01*
X130324356Y-93386132D01*
X131054408Y-93386132D01*
X131054539Y-93387965D01*
X131058790Y-93394580D01*
X131910290Y-94246080D01*
X131922670Y-94252840D01*
X131930320Y-94247113D01*
X132035205Y-94075958D01*
X132039687Y-94067163D01*
X132126734Y-93857012D01*
X132129783Y-93847627D01*
X132182885Y-93626446D01*
X132184428Y-93616699D01*
X132202275Y-93389930D01*
X132202275Y-93380070D01*
X132184428Y-93153301D01*
X132182885Y-93143554D01*
X132129783Y-92922373D01*
X132126734Y-92912988D01*
X132039687Y-92702837D01*
X132035205Y-92694042D01*
X131932568Y-92526555D01*
X131922110Y-92517093D01*
X131913334Y-92520876D01*
X131062022Y-93372188D01*
X131054408Y-93386132D01*
X130324356Y-93386132D01*
X130325592Y-93383868D01*
X130325461Y-93382035D01*
X130321210Y-93375420D01*
X129469710Y-92523920D01*
X129455765Y-92516305D01*
X129447925Y-92516866D01*
X129425097Y-92515806D01*
X129413333Y-92520877D01*
X128562022Y-93372188D01*
X128554408Y-93386132D01*
X127824356Y-93386132D01*
X127825592Y-93383868D01*
X127825461Y-93382035D01*
X127821210Y-93375420D01*
X126969710Y-92523920D01*
X126957330Y-92517160D01*
X126949680Y-92522887D01*
X126844795Y-92694042D01*
X126840313Y-92702837D01*
X126753266Y-92912988D01*
X126750217Y-92922373D01*
X126697115Y-93143554D01*
X126695572Y-93153301D01*
X126677725Y-93380070D01*
X126677725Y-93389930D01*
X123698500Y-93389930D01*
X123698500Y-92152890D01*
X127322093Y-92152890D01*
X127325876Y-92161666D01*
X128177188Y-93012978D01*
X128191132Y-93020592D01*
X128192965Y-93020461D01*
X128199580Y-93016210D01*
X129051080Y-92164710D01*
X129057534Y-92152890D01*
X129822093Y-92152890D01*
X129825876Y-92161666D01*
X130677188Y-93012978D01*
X130691132Y-93020592D01*
X130692965Y-93020461D01*
X130699580Y-93016210D01*
X131551080Y-92164710D01*
X131557840Y-92152330D01*
X131552113Y-92144680D01*
X131380958Y-92039795D01*
X131372163Y-92035313D01*
X131162012Y-91948266D01*
X131152627Y-91945217D01*
X130931446Y-91892115D01*
X130921699Y-91890572D01*
X130694930Y-91872725D01*
X130685070Y-91872725D01*
X130458301Y-91890572D01*
X130448554Y-91892115D01*
X130227373Y-91945217D01*
X130217988Y-91948266D01*
X130007837Y-92035313D01*
X129999042Y-92039795D01*
X129831555Y-92142432D01*
X129822093Y-92152890D01*
X129057534Y-92152890D01*
X129057840Y-92152330D01*
X129052113Y-92144680D01*
X128880958Y-92039795D01*
X128872163Y-92035313D01*
X128662012Y-91948266D01*
X128652627Y-91945217D01*
X128431446Y-91892115D01*
X128421699Y-91890572D01*
X128194930Y-91872725D01*
X128185070Y-91872725D01*
X127958301Y-91890572D01*
X127948554Y-91892115D01*
X127727373Y-91945217D01*
X127717988Y-91948266D01*
X127507837Y-92035313D01*
X127499042Y-92039795D01*
X127331555Y-92142432D01*
X127322093Y-92152890D01*
X123698500Y-92152890D01*
X123698500Y-90845000D01*
X139021502Y-90845000D01*
X139041457Y-91073087D01*
X139042881Y-91078400D01*
X139042881Y-91078402D01*
X139078656Y-91211913D01*
X139100716Y-91294243D01*
X139103039Y-91299224D01*
X139103039Y-91299225D01*
X139195151Y-91496762D01*
X139195154Y-91496767D01*
X139197477Y-91501749D01*
X139328802Y-91689300D01*
X139490700Y-91851198D01*
X139495208Y-91854355D01*
X139495211Y-91854357D01*
X139549135Y-91892115D01*
X139678251Y-91982523D01*
X139683235Y-91984847D01*
X139685528Y-91986171D01*
X139734521Y-92037553D01*
X139747957Y-92107267D01*
X139721571Y-92173178D01*
X139685528Y-92204409D01*
X139673998Y-92211066D01*
X139621952Y-92247509D01*
X139613576Y-92257988D01*
X139620644Y-92271434D01*
X140322188Y-92972978D01*
X140336132Y-92980592D01*
X140337965Y-92980461D01*
X140344580Y-92976210D01*
X141050077Y-92270713D01*
X141056507Y-92258938D01*
X141047211Y-92246923D01*
X140996002Y-92211066D01*
X140984472Y-92204409D01*
X140935479Y-92153027D01*
X140922042Y-92083313D01*
X140948429Y-92017402D01*
X140984472Y-91986171D01*
X140986765Y-91984847D01*
X140991749Y-91982523D01*
X141120865Y-91892115D01*
X141174789Y-91854357D01*
X141174792Y-91854355D01*
X141179300Y-91851198D01*
X141341198Y-91689300D01*
X141472523Y-91501749D01*
X141474846Y-91496767D01*
X141474849Y-91496762D01*
X141566961Y-91299225D01*
X141566961Y-91299224D01*
X141569284Y-91294243D01*
X141591345Y-91211913D01*
X141627119Y-91078402D01*
X141627119Y-91078400D01*
X141628543Y-91073087D01*
X141648498Y-90845000D01*
X141628543Y-90616913D01*
X141621815Y-90591803D01*
X141570707Y-90401067D01*
X141570706Y-90401065D01*
X141569284Y-90395757D01*
X141566961Y-90390775D01*
X141474849Y-90193238D01*
X141474846Y-90193233D01*
X141472523Y-90188251D01*
X141341198Y-90000700D01*
X141179300Y-89838802D01*
X141174792Y-89835645D01*
X141174789Y-89835643D01*
X141057362Y-89753420D01*
X140991749Y-89707477D01*
X140986767Y-89705154D01*
X140986762Y-89705151D01*
X140789225Y-89613039D01*
X140789224Y-89613039D01*
X140784243Y-89610716D01*
X140778935Y-89609294D01*
X140778933Y-89609293D01*
X140568402Y-89552881D01*
X140568400Y-89552881D01*
X140563087Y-89551457D01*
X140335000Y-89531502D01*
X140106913Y-89551457D01*
X140101600Y-89552881D01*
X140101598Y-89552881D01*
X139891067Y-89609293D01*
X139891065Y-89609294D01*
X139885757Y-89610716D01*
X139880776Y-89613039D01*
X139880775Y-89613039D01*
X139683238Y-89705151D01*
X139683233Y-89705154D01*
X139678251Y-89707477D01*
X139612638Y-89753420D01*
X139495211Y-89835643D01*
X139495208Y-89835645D01*
X139490700Y-89838802D01*
X139328802Y-90000700D01*
X139197477Y-90188251D01*
X139195154Y-90193233D01*
X139195151Y-90193238D01*
X139103039Y-90390775D01*
X139100716Y-90395757D01*
X139099294Y-90401065D01*
X139099293Y-90401067D01*
X139048185Y-90591803D01*
X139041457Y-90616913D01*
X139021502Y-90845000D01*
X123698500Y-90845000D01*
X123698500Y-83819500D01*
X123718502Y-83751379D01*
X123772158Y-83704886D01*
X123824500Y-83693500D01*
X130140279Y-83693500D01*
X130208400Y-83713502D01*
G37*
%TD.AperFunction*%
%TA.AperFunction,Conductor*%
G36*
X143753933Y-99253502D02*
G01*
X143774907Y-99270405D01*
X143935700Y-99431198D01*
X143940208Y-99434355D01*
X143940211Y-99434357D01*
X143964277Y-99451208D01*
X144123251Y-99562523D01*
X144128233Y-99564846D01*
X144128238Y-99564849D01*
X144162457Y-99580805D01*
X144215742Y-99627722D01*
X144235203Y-99695999D01*
X144214661Y-99763959D01*
X144162457Y-99809195D01*
X144128238Y-99825151D01*
X144128233Y-99825154D01*
X144123251Y-99827477D01*
X144022298Y-99898165D01*
X143940211Y-99955643D01*
X143940208Y-99955645D01*
X143935700Y-99958802D01*
X143773802Y-100120700D01*
X143770645Y-100125208D01*
X143770643Y-100125211D01*
X143736998Y-100173261D01*
X143642477Y-100308251D01*
X143640154Y-100313233D01*
X143640151Y-100313238D01*
X143558306Y-100488758D01*
X143545716Y-100515757D01*
X143544294Y-100521065D01*
X143544293Y-100521067D01*
X143487881Y-100731598D01*
X143486457Y-100736913D01*
X143466502Y-100965000D01*
X143486457Y-101193087D01*
X143487881Y-101198400D01*
X143487881Y-101198402D01*
X143534511Y-101372424D01*
X143545716Y-101414243D01*
X143548039Y-101419224D01*
X143548039Y-101419225D01*
X143640151Y-101616762D01*
X143640154Y-101616767D01*
X143642477Y-101621749D01*
X143681087Y-101676890D01*
X143756421Y-101784477D01*
X143773802Y-101809300D01*
X143810907Y-101846405D01*
X143844933Y-101908717D01*
X143839868Y-101979532D01*
X143797321Y-102036368D01*
X143730801Y-102061179D01*
X143721812Y-102061500D01*
X138943690Y-102061500D01*
X138875569Y-102041498D01*
X138854595Y-102024595D01*
X138735880Y-101905880D01*
X138701854Y-101843568D01*
X138706919Y-101772753D01*
X138749466Y-101715917D01*
X138770534Y-101703153D01*
X138774898Y-101701062D01*
X138781552Y-101698745D01*
X138787527Y-101695011D01*
X138787530Y-101695010D01*
X138809995Y-101680973D01*
X138823512Y-101673634D01*
X138847514Y-101662441D01*
X138847515Y-101662440D01*
X138853902Y-101659462D01*
X138888153Y-101632894D01*
X138898612Y-101625598D01*
X138929404Y-101606358D01*
X138929407Y-101606356D01*
X138935376Y-101602626D01*
X138947668Y-101590420D01*
X138964179Y-101574024D01*
X138964804Y-101573439D01*
X138965470Y-101572922D01*
X138991460Y-101546932D01*
X139064082Y-101474815D01*
X139064740Y-101473778D01*
X139065843Y-101472549D01*
X141267987Y-99270405D01*
X141330299Y-99236379D01*
X141357082Y-99233500D01*
X143685812Y-99233500D01*
X143753933Y-99253502D01*
G37*
%TD.AperFunction*%
%TD*%
M02*
