%TF.GenerationSoftware,KiCad,Pcbnew,(6.0.5)*%
%TF.CreationDate,2022-05-29T11:26:36-04:00*%
%TF.ProjectId,headphone_amp,68656164-7068-46f6-9e65-5f616d702e6b,rev?*%
%TF.SameCoordinates,Original*%
%TF.FileFunction,Legend,Top*%
%TF.FilePolarity,Positive*%
%FSLAX46Y46*%
G04 Gerber Fmt 4.6, Leading zero omitted, Abs format (unit mm)*
G04 Created by KiCad (PCBNEW (6.0.5)) date 2022-05-29 11:26:36*
%MOMM*%
%LPD*%
G01*
G04 APERTURE LIST*
%ADD10C,0.130000*%
%ADD11C,0.150000*%
%ADD12C,0.120000*%
G04 APERTURE END LIST*
D10*
X161486904Y-107835238D02*
X162058333Y-107835238D01*
X162172619Y-107873333D01*
X162248809Y-107949523D01*
X162286904Y-108063809D01*
X162286904Y-108140000D01*
X162286904Y-107073333D02*
X162286904Y-107454285D01*
X161486904Y-107454285D01*
X162210714Y-106349523D02*
X162248809Y-106387619D01*
X162286904Y-106501904D01*
X162286904Y-106578095D01*
X162248809Y-106692380D01*
X162172619Y-106768571D01*
X162096428Y-106806666D01*
X161944047Y-106844761D01*
X161829761Y-106844761D01*
X161677380Y-106806666D01*
X161601190Y-106768571D01*
X161525000Y-106692380D01*
X161486904Y-106578095D01*
X161486904Y-106501904D01*
X161525000Y-106387619D01*
X161563095Y-106349523D01*
X161486904Y-105778095D02*
X162058333Y-105778095D01*
X162172619Y-105816190D01*
X162248809Y-105892380D01*
X162286904Y-106006666D01*
X162286904Y-106082857D01*
X162286904Y-105016190D02*
X162286904Y-105397142D01*
X161486904Y-105397142D01*
X162210714Y-104292380D02*
X162248809Y-104330476D01*
X162286904Y-104444761D01*
X162286904Y-104520952D01*
X162248809Y-104635238D01*
X162172619Y-104711428D01*
X162096428Y-104749523D01*
X161944047Y-104787619D01*
X161829761Y-104787619D01*
X161677380Y-104749523D01*
X161601190Y-104711428D01*
X161525000Y-104635238D01*
X161486904Y-104520952D01*
X161486904Y-104444761D01*
X161525000Y-104330476D01*
X161563095Y-104292380D01*
X161486904Y-103720952D02*
X162058333Y-103720952D01*
X162172619Y-103759047D01*
X162248809Y-103835238D01*
X162286904Y-103949523D01*
X162286904Y-104025714D01*
X162286904Y-102959047D02*
X162286904Y-103340000D01*
X161486904Y-103340000D01*
X162210714Y-102235238D02*
X162248809Y-102273333D01*
X162286904Y-102387619D01*
X162286904Y-102463809D01*
X162248809Y-102578095D01*
X162172619Y-102654285D01*
X162096428Y-102692380D01*
X161944047Y-102730476D01*
X161829761Y-102730476D01*
X161677380Y-102692380D01*
X161601190Y-102654285D01*
X161525000Y-102578095D01*
X161486904Y-102463809D01*
X161486904Y-102387619D01*
X161525000Y-102273333D01*
X161563095Y-102235238D01*
X161486904Y-101663809D02*
X162058333Y-101663809D01*
X162172619Y-101701904D01*
X162248809Y-101778095D01*
X162286904Y-101892380D01*
X162286904Y-101968571D01*
X162286904Y-100901904D02*
X162286904Y-101282857D01*
X161486904Y-101282857D01*
X162210714Y-100178095D02*
X162248809Y-100216190D01*
X162286904Y-100330476D01*
X162286904Y-100406666D01*
X162248809Y-100520952D01*
X162172619Y-100597142D01*
X162096428Y-100635238D01*
X161944047Y-100673333D01*
X161829761Y-100673333D01*
X161677380Y-100635238D01*
X161601190Y-100597142D01*
X161525000Y-100520952D01*
X161486904Y-100406666D01*
X161486904Y-100330476D01*
X161525000Y-100216190D01*
X161563095Y-100178095D01*
D11*
X166044523Y-92527380D02*
X165711190Y-92051190D01*
X165473095Y-92527380D02*
X165473095Y-91527380D01*
X165854047Y-91527380D01*
X165949285Y-91575000D01*
X165996904Y-91622619D01*
X166044523Y-91717857D01*
X166044523Y-91860714D01*
X165996904Y-91955952D01*
X165949285Y-92003571D01*
X165854047Y-92051190D01*
X165473095Y-92051190D01*
X168584523Y-92527380D02*
X168108333Y-92527380D01*
X168108333Y-91527380D01*
X163456904Y-91575000D02*
X163361666Y-91527380D01*
X163218809Y-91527380D01*
X163075952Y-91575000D01*
X162980714Y-91670238D01*
X162933095Y-91765476D01*
X162885476Y-91955952D01*
X162885476Y-92098809D01*
X162933095Y-92289285D01*
X162980714Y-92384523D01*
X163075952Y-92479761D01*
X163218809Y-92527380D01*
X163314047Y-92527380D01*
X163456904Y-92479761D01*
X163504523Y-92432142D01*
X163504523Y-92098809D01*
X163314047Y-92098809D01*
X130238809Y-103957380D02*
X129762619Y-103957380D01*
X129762619Y-102957380D01*
X131905476Y-103957380D02*
X131572142Y-103481190D01*
X131334047Y-103957380D02*
X131334047Y-102957380D01*
X131715000Y-102957380D01*
X131810238Y-103005000D01*
X131857857Y-103052619D01*
X131905476Y-103147857D01*
X131905476Y-103290714D01*
X131857857Y-103385952D01*
X131810238Y-103433571D01*
X131715000Y-103481190D01*
X131334047Y-103481190D01*
X133619761Y-103005000D02*
X133524523Y-102957380D01*
X133381666Y-102957380D01*
X133238809Y-103005000D01*
X133143571Y-103100238D01*
X133095952Y-103195476D01*
X133048333Y-103385952D01*
X133048333Y-103528809D01*
X133095952Y-103719285D01*
X133143571Y-103814523D01*
X133238809Y-103909761D01*
X133381666Y-103957380D01*
X133476904Y-103957380D01*
X133619761Y-103909761D01*
X133667380Y-103862142D01*
X133667380Y-103528809D01*
X133476904Y-103528809D01*
X134095952Y-103957380D02*
X134095952Y-102957380D01*
X134667380Y-103957380D01*
X134667380Y-102957380D01*
X135143571Y-103957380D02*
X135143571Y-102957380D01*
X135381666Y-102957380D01*
X135524523Y-103005000D01*
X135619761Y-103100238D01*
X135667380Y-103195476D01*
X135715000Y-103385952D01*
X135715000Y-103528809D01*
X135667380Y-103719285D01*
X135619761Y-103814523D01*
X135524523Y-103909761D01*
X135381666Y-103957380D01*
X135143571Y-103957380D01*
%TO.C,R7*%
X153090714Y-95972380D02*
X153709761Y-95972380D01*
X153376428Y-96353333D01*
X153519285Y-96353333D01*
X153614523Y-96400952D01*
X153662142Y-96448571D01*
X153709761Y-96543809D01*
X153709761Y-96781904D01*
X153662142Y-96877142D01*
X153614523Y-96924761D01*
X153519285Y-96972380D01*
X153233571Y-96972380D01*
X153138333Y-96924761D01*
X153090714Y-96877142D01*
X154043095Y-95972380D02*
X154662142Y-95972380D01*
X154328809Y-96353333D01*
X154471666Y-96353333D01*
X154566904Y-96400952D01*
X154614523Y-96448571D01*
X154662142Y-96543809D01*
X154662142Y-96781904D01*
X154614523Y-96877142D01*
X154566904Y-96924761D01*
X154471666Y-96972380D01*
X154185952Y-96972380D01*
X154090714Y-96924761D01*
X154043095Y-96877142D01*
X155090714Y-96972380D02*
X155090714Y-95972380D01*
X155185952Y-96591428D02*
X155471666Y-96972380D01*
X155471666Y-96305714D02*
X155090714Y-96686666D01*
%TO.C,D5*%
X158641904Y-86812380D02*
X158641904Y-85812380D01*
X158880000Y-85812380D01*
X159022857Y-85860000D01*
X159118095Y-85955238D01*
X159165714Y-86050476D01*
X159213333Y-86240952D01*
X159213333Y-86383809D01*
X159165714Y-86574285D01*
X159118095Y-86669523D01*
X159022857Y-86764761D01*
X158880000Y-86812380D01*
X158641904Y-86812380D01*
X160118095Y-85812380D02*
X159641904Y-85812380D01*
X159594285Y-86288571D01*
X159641904Y-86240952D01*
X159737142Y-86193333D01*
X159975238Y-86193333D01*
X160070476Y-86240952D01*
X160118095Y-86288571D01*
X160165714Y-86383809D01*
X160165714Y-86621904D01*
X160118095Y-86717142D01*
X160070476Y-86764761D01*
X159975238Y-86812380D01*
X159737142Y-86812380D01*
X159641904Y-86764761D01*
X159594285Y-86717142D01*
%TO.C,R12*%
X125547380Y-109021428D02*
X125547380Y-109592857D01*
X125547380Y-109307142D02*
X124547380Y-109307142D01*
X124690238Y-109402380D01*
X124785476Y-109497619D01*
X124833095Y-109592857D01*
X124642619Y-108640476D02*
X124595000Y-108592857D01*
X124547380Y-108497619D01*
X124547380Y-108259523D01*
X124595000Y-108164285D01*
X124642619Y-108116666D01*
X124737857Y-108069047D01*
X124833095Y-108069047D01*
X124975952Y-108116666D01*
X125547380Y-108688095D01*
X125547380Y-108069047D01*
X124547380Y-107450000D02*
X124547380Y-107354761D01*
X124595000Y-107259523D01*
X124642619Y-107211904D01*
X124737857Y-107164285D01*
X124928333Y-107116666D01*
X125166428Y-107116666D01*
X125356904Y-107164285D01*
X125452142Y-107211904D01*
X125499761Y-107259523D01*
X125547380Y-107354761D01*
X125547380Y-107450000D01*
X125499761Y-107545238D01*
X125452142Y-107592857D01*
X125356904Y-107640476D01*
X125166428Y-107688095D01*
X124928333Y-107688095D01*
X124737857Y-107640476D01*
X124642619Y-107592857D01*
X124595000Y-107545238D01*
X124547380Y-107450000D01*
X125547380Y-106688095D02*
X124547380Y-106688095D01*
X125166428Y-106592857D02*
X125547380Y-106307142D01*
X124880714Y-106307142D02*
X125261666Y-106688095D01*
%TO.C,R3*%
X138247619Y-97877380D02*
X138866666Y-97877380D01*
X138533333Y-98258333D01*
X138676190Y-98258333D01*
X138771428Y-98305952D01*
X138819047Y-98353571D01*
X138866666Y-98448809D01*
X138866666Y-98686904D01*
X138819047Y-98782142D01*
X138771428Y-98829761D01*
X138676190Y-98877380D01*
X138390476Y-98877380D01*
X138295238Y-98829761D01*
X138247619Y-98782142D01*
X139295238Y-98782142D02*
X139342857Y-98829761D01*
X139295238Y-98877380D01*
X139247619Y-98829761D01*
X139295238Y-98782142D01*
X139295238Y-98877380D01*
X139819047Y-98877380D02*
X140009523Y-98877380D01*
X140104761Y-98829761D01*
X140152380Y-98782142D01*
X140247619Y-98639285D01*
X140295238Y-98448809D01*
X140295238Y-98067857D01*
X140247619Y-97972619D01*
X140200000Y-97925000D01*
X140104761Y-97877380D01*
X139914285Y-97877380D01*
X139819047Y-97925000D01*
X139771428Y-97972619D01*
X139723809Y-98067857D01*
X139723809Y-98305952D01*
X139771428Y-98401190D01*
X139819047Y-98448809D01*
X139914285Y-98496428D01*
X140104761Y-98496428D01*
X140200000Y-98448809D01*
X140247619Y-98401190D01*
X140295238Y-98305952D01*
X140723809Y-98877380D02*
X140723809Y-97877380D01*
X140819047Y-98496428D02*
X141104761Y-98877380D01*
X141104761Y-98210714D02*
X140723809Y-98591666D01*
%TO.C,C7*%
X125349047Y-84002619D02*
X125396666Y-83955000D01*
X125491904Y-83907380D01*
X125730000Y-83907380D01*
X125825238Y-83955000D01*
X125872857Y-84002619D01*
X125920476Y-84097857D01*
X125920476Y-84193095D01*
X125872857Y-84335952D01*
X125301428Y-84907380D01*
X125920476Y-84907380D01*
X126349047Y-84812142D02*
X126396666Y-84859761D01*
X126349047Y-84907380D01*
X126301428Y-84859761D01*
X126349047Y-84812142D01*
X126349047Y-84907380D01*
X126777619Y-84002619D02*
X126825238Y-83955000D01*
X126920476Y-83907380D01*
X127158571Y-83907380D01*
X127253809Y-83955000D01*
X127301428Y-84002619D01*
X127349047Y-84097857D01*
X127349047Y-84193095D01*
X127301428Y-84335952D01*
X126730000Y-84907380D01*
X127349047Y-84907380D01*
X128206190Y-84240714D02*
X128206190Y-84907380D01*
X127777619Y-84240714D02*
X127777619Y-84764523D01*
X127825238Y-84859761D01*
X127920476Y-84907380D01*
X128063333Y-84907380D01*
X128158571Y-84859761D01*
X128206190Y-84812142D01*
X129015714Y-84383571D02*
X128682380Y-84383571D01*
X128682380Y-84907380D02*
X128682380Y-83907380D01*
X129158571Y-83907380D01*
%TO.C,C9*%
X147772380Y-91717619D02*
X147772380Y-92289047D01*
X147772380Y-92003333D02*
X146772380Y-92003333D01*
X146915238Y-92098571D01*
X147010476Y-92193809D01*
X147058095Y-92289047D01*
X146772380Y-91098571D02*
X146772380Y-91003333D01*
X146820000Y-90908095D01*
X146867619Y-90860476D01*
X146962857Y-90812857D01*
X147153333Y-90765238D01*
X147391428Y-90765238D01*
X147581904Y-90812857D01*
X147677142Y-90860476D01*
X147724761Y-90908095D01*
X147772380Y-91003333D01*
X147772380Y-91098571D01*
X147724761Y-91193809D01*
X147677142Y-91241428D01*
X147581904Y-91289047D01*
X147391428Y-91336666D01*
X147153333Y-91336666D01*
X146962857Y-91289047D01*
X146867619Y-91241428D01*
X146820000Y-91193809D01*
X146772380Y-91098571D01*
X146772380Y-90146190D02*
X146772380Y-90050952D01*
X146820000Y-89955714D01*
X146867619Y-89908095D01*
X146962857Y-89860476D01*
X147153333Y-89812857D01*
X147391428Y-89812857D01*
X147581904Y-89860476D01*
X147677142Y-89908095D01*
X147724761Y-89955714D01*
X147772380Y-90050952D01*
X147772380Y-90146190D01*
X147724761Y-90241428D01*
X147677142Y-90289047D01*
X147581904Y-90336666D01*
X147391428Y-90384285D01*
X147153333Y-90384285D01*
X146962857Y-90336666D01*
X146867619Y-90289047D01*
X146820000Y-90241428D01*
X146772380Y-90146190D01*
X147105714Y-88955714D02*
X147772380Y-88955714D01*
X147105714Y-89384285D02*
X147629523Y-89384285D01*
X147724761Y-89336666D01*
X147772380Y-89241428D01*
X147772380Y-89098571D01*
X147724761Y-89003333D01*
X147677142Y-88955714D01*
X147248571Y-88146190D02*
X147248571Y-88479523D01*
X147772380Y-88479523D02*
X146772380Y-88479523D01*
X146772380Y-88003333D01*
%TO.C,R2*%
X141803571Y-112847380D02*
X141232142Y-112847380D01*
X141517857Y-112847380D02*
X141517857Y-111847380D01*
X141422619Y-111990238D01*
X141327380Y-112085476D01*
X141232142Y-112133095D01*
X142422619Y-111847380D02*
X142517857Y-111847380D01*
X142613095Y-111895000D01*
X142660714Y-111942619D01*
X142708333Y-112037857D01*
X142755952Y-112228333D01*
X142755952Y-112466428D01*
X142708333Y-112656904D01*
X142660714Y-112752142D01*
X142613095Y-112799761D01*
X142517857Y-112847380D01*
X142422619Y-112847380D01*
X142327380Y-112799761D01*
X142279761Y-112752142D01*
X142232142Y-112656904D01*
X142184523Y-112466428D01*
X142184523Y-112228333D01*
X142232142Y-112037857D01*
X142279761Y-111942619D01*
X142327380Y-111895000D01*
X142422619Y-111847380D01*
X143375000Y-111847380D02*
X143470238Y-111847380D01*
X143565476Y-111895000D01*
X143613095Y-111942619D01*
X143660714Y-112037857D01*
X143708333Y-112228333D01*
X143708333Y-112466428D01*
X143660714Y-112656904D01*
X143613095Y-112752142D01*
X143565476Y-112799761D01*
X143470238Y-112847380D01*
X143375000Y-112847380D01*
X143279761Y-112799761D01*
X143232142Y-112752142D01*
X143184523Y-112656904D01*
X143136904Y-112466428D01*
X143136904Y-112228333D01*
X143184523Y-112037857D01*
X143232142Y-111942619D01*
X143279761Y-111895000D01*
X143375000Y-111847380D01*
X144136904Y-112847380D02*
X144136904Y-111847380D01*
X144232142Y-112466428D02*
X144517857Y-112847380D01*
X144517857Y-112180714D02*
X144136904Y-112561666D01*
%TO.C,R11*%
X128087380Y-109021428D02*
X128087380Y-109592857D01*
X128087380Y-109307142D02*
X127087380Y-109307142D01*
X127230238Y-109402380D01*
X127325476Y-109497619D01*
X127373095Y-109592857D01*
X127182619Y-108640476D02*
X127135000Y-108592857D01*
X127087380Y-108497619D01*
X127087380Y-108259523D01*
X127135000Y-108164285D01*
X127182619Y-108116666D01*
X127277857Y-108069047D01*
X127373095Y-108069047D01*
X127515952Y-108116666D01*
X128087380Y-108688095D01*
X128087380Y-108069047D01*
X127087380Y-107450000D02*
X127087380Y-107354761D01*
X127135000Y-107259523D01*
X127182619Y-107211904D01*
X127277857Y-107164285D01*
X127468333Y-107116666D01*
X127706428Y-107116666D01*
X127896904Y-107164285D01*
X127992142Y-107211904D01*
X128039761Y-107259523D01*
X128087380Y-107354761D01*
X128087380Y-107450000D01*
X128039761Y-107545238D01*
X127992142Y-107592857D01*
X127896904Y-107640476D01*
X127706428Y-107688095D01*
X127468333Y-107688095D01*
X127277857Y-107640476D01*
X127182619Y-107592857D01*
X127135000Y-107545238D01*
X127087380Y-107450000D01*
X128087380Y-106688095D02*
X127087380Y-106688095D01*
X127706428Y-106592857D02*
X128087380Y-106307142D01*
X127420714Y-106307142D02*
X127801666Y-106688095D01*
%TO.C,C6*%
X134374047Y-89777619D02*
X134421666Y-89730000D01*
X134516904Y-89682380D01*
X134755000Y-89682380D01*
X134850238Y-89730000D01*
X134897857Y-89777619D01*
X134945476Y-89872857D01*
X134945476Y-89968095D01*
X134897857Y-90110952D01*
X134326428Y-90682380D01*
X134945476Y-90682380D01*
X135374047Y-90587142D02*
X135421666Y-90634761D01*
X135374047Y-90682380D01*
X135326428Y-90634761D01*
X135374047Y-90587142D01*
X135374047Y-90682380D01*
X135802619Y-89777619D02*
X135850238Y-89730000D01*
X135945476Y-89682380D01*
X136183571Y-89682380D01*
X136278809Y-89730000D01*
X136326428Y-89777619D01*
X136374047Y-89872857D01*
X136374047Y-89968095D01*
X136326428Y-90110952D01*
X135755000Y-90682380D01*
X136374047Y-90682380D01*
X137231190Y-90015714D02*
X137231190Y-90682380D01*
X136802619Y-90015714D02*
X136802619Y-90539523D01*
X136850238Y-90634761D01*
X136945476Y-90682380D01*
X137088333Y-90682380D01*
X137183571Y-90634761D01*
X137231190Y-90587142D01*
X138040714Y-90158571D02*
X137707380Y-90158571D01*
X137707380Y-90682380D02*
X137707380Y-89682380D01*
X138183571Y-89682380D01*
%TO.C,U1*%
X149606095Y-107656380D02*
X149606095Y-108465904D01*
X149653714Y-108561142D01*
X149701333Y-108608761D01*
X149796571Y-108656380D01*
X149987047Y-108656380D01*
X150082285Y-108608761D01*
X150129904Y-108561142D01*
X150177523Y-108465904D01*
X150177523Y-107656380D01*
X151177523Y-108656380D02*
X150606095Y-108656380D01*
X150891809Y-108656380D02*
X150891809Y-107656380D01*
X150796571Y-107799238D01*
X150701333Y-107894476D01*
X150606095Y-107942095D01*
%TO.C,U2*%
X139573095Y-95337380D02*
X139573095Y-96146904D01*
X139620714Y-96242142D01*
X139668333Y-96289761D01*
X139763571Y-96337380D01*
X139954047Y-96337380D01*
X140049285Y-96289761D01*
X140096904Y-96242142D01*
X140144523Y-96146904D01*
X140144523Y-95337380D01*
X140573095Y-95432619D02*
X140620714Y-95385000D01*
X140715952Y-95337380D01*
X140954047Y-95337380D01*
X141049285Y-95385000D01*
X141096904Y-95432619D01*
X141144523Y-95527857D01*
X141144523Y-95623095D01*
X141096904Y-95765952D01*
X140525476Y-96337380D01*
X141144523Y-96337380D01*
%TO.C,D2*%
X158636904Y-101417380D02*
X158636904Y-100417380D01*
X158875000Y-100417380D01*
X159017857Y-100465000D01*
X159113095Y-100560238D01*
X159160714Y-100655476D01*
X159208333Y-100845952D01*
X159208333Y-100988809D01*
X159160714Y-101179285D01*
X159113095Y-101274523D01*
X159017857Y-101369761D01*
X158875000Y-101417380D01*
X158636904Y-101417380D01*
X159589285Y-100512619D02*
X159636904Y-100465000D01*
X159732142Y-100417380D01*
X159970238Y-100417380D01*
X160065476Y-100465000D01*
X160113095Y-100512619D01*
X160160714Y-100607857D01*
X160160714Y-100703095D01*
X160113095Y-100845952D01*
X159541666Y-101417380D01*
X160160714Y-101417380D01*
%TO.C,R9*%
X152995476Y-93432380D02*
X153662142Y-93432380D01*
X153233571Y-94432380D01*
X154519285Y-93432380D02*
X154043095Y-93432380D01*
X153995476Y-93908571D01*
X154043095Y-93860952D01*
X154138333Y-93813333D01*
X154376428Y-93813333D01*
X154471666Y-93860952D01*
X154519285Y-93908571D01*
X154566904Y-94003809D01*
X154566904Y-94241904D01*
X154519285Y-94337142D01*
X154471666Y-94384761D01*
X154376428Y-94432380D01*
X154138333Y-94432380D01*
X154043095Y-94384761D01*
X153995476Y-94337142D01*
X155566904Y-94432380D02*
X155233571Y-93956190D01*
X154995476Y-94432380D02*
X154995476Y-93432380D01*
X155376428Y-93432380D01*
X155471666Y-93480000D01*
X155519285Y-93527619D01*
X155566904Y-93622857D01*
X155566904Y-93765714D01*
X155519285Y-93860952D01*
X155471666Y-93908571D01*
X155376428Y-93956190D01*
X154995476Y-93956190D01*
%TO.C,R10*%
X152995476Y-90892380D02*
X153662142Y-90892380D01*
X153233571Y-91892380D01*
X154519285Y-90892380D02*
X154043095Y-90892380D01*
X153995476Y-91368571D01*
X154043095Y-91320952D01*
X154138333Y-91273333D01*
X154376428Y-91273333D01*
X154471666Y-91320952D01*
X154519285Y-91368571D01*
X154566904Y-91463809D01*
X154566904Y-91701904D01*
X154519285Y-91797142D01*
X154471666Y-91844761D01*
X154376428Y-91892380D01*
X154138333Y-91892380D01*
X154043095Y-91844761D01*
X153995476Y-91797142D01*
X155566904Y-91892380D02*
X155233571Y-91416190D01*
X154995476Y-91892380D02*
X154995476Y-90892380D01*
X155376428Y-90892380D01*
X155471666Y-90940000D01*
X155519285Y-90987619D01*
X155566904Y-91082857D01*
X155566904Y-91225714D01*
X155519285Y-91320952D01*
X155471666Y-91368571D01*
X155376428Y-91416190D01*
X154995476Y-91416190D01*
%TO.C,C8*%
X147137380Y-102512619D02*
X147137380Y-103084047D01*
X147137380Y-102798333D02*
X146137380Y-102798333D01*
X146280238Y-102893571D01*
X146375476Y-102988809D01*
X146423095Y-103084047D01*
X146137380Y-101893571D02*
X146137380Y-101798333D01*
X146185000Y-101703095D01*
X146232619Y-101655476D01*
X146327857Y-101607857D01*
X146518333Y-101560238D01*
X146756428Y-101560238D01*
X146946904Y-101607857D01*
X147042142Y-101655476D01*
X147089761Y-101703095D01*
X147137380Y-101798333D01*
X147137380Y-101893571D01*
X147089761Y-101988809D01*
X147042142Y-102036428D01*
X146946904Y-102084047D01*
X146756428Y-102131666D01*
X146518333Y-102131666D01*
X146327857Y-102084047D01*
X146232619Y-102036428D01*
X146185000Y-101988809D01*
X146137380Y-101893571D01*
X146137380Y-100941190D02*
X146137380Y-100845952D01*
X146185000Y-100750714D01*
X146232619Y-100703095D01*
X146327857Y-100655476D01*
X146518333Y-100607857D01*
X146756428Y-100607857D01*
X146946904Y-100655476D01*
X147042142Y-100703095D01*
X147089761Y-100750714D01*
X147137380Y-100845952D01*
X147137380Y-100941190D01*
X147089761Y-101036428D01*
X147042142Y-101084047D01*
X146946904Y-101131666D01*
X146756428Y-101179285D01*
X146518333Y-101179285D01*
X146327857Y-101131666D01*
X146232619Y-101084047D01*
X146185000Y-101036428D01*
X146137380Y-100941190D01*
X146470714Y-99750714D02*
X147137380Y-99750714D01*
X146470714Y-100179285D02*
X146994523Y-100179285D01*
X147089761Y-100131666D01*
X147137380Y-100036428D01*
X147137380Y-99893571D01*
X147089761Y-99798333D01*
X147042142Y-99750714D01*
X146613571Y-98941190D02*
X146613571Y-99274523D01*
X147137380Y-99274523D02*
X146137380Y-99274523D01*
X146137380Y-98798333D01*
%TO.C,R6*%
X135229873Y-88082380D02*
X134658445Y-88082380D01*
X134944159Y-88082380D02*
X134944159Y-87082380D01*
X134848921Y-87225238D01*
X134753683Y-87320476D01*
X134658445Y-87368095D01*
X135848921Y-87082380D02*
X135944159Y-87082380D01*
X136039397Y-87130000D01*
X136087016Y-87177619D01*
X136134635Y-87272857D01*
X136182254Y-87463333D01*
X136182254Y-87701428D01*
X136134635Y-87891904D01*
X136087016Y-87987142D01*
X136039397Y-88034761D01*
X135944159Y-88082380D01*
X135848921Y-88082380D01*
X135753683Y-88034761D01*
X135706064Y-87987142D01*
X135658445Y-87891904D01*
X135610826Y-87701428D01*
X135610826Y-87463333D01*
X135658445Y-87272857D01*
X135706064Y-87177619D01*
X135753683Y-87130000D01*
X135848921Y-87082380D01*
X136610826Y-88082380D02*
X136610826Y-87082380D01*
X136706064Y-87701428D02*
X136991778Y-88082380D01*
X136991778Y-87415714D02*
X136610826Y-87796666D01*
%TO.C,J3*%
X162973095Y-84617380D02*
X162973095Y-83617380D01*
X163354047Y-83617380D01*
X163449285Y-83665000D01*
X163496904Y-83712619D01*
X163544523Y-83807857D01*
X163544523Y-83950714D01*
X163496904Y-84045952D01*
X163449285Y-84093571D01*
X163354047Y-84141190D01*
X162973095Y-84141190D01*
X163973095Y-84617380D02*
X163973095Y-83617380D01*
X163973095Y-84093571D02*
X164544523Y-84093571D01*
X164544523Y-84617380D02*
X164544523Y-83617380D01*
X165211190Y-83617380D02*
X165401666Y-83617380D01*
X165496904Y-83665000D01*
X165592142Y-83760238D01*
X165639761Y-83950714D01*
X165639761Y-84284047D01*
X165592142Y-84474523D01*
X165496904Y-84569761D01*
X165401666Y-84617380D01*
X165211190Y-84617380D01*
X165115952Y-84569761D01*
X165020714Y-84474523D01*
X164973095Y-84284047D01*
X164973095Y-83950714D01*
X165020714Y-83760238D01*
X165115952Y-83665000D01*
X165211190Y-83617380D01*
X166068333Y-84617380D02*
X166068333Y-83617380D01*
X166639761Y-84617380D01*
X166639761Y-83617380D01*
X167115952Y-84093571D02*
X167449285Y-84093571D01*
X167592142Y-84617380D02*
X167115952Y-84617380D01*
X167115952Y-83617380D01*
X167592142Y-83617380D01*
X167973095Y-84569761D02*
X168115952Y-84617380D01*
X168354047Y-84617380D01*
X168449285Y-84569761D01*
X168496904Y-84522142D01*
X168544523Y-84426904D01*
X168544523Y-84331666D01*
X168496904Y-84236428D01*
X168449285Y-84188809D01*
X168354047Y-84141190D01*
X168163571Y-84093571D01*
X168068333Y-84045952D01*
X168020714Y-83998333D01*
X167973095Y-83903095D01*
X167973095Y-83807857D01*
X168020714Y-83712619D01*
X168068333Y-83665000D01*
X168163571Y-83617380D01*
X168401666Y-83617380D01*
X168544523Y-83665000D01*
%TO.C,D3*%
X158646904Y-99512380D02*
X158646904Y-98512380D01*
X158885000Y-98512380D01*
X159027857Y-98560000D01*
X159123095Y-98655238D01*
X159170714Y-98750476D01*
X159218333Y-98940952D01*
X159218333Y-99083809D01*
X159170714Y-99274285D01*
X159123095Y-99369523D01*
X159027857Y-99464761D01*
X158885000Y-99512380D01*
X158646904Y-99512380D01*
X159551666Y-98512380D02*
X160170714Y-98512380D01*
X159837380Y-98893333D01*
X159980238Y-98893333D01*
X160075476Y-98940952D01*
X160123095Y-98988571D01*
X160170714Y-99083809D01*
X160170714Y-99321904D01*
X160123095Y-99417142D01*
X160075476Y-99464761D01*
X159980238Y-99512380D01*
X159694523Y-99512380D01*
X159599285Y-99464761D01*
X159551666Y-99417142D01*
%TO.C,D4*%
X158646904Y-84907380D02*
X158646904Y-83907380D01*
X158885000Y-83907380D01*
X159027857Y-83955000D01*
X159123095Y-84050238D01*
X159170714Y-84145476D01*
X159218333Y-84335952D01*
X159218333Y-84478809D01*
X159170714Y-84669285D01*
X159123095Y-84764523D01*
X159027857Y-84859761D01*
X158885000Y-84907380D01*
X158646904Y-84907380D01*
X160075476Y-84240714D02*
X160075476Y-84907380D01*
X159837380Y-83859761D02*
X159599285Y-84574047D01*
X160218333Y-84574047D01*
%TO.C,R5*%
X139104761Y-101417380D02*
X138533333Y-101417380D01*
X138819047Y-101417380D02*
X138819047Y-100417380D01*
X138723809Y-100560238D01*
X138628571Y-100655476D01*
X138533333Y-100703095D01*
X139723809Y-100417380D02*
X139819047Y-100417380D01*
X139914285Y-100465000D01*
X139961904Y-100512619D01*
X140009523Y-100607857D01*
X140057142Y-100798333D01*
X140057142Y-101036428D01*
X140009523Y-101226904D01*
X139961904Y-101322142D01*
X139914285Y-101369761D01*
X139819047Y-101417380D01*
X139723809Y-101417380D01*
X139628571Y-101369761D01*
X139580952Y-101322142D01*
X139533333Y-101226904D01*
X139485714Y-101036428D01*
X139485714Y-100798333D01*
X139533333Y-100607857D01*
X139580952Y-100512619D01*
X139628571Y-100465000D01*
X139723809Y-100417380D01*
X140485714Y-101417380D02*
X140485714Y-100417380D01*
X140580952Y-101036428D02*
X140866666Y-101417380D01*
X140866666Y-100750714D02*
X140485714Y-101131666D01*
%TO.C,R4*%
X134437619Y-84542380D02*
X135056666Y-84542380D01*
X134723333Y-84923333D01*
X134866190Y-84923333D01*
X134961428Y-84970952D01*
X135009047Y-85018571D01*
X135056666Y-85113809D01*
X135056666Y-85351904D01*
X135009047Y-85447142D01*
X134961428Y-85494761D01*
X134866190Y-85542380D01*
X134580476Y-85542380D01*
X134485238Y-85494761D01*
X134437619Y-85447142D01*
X135485238Y-85447142D02*
X135532857Y-85494761D01*
X135485238Y-85542380D01*
X135437619Y-85494761D01*
X135485238Y-85447142D01*
X135485238Y-85542380D01*
X136009047Y-85542380D02*
X136199523Y-85542380D01*
X136294761Y-85494761D01*
X136342380Y-85447142D01*
X136437619Y-85304285D01*
X136485238Y-85113809D01*
X136485238Y-84732857D01*
X136437619Y-84637619D01*
X136390000Y-84590000D01*
X136294761Y-84542380D01*
X136104285Y-84542380D01*
X136009047Y-84590000D01*
X135961428Y-84637619D01*
X135913809Y-84732857D01*
X135913809Y-84970952D01*
X135961428Y-85066190D01*
X136009047Y-85113809D01*
X136104285Y-85161428D01*
X136294761Y-85161428D01*
X136390000Y-85113809D01*
X136437619Y-85066190D01*
X136485238Y-84970952D01*
X136913809Y-85542380D02*
X136913809Y-84542380D01*
X137009047Y-85161428D02*
X137294761Y-85542380D01*
X137294761Y-84875714D02*
X136913809Y-85256666D01*
%TO.C,C4*%
X141009761Y-103322380D02*
X140438333Y-103322380D01*
X140724047Y-103322380D02*
X140724047Y-102322380D01*
X140628809Y-102465238D01*
X140533571Y-102560476D01*
X140438333Y-102608095D01*
X141866904Y-102655714D02*
X141866904Y-103322380D01*
X141438333Y-102655714D02*
X141438333Y-103179523D01*
X141485952Y-103274761D01*
X141581190Y-103322380D01*
X141724047Y-103322380D01*
X141819285Y-103274761D01*
X141866904Y-103227142D01*
X142676428Y-102798571D02*
X142343095Y-102798571D01*
X142343095Y-103322380D02*
X142343095Y-102322380D01*
X142819285Y-102322380D01*
%TO.C,C3*%
X148121714Y-106179761D02*
X148788380Y-106179761D01*
X147740761Y-106417857D02*
X148455047Y-106655952D01*
X148455047Y-106036904D01*
X148693142Y-105655952D02*
X148740761Y-105608333D01*
X148788380Y-105655952D01*
X148740761Y-105703571D01*
X148693142Y-105655952D01*
X148788380Y-105655952D01*
X147788380Y-105275000D02*
X147788380Y-104608333D01*
X148788380Y-105036904D01*
X148121714Y-103798809D02*
X148788380Y-103798809D01*
X148121714Y-104227380D02*
X148645523Y-104227380D01*
X148740761Y-104179761D01*
X148788380Y-104084523D01*
X148788380Y-103941666D01*
X148740761Y-103846428D01*
X148693142Y-103798809D01*
X148264571Y-102989285D02*
X148264571Y-103322619D01*
X148788380Y-103322619D02*
X147788380Y-103322619D01*
X147788380Y-102846428D01*
%TO.C,J2*%
X130806428Y-114117380D02*
X130806428Y-113117380D01*
X131282619Y-114117380D02*
X131282619Y-113117380D01*
X131854047Y-114117380D01*
X131854047Y-113117380D01*
X132330238Y-114117380D02*
X132330238Y-113117380D01*
X132711190Y-113117380D01*
X132806428Y-113165000D01*
X132854047Y-113212619D01*
X132901666Y-113307857D01*
X132901666Y-113450714D01*
X132854047Y-113545952D01*
X132806428Y-113593571D01*
X132711190Y-113641190D01*
X132330238Y-113641190D01*
X133330238Y-113117380D02*
X133330238Y-113926904D01*
X133377857Y-114022142D01*
X133425476Y-114069761D01*
X133520714Y-114117380D01*
X133711190Y-114117380D01*
X133806428Y-114069761D01*
X133854047Y-114022142D01*
X133901666Y-113926904D01*
X133901666Y-113117380D01*
X134235000Y-113117380D02*
X134806428Y-113117380D01*
X134520714Y-114117380D02*
X134520714Y-113117380D01*
%TO.C,C1*%
X158789761Y-108402380D02*
X158218333Y-108402380D01*
X158504047Y-108402380D02*
X158504047Y-107402380D01*
X158408809Y-107545238D01*
X158313571Y-107640476D01*
X158218333Y-107688095D01*
X159646904Y-107735714D02*
X159646904Y-108402380D01*
X159218333Y-107735714D02*
X159218333Y-108259523D01*
X159265952Y-108354761D01*
X159361190Y-108402380D01*
X159504047Y-108402380D01*
X159599285Y-108354761D01*
X159646904Y-108307142D01*
X160456428Y-107878571D02*
X160123095Y-107878571D01*
X160123095Y-108402380D02*
X160123095Y-107402380D01*
X160599285Y-107402380D01*
%TO.C,R1*%
X141803571Y-110307380D02*
X141232142Y-110307380D01*
X141517857Y-110307380D02*
X141517857Y-109307380D01*
X141422619Y-109450238D01*
X141327380Y-109545476D01*
X141232142Y-109593095D01*
X142422619Y-109307380D02*
X142517857Y-109307380D01*
X142613095Y-109355000D01*
X142660714Y-109402619D01*
X142708333Y-109497857D01*
X142755952Y-109688333D01*
X142755952Y-109926428D01*
X142708333Y-110116904D01*
X142660714Y-110212142D01*
X142613095Y-110259761D01*
X142517857Y-110307380D01*
X142422619Y-110307380D01*
X142327380Y-110259761D01*
X142279761Y-110212142D01*
X142232142Y-110116904D01*
X142184523Y-109926428D01*
X142184523Y-109688333D01*
X142232142Y-109497857D01*
X142279761Y-109402619D01*
X142327380Y-109355000D01*
X142422619Y-109307380D01*
X143375000Y-109307380D02*
X143470238Y-109307380D01*
X143565476Y-109355000D01*
X143613095Y-109402619D01*
X143660714Y-109497857D01*
X143708333Y-109688333D01*
X143708333Y-109926428D01*
X143660714Y-110116904D01*
X143613095Y-110212142D01*
X143565476Y-110259761D01*
X143470238Y-110307380D01*
X143375000Y-110307380D01*
X143279761Y-110259761D01*
X143232142Y-110212142D01*
X143184523Y-110116904D01*
X143136904Y-109926428D01*
X143136904Y-109688333D01*
X143184523Y-109497857D01*
X143232142Y-109402619D01*
X143279761Y-109355000D01*
X143375000Y-109307380D01*
X144136904Y-110307380D02*
X144136904Y-109307380D01*
X144232142Y-109926428D02*
X144517857Y-110307380D01*
X144517857Y-109640714D02*
X144136904Y-110021666D01*
%TO.C,R8*%
X153090714Y-88352380D02*
X153709761Y-88352380D01*
X153376428Y-88733333D01*
X153519285Y-88733333D01*
X153614523Y-88780952D01*
X153662142Y-88828571D01*
X153709761Y-88923809D01*
X153709761Y-89161904D01*
X153662142Y-89257142D01*
X153614523Y-89304761D01*
X153519285Y-89352380D01*
X153233571Y-89352380D01*
X153138333Y-89304761D01*
X153090714Y-89257142D01*
X154043095Y-88352380D02*
X154662142Y-88352380D01*
X154328809Y-88733333D01*
X154471666Y-88733333D01*
X154566904Y-88780952D01*
X154614523Y-88828571D01*
X154662142Y-88923809D01*
X154662142Y-89161904D01*
X154614523Y-89257142D01*
X154566904Y-89304761D01*
X154471666Y-89352380D01*
X154185952Y-89352380D01*
X154090714Y-89304761D01*
X154043095Y-89257142D01*
X155090714Y-89352380D02*
X155090714Y-88352380D01*
X155185952Y-88971428D02*
X155471666Y-89352380D01*
X155471666Y-88685714D02*
X155090714Y-89066666D01*
D12*
%TO.C,R7*%
X158345000Y-96520000D02*
X157575000Y-96520000D01*
X157575000Y-95150000D02*
X151035000Y-95150000D01*
X151035000Y-97890000D02*
X157575000Y-97890000D01*
X157575000Y-97890000D02*
X157575000Y-95150000D01*
X150265000Y-96520000D02*
X151035000Y-96520000D01*
X151035000Y-95150000D02*
X151035000Y-97890000D01*
%TO.C,D5*%
X151390000Y-87280000D02*
X154670000Y-87280000D01*
X151390000Y-85440000D02*
X151390000Y-87280000D01*
X151846000Y-85440000D02*
X151846000Y-87280000D01*
X150210000Y-86360000D02*
X151390000Y-86360000D01*
X152086000Y-85440000D02*
X152086000Y-87280000D01*
X155850000Y-86360000D02*
X154670000Y-86360000D01*
X151966000Y-85440000D02*
X151966000Y-87280000D01*
X154670000Y-87280000D02*
X154670000Y-85440000D01*
X154670000Y-85440000D02*
X151390000Y-85440000D01*
%TO.C,C2*%
X160305000Y-113024000D02*
X160305000Y-111766000D01*
X158465000Y-113024000D02*
X158465000Y-111766000D01*
%TO.C,R12*%
X126465000Y-111220000D02*
X126465000Y-104680000D01*
X123725000Y-104680000D02*
X123725000Y-111220000D01*
X125095000Y-103910000D02*
X125095000Y-104680000D01*
X126465000Y-104680000D02*
X123725000Y-104680000D01*
X125095000Y-111990000D02*
X125095000Y-111220000D01*
X123725000Y-111220000D02*
X126465000Y-111220000D01*
%TO.C,R3*%
X135660000Y-98425000D02*
X136430000Y-98425000D01*
X142970000Y-99795000D02*
X142970000Y-97055000D01*
X143740000Y-98425000D02*
X142970000Y-98425000D01*
X142970000Y-97055000D02*
X136430000Y-97055000D01*
X136430000Y-99795000D02*
X142970000Y-99795000D01*
X136430000Y-97055000D02*
X136430000Y-99795000D01*
%TO.C,C5*%
X139415000Y-91466000D02*
X139415000Y-92724000D01*
X141255000Y-91466000D02*
X141255000Y-92724000D01*
%TO.C,C7*%
X126069000Y-89940000D02*
X126069000Y-88670000D01*
X126389000Y-90072000D02*
X126389000Y-88670000D01*
X125989000Y-86590000D02*
X125989000Y-85362000D01*
X127110000Y-86590000D02*
X127110000Y-85052000D01*
X125189000Y-89235000D02*
X125189000Y-86025000D01*
X126950000Y-86590000D02*
X126950000Y-85065000D01*
X125829000Y-86590000D02*
X125829000Y-85455000D01*
X124909000Y-88808000D02*
X124909000Y-86452000D01*
X126910000Y-86590000D02*
X126910000Y-85069000D01*
X125629000Y-86590000D02*
X125629000Y-85595000D01*
X125269000Y-89329000D02*
X125269000Y-88670000D01*
X127030000Y-86590000D02*
X127030000Y-85057000D01*
X125229000Y-86590000D02*
X125229000Y-85977000D01*
X127030000Y-90203000D02*
X127030000Y-88670000D01*
X126229000Y-86590000D02*
X126229000Y-85248000D01*
X126149000Y-86590000D02*
X126149000Y-85282000D01*
X127190000Y-86590000D02*
X127190000Y-85050000D01*
X125669000Y-89695000D02*
X125669000Y-88670000D01*
X126550000Y-86590000D02*
X126550000Y-85139000D01*
X126429000Y-90085000D02*
X126429000Y-88670000D01*
X126349000Y-86590000D02*
X126349000Y-85202000D01*
X126990000Y-86590000D02*
X126990000Y-85061000D01*
X127230000Y-90210000D02*
X127230000Y-88670000D01*
X124989000Y-88949000D02*
X124989000Y-86311000D01*
X125509000Y-89567000D02*
X125509000Y-88670000D01*
X125469000Y-86590000D02*
X125469000Y-85729000D01*
X125389000Y-86590000D02*
X125389000Y-85804000D01*
X125229000Y-89283000D02*
X125229000Y-88670000D01*
X126790000Y-86590000D02*
X126790000Y-85087000D01*
X125069000Y-89073000D02*
X125069000Y-86187000D01*
X126269000Y-90028000D02*
X126269000Y-88670000D01*
X125709000Y-89725000D02*
X125709000Y-88670000D01*
X127150000Y-86590000D02*
X127150000Y-85051000D01*
X126950000Y-90195000D02*
X126950000Y-88670000D01*
X125749000Y-86590000D02*
X125749000Y-85508000D01*
X130034775Y-89105000D02*
X129534775Y-89105000D01*
X125589000Y-86590000D02*
X125589000Y-85626000D01*
X127230000Y-86590000D02*
X127230000Y-85050000D01*
X125269000Y-86590000D02*
X125269000Y-85931000D01*
X125509000Y-86590000D02*
X125509000Y-85693000D01*
X125149000Y-89184000D02*
X125149000Y-86076000D01*
X125629000Y-89665000D02*
X125629000Y-88670000D01*
X126109000Y-86590000D02*
X126109000Y-85301000D01*
X126990000Y-90199000D02*
X126990000Y-88670000D01*
X124869000Y-88728000D02*
X124869000Y-86532000D01*
X124789000Y-88545000D02*
X124789000Y-86715000D01*
X125909000Y-86590000D02*
X125909000Y-85406000D01*
X125789000Y-89779000D02*
X125789000Y-88670000D01*
X125109000Y-89130000D02*
X125109000Y-86130000D01*
X126469000Y-86590000D02*
X126469000Y-85162000D01*
X126870000Y-86590000D02*
X126870000Y-85074000D01*
X125749000Y-89752000D02*
X125749000Y-88670000D01*
X126550000Y-90121000D02*
X126550000Y-88670000D01*
X126309000Y-86590000D02*
X126309000Y-85216000D01*
X126670000Y-90150000D02*
X126670000Y-88670000D01*
X126469000Y-90098000D02*
X126469000Y-88670000D01*
X125669000Y-86590000D02*
X125669000Y-85565000D01*
X129784775Y-89355000D02*
X129784775Y-88855000D01*
X124749000Y-88435000D02*
X124749000Y-86825000D01*
X125349000Y-86590000D02*
X125349000Y-85845000D01*
X126189000Y-86590000D02*
X126189000Y-85265000D01*
X126509000Y-86590000D02*
X126509000Y-85150000D01*
X125309000Y-86590000D02*
X125309000Y-85887000D01*
X125549000Y-86590000D02*
X125549000Y-85659000D01*
X125309000Y-89373000D02*
X125309000Y-88670000D01*
X126309000Y-90044000D02*
X126309000Y-88670000D01*
X125989000Y-89898000D02*
X125989000Y-88670000D01*
X125909000Y-89854000D02*
X125909000Y-88670000D01*
X126029000Y-89920000D02*
X126029000Y-88670000D01*
X126870000Y-90186000D02*
X126870000Y-88670000D01*
X126029000Y-86590000D02*
X126029000Y-85340000D01*
X125829000Y-89805000D02*
X125829000Y-88670000D01*
X126349000Y-90058000D02*
X126349000Y-88670000D01*
X124829000Y-88641000D02*
X124829000Y-86619000D01*
X127110000Y-90208000D02*
X127110000Y-88670000D01*
X126069000Y-86590000D02*
X126069000Y-85320000D01*
X126710000Y-86590000D02*
X126710000Y-85102000D01*
X125429000Y-86590000D02*
X125429000Y-85766000D01*
X125549000Y-89601000D02*
X125549000Y-88670000D01*
X126630000Y-90141000D02*
X126630000Y-88670000D01*
X124949000Y-88881000D02*
X124949000Y-86379000D01*
X126750000Y-86590000D02*
X126750000Y-85094000D01*
X126830000Y-90180000D02*
X126830000Y-88670000D01*
X127070000Y-86590000D02*
X127070000Y-85054000D01*
X125029000Y-89013000D02*
X125029000Y-86247000D01*
X125589000Y-89634000D02*
X125589000Y-88670000D01*
X126750000Y-90166000D02*
X126750000Y-88670000D01*
X125469000Y-89531000D02*
X125469000Y-88670000D01*
X126670000Y-86590000D02*
X126670000Y-85110000D01*
X126189000Y-89995000D02*
X126189000Y-88670000D01*
X125709000Y-86590000D02*
X125709000Y-85535000D01*
X124709000Y-88307000D02*
X124709000Y-86953000D01*
X125429000Y-89494000D02*
X125429000Y-88670000D01*
X126269000Y-86590000D02*
X126269000Y-85232000D01*
X126389000Y-86590000D02*
X126389000Y-85188000D01*
X125949000Y-89877000D02*
X125949000Y-88670000D01*
X127150000Y-90209000D02*
X127150000Y-88670000D01*
X125869000Y-86590000D02*
X125869000Y-85430000D01*
X126790000Y-90173000D02*
X126790000Y-88670000D01*
X125349000Y-89415000D02*
X125349000Y-88670000D01*
X126630000Y-86590000D02*
X126630000Y-85119000D01*
X124629000Y-87914000D02*
X124629000Y-87346000D01*
X126429000Y-86590000D02*
X126429000Y-85175000D01*
X127190000Y-90210000D02*
X127190000Y-88670000D01*
X126710000Y-90158000D02*
X126710000Y-88670000D01*
X124669000Y-88148000D02*
X124669000Y-87112000D01*
X125389000Y-89456000D02*
X125389000Y-88670000D01*
X126509000Y-90110000D02*
X126509000Y-88670000D01*
X127070000Y-90206000D02*
X127070000Y-88670000D01*
X126229000Y-90012000D02*
X126229000Y-88670000D01*
X126830000Y-86590000D02*
X126830000Y-85080000D01*
X126149000Y-89978000D02*
X126149000Y-88670000D01*
X126109000Y-89959000D02*
X126109000Y-88670000D01*
X126590000Y-86590000D02*
X126590000Y-85129000D01*
X125869000Y-89830000D02*
X125869000Y-88670000D01*
X126910000Y-90191000D02*
X126910000Y-88670000D01*
X126590000Y-90131000D02*
X126590000Y-88670000D01*
X125789000Y-86590000D02*
X125789000Y-85481000D01*
X125949000Y-86590000D02*
X125949000Y-85383000D01*
X129850000Y-87630000D02*
G75*
G03*
X129850000Y-87630000I-2620000J0D01*
G01*
%TO.C,C9*%
X146716000Y-87400000D02*
X146716000Y-88607000D01*
X146115000Y-87400000D02*
X146115000Y-88851000D01*
X146396000Y-83962000D02*
X146396000Y-85320000D01*
X146636000Y-84070000D02*
X146636000Y-85320000D01*
X147156000Y-84423000D02*
X147156000Y-85320000D01*
X146556000Y-84031000D02*
X146556000Y-85320000D01*
X146636000Y-87400000D02*
X146636000Y-88650000D01*
X146356000Y-87400000D02*
X146356000Y-88774000D01*
X145835000Y-83810000D02*
X145835000Y-85320000D01*
X145555000Y-83782000D02*
X145555000Y-88938000D01*
X147836000Y-85349000D02*
X147836000Y-87371000D01*
X146276000Y-87400000D02*
X146276000Y-88802000D01*
X147516000Y-84806000D02*
X147516000Y-85320000D01*
X145595000Y-83784000D02*
X145595000Y-88936000D01*
X146035000Y-87400000D02*
X146035000Y-88871000D01*
X147796000Y-85262000D02*
X147796000Y-87458000D01*
X146115000Y-83869000D02*
X146115000Y-85320000D01*
X146035000Y-83849000D02*
X146035000Y-85320000D01*
X147076000Y-87400000D02*
X147076000Y-88364000D01*
X146196000Y-87400000D02*
X146196000Y-88828000D01*
X146356000Y-83946000D02*
X146356000Y-85320000D01*
X146836000Y-87400000D02*
X146836000Y-88535000D01*
X146676000Y-87400000D02*
X146676000Y-88628000D01*
X145475000Y-83780000D02*
X145475000Y-88940000D01*
X147356000Y-84617000D02*
X147356000Y-85320000D01*
X147676000Y-85041000D02*
X147676000Y-85320000D01*
X147236000Y-87400000D02*
X147236000Y-88224000D01*
X147076000Y-84356000D02*
X147076000Y-85320000D01*
X147916000Y-85555000D02*
X147916000Y-87165000D01*
X147156000Y-87400000D02*
X147156000Y-88297000D01*
X147596000Y-87400000D02*
X147596000Y-87803000D01*
X145715000Y-83795000D02*
X145715000Y-85320000D01*
X146516000Y-84012000D02*
X146516000Y-85320000D01*
X146676000Y-84092000D02*
X146676000Y-85320000D01*
X145875000Y-87400000D02*
X145875000Y-88903000D01*
X146956000Y-84265000D02*
X146956000Y-85320000D01*
X145995000Y-83840000D02*
X145995000Y-85320000D01*
X146796000Y-87400000D02*
X146796000Y-88560000D01*
X147556000Y-84860000D02*
X147556000Y-85320000D01*
X146196000Y-83892000D02*
X146196000Y-85320000D01*
X147436000Y-84707000D02*
X147436000Y-85320000D01*
X142880225Y-84635000D02*
X142880225Y-85135000D01*
X147716000Y-85109000D02*
X147716000Y-85320000D01*
X147436000Y-87400000D02*
X147436000Y-88013000D01*
X145675000Y-87400000D02*
X145675000Y-88929000D01*
X148036000Y-86076000D02*
X148036000Y-86644000D01*
X147996000Y-85842000D02*
X147996000Y-86878000D01*
X147676000Y-87400000D02*
X147676000Y-87679000D01*
X147276000Y-87400000D02*
X147276000Y-88186000D01*
X147476000Y-87400000D02*
X147476000Y-87965000D01*
X146516000Y-87400000D02*
X146516000Y-88708000D01*
X147036000Y-87400000D02*
X147036000Y-88395000D01*
X146236000Y-87400000D02*
X146236000Y-88815000D01*
X145675000Y-83791000D02*
X145675000Y-85320000D01*
X146916000Y-87400000D02*
X146916000Y-88482000D01*
X146276000Y-83918000D02*
X146276000Y-85320000D01*
X147716000Y-87400000D02*
X147716000Y-87611000D01*
X146996000Y-84295000D02*
X146996000Y-85320000D01*
X146556000Y-87400000D02*
X146556000Y-88689000D01*
X147356000Y-87400000D02*
X147356000Y-88103000D01*
X145755000Y-87400000D02*
X145755000Y-88921000D01*
X145635000Y-83787000D02*
X145635000Y-88933000D01*
X147396000Y-84661000D02*
X147396000Y-85320000D01*
X147516000Y-87400000D02*
X147516000Y-87914000D01*
X147636000Y-84977000D02*
X147636000Y-85320000D01*
X146756000Y-87400000D02*
X146756000Y-88584000D01*
X146916000Y-84238000D02*
X146916000Y-85320000D01*
X146156000Y-87400000D02*
X146156000Y-88840000D01*
X146396000Y-87400000D02*
X146396000Y-88758000D01*
X146796000Y-84160000D02*
X146796000Y-85320000D01*
X147036000Y-84325000D02*
X147036000Y-85320000D01*
X145875000Y-83817000D02*
X145875000Y-85320000D01*
X145915000Y-83824000D02*
X145915000Y-85320000D01*
X146756000Y-84136000D02*
X146756000Y-85320000D01*
X146956000Y-87400000D02*
X146956000Y-88455000D01*
X145915000Y-87400000D02*
X145915000Y-88896000D01*
X145835000Y-87400000D02*
X145835000Y-88910000D01*
X147276000Y-84534000D02*
X147276000Y-85320000D01*
X147876000Y-85445000D02*
X147876000Y-87275000D01*
X145715000Y-87400000D02*
X145715000Y-88925000D01*
X146596000Y-84050000D02*
X146596000Y-85320000D01*
X145435000Y-83780000D02*
X145435000Y-88940000D01*
X145515000Y-83781000D02*
X145515000Y-88939000D01*
X146075000Y-83859000D02*
X146075000Y-85320000D01*
X146716000Y-84113000D02*
X146716000Y-85320000D01*
X145995000Y-87400000D02*
X145995000Y-88880000D01*
X147756000Y-85182000D02*
X147756000Y-87538000D01*
X145795000Y-87400000D02*
X145795000Y-88916000D01*
X147116000Y-87400000D02*
X147116000Y-88331000D01*
X147196000Y-84459000D02*
X147196000Y-85320000D01*
X146836000Y-84185000D02*
X146836000Y-85320000D01*
X147956000Y-85683000D02*
X147956000Y-87037000D01*
X147596000Y-84917000D02*
X147596000Y-85320000D01*
X145955000Y-87400000D02*
X145955000Y-88888000D01*
X145795000Y-83804000D02*
X145795000Y-85320000D01*
X147316000Y-87400000D02*
X147316000Y-88145000D01*
X147316000Y-84575000D02*
X147316000Y-85320000D01*
X147396000Y-87400000D02*
X147396000Y-88059000D01*
X145755000Y-83799000D02*
X145755000Y-85320000D01*
X146596000Y-87400000D02*
X146596000Y-88670000D01*
X146436000Y-87400000D02*
X146436000Y-88742000D01*
X146316000Y-83932000D02*
X146316000Y-85320000D01*
X147236000Y-84496000D02*
X147236000Y-85320000D01*
X147476000Y-84755000D02*
X147476000Y-85320000D01*
X146876000Y-84211000D02*
X146876000Y-85320000D01*
X142630225Y-84885000D02*
X143130225Y-84885000D01*
X146876000Y-87400000D02*
X146876000Y-88509000D01*
X147556000Y-87400000D02*
X147556000Y-87860000D01*
X146156000Y-83880000D02*
X146156000Y-85320000D01*
X146236000Y-83905000D02*
X146236000Y-85320000D01*
X146476000Y-83995000D02*
X146476000Y-85320000D01*
X146436000Y-83978000D02*
X146436000Y-85320000D01*
X146476000Y-87400000D02*
X146476000Y-88725000D01*
X147196000Y-87400000D02*
X147196000Y-88261000D01*
X146075000Y-87400000D02*
X146075000Y-88861000D01*
X147636000Y-87400000D02*
X147636000Y-87743000D01*
X146316000Y-87400000D02*
X146316000Y-88788000D01*
X145955000Y-83832000D02*
X145955000Y-85320000D01*
X146996000Y-87400000D02*
X146996000Y-88425000D01*
X147116000Y-84389000D02*
X147116000Y-85320000D01*
X148055000Y-86360000D02*
G75*
G03*
X148055000Y-86360000I-2620000J0D01*
G01*
%TO.C,R2*%
X139605000Y-113765000D02*
X146145000Y-113765000D01*
X146145000Y-111025000D02*
X139605000Y-111025000D01*
X138835000Y-112395000D02*
X139605000Y-112395000D01*
X146915000Y-112395000D02*
X146145000Y-112395000D01*
X139605000Y-111025000D02*
X139605000Y-113765000D01*
X146145000Y-113765000D02*
X146145000Y-111025000D01*
%TO.C,RV1*%
X133190000Y-90885000D02*
X123690000Y-90885000D01*
X133190000Y-100885000D02*
X123690000Y-100885000D01*
X133190000Y-100885000D02*
X133190000Y-90885000D01*
%TO.C,J1*%
X168985000Y-106190000D02*
X168985000Y-113130000D01*
X162485000Y-95150000D02*
X168985000Y-95150000D01*
X168985000Y-102090000D02*
X168985000Y-102090000D01*
X168985000Y-102090000D02*
X170295000Y-102090000D01*
X168985000Y-113130000D02*
X162485000Y-113130000D01*
X170295000Y-106190000D02*
X168985000Y-106190000D01*
X170295000Y-93850000D02*
X170295000Y-114430000D01*
X161175000Y-114430000D02*
X161175000Y-93850000D01*
X161175000Y-93850000D02*
X170295000Y-93850000D01*
X162485000Y-113130000D02*
X162485000Y-95150000D01*
X168985000Y-95150000D02*
X168985000Y-102090000D01*
X170295000Y-114430000D02*
X161175000Y-114430000D01*
%TO.C,R11*%
X129005000Y-111220000D02*
X129005000Y-104680000D01*
X127635000Y-111990000D02*
X127635000Y-111220000D01*
X126265000Y-104680000D02*
X126265000Y-111220000D01*
X129005000Y-104680000D02*
X126265000Y-104680000D01*
X127635000Y-103910000D02*
X127635000Y-104680000D01*
X126265000Y-111220000D02*
X129005000Y-111220000D01*
%TO.C,C6*%
X134294000Y-92940000D02*
X134294000Y-92281000D01*
X135454000Y-96435000D02*
X135454000Y-95020000D01*
X136175000Y-96559000D02*
X136175000Y-95020000D01*
X134934000Y-96204000D02*
X134934000Y-95020000D01*
X133694000Y-94498000D02*
X133694000Y-93462000D01*
X134174000Y-95534000D02*
X134174000Y-92426000D01*
X134974000Y-96227000D02*
X134974000Y-95020000D01*
X135775000Y-96516000D02*
X135775000Y-95020000D01*
X134974000Y-92940000D02*
X134974000Y-91733000D01*
X136215000Y-92940000D02*
X136215000Y-91400000D01*
X134574000Y-92940000D02*
X134574000Y-92009000D01*
X135695000Y-96500000D02*
X135695000Y-95020000D01*
X133814000Y-94895000D02*
X133814000Y-93065000D01*
X136175000Y-92940000D02*
X136175000Y-91401000D01*
X138809775Y-95705000D02*
X138809775Y-95205000D01*
X134094000Y-95423000D02*
X134094000Y-92537000D01*
X134814000Y-92940000D02*
X134814000Y-91831000D01*
X136255000Y-96560000D02*
X136255000Y-95020000D01*
X134734000Y-92940000D02*
X134734000Y-91885000D01*
X136215000Y-96560000D02*
X136215000Y-95020000D01*
X135655000Y-96491000D02*
X135655000Y-95020000D01*
X134654000Y-92940000D02*
X134654000Y-91945000D01*
X134254000Y-95633000D02*
X134254000Y-95020000D01*
X135174000Y-96328000D02*
X135174000Y-95020000D01*
X135935000Y-96541000D02*
X135935000Y-95020000D01*
X134694000Y-92940000D02*
X134694000Y-91915000D01*
X134294000Y-95679000D02*
X134294000Y-95020000D01*
X135615000Y-96481000D02*
X135615000Y-95020000D01*
X135935000Y-92940000D02*
X135935000Y-91419000D01*
X134454000Y-95844000D02*
X134454000Y-95020000D01*
X134254000Y-92940000D02*
X134254000Y-92327000D01*
X135895000Y-92940000D02*
X135895000Y-91424000D01*
X135534000Y-92940000D02*
X135534000Y-91500000D01*
X136135000Y-92940000D02*
X136135000Y-91402000D01*
X135054000Y-96270000D02*
X135054000Y-95020000D01*
X135094000Y-92940000D02*
X135094000Y-91670000D01*
X135655000Y-92940000D02*
X135655000Y-91469000D01*
X135134000Y-96309000D02*
X135134000Y-95020000D01*
X135254000Y-92940000D02*
X135254000Y-91598000D01*
X134134000Y-95480000D02*
X134134000Y-92480000D01*
X134854000Y-96155000D02*
X134854000Y-95020000D01*
X136095000Y-92940000D02*
X136095000Y-91404000D01*
X134534000Y-95917000D02*
X134534000Y-95020000D01*
X135294000Y-96378000D02*
X135294000Y-95020000D01*
X135374000Y-92940000D02*
X135374000Y-91552000D01*
X139059775Y-95455000D02*
X138559775Y-95455000D01*
X134774000Y-92940000D02*
X134774000Y-91858000D01*
X135374000Y-96408000D02*
X135374000Y-95020000D01*
X135294000Y-92940000D02*
X135294000Y-91582000D01*
X135054000Y-92940000D02*
X135054000Y-91690000D01*
X133894000Y-95078000D02*
X133894000Y-92882000D01*
X134854000Y-92940000D02*
X134854000Y-91805000D01*
X136135000Y-96558000D02*
X136135000Y-95020000D01*
X134494000Y-95881000D02*
X134494000Y-95020000D01*
X135134000Y-92940000D02*
X135134000Y-91651000D01*
X135895000Y-96536000D02*
X135895000Y-95020000D01*
X136015000Y-96549000D02*
X136015000Y-95020000D01*
X135735000Y-92940000D02*
X135735000Y-91452000D01*
X133654000Y-94264000D02*
X133654000Y-93696000D01*
X134814000Y-96129000D02*
X134814000Y-95020000D01*
X135414000Y-96422000D02*
X135414000Y-95020000D01*
X134374000Y-92940000D02*
X134374000Y-92195000D01*
X135735000Y-96508000D02*
X135735000Y-95020000D01*
X136055000Y-92940000D02*
X136055000Y-91407000D01*
X135494000Y-92940000D02*
X135494000Y-91512000D01*
X135855000Y-96530000D02*
X135855000Y-95020000D01*
X135534000Y-96460000D02*
X135534000Y-95020000D01*
X135775000Y-92940000D02*
X135775000Y-91444000D01*
X134614000Y-95984000D02*
X134614000Y-95020000D01*
X136055000Y-96553000D02*
X136055000Y-95020000D01*
X135014000Y-92940000D02*
X135014000Y-91712000D01*
X135695000Y-92940000D02*
X135695000Y-91460000D01*
X135975000Y-96545000D02*
X135975000Y-95020000D01*
X136255000Y-92940000D02*
X136255000Y-91400000D01*
X134494000Y-92940000D02*
X134494000Y-92079000D01*
X135214000Y-92940000D02*
X135214000Y-91615000D01*
X135975000Y-92940000D02*
X135975000Y-91415000D01*
X134574000Y-95951000D02*
X134574000Y-95020000D01*
X133974000Y-95231000D02*
X133974000Y-92729000D01*
X135815000Y-92940000D02*
X135815000Y-91437000D01*
X135615000Y-92940000D02*
X135615000Y-91479000D01*
X135214000Y-96345000D02*
X135214000Y-95020000D01*
X134054000Y-95363000D02*
X134054000Y-92597000D01*
X134414000Y-92940000D02*
X134414000Y-92154000D01*
X135334000Y-92940000D02*
X135334000Y-91566000D01*
X135855000Y-92940000D02*
X135855000Y-91430000D01*
X135254000Y-96362000D02*
X135254000Y-95020000D01*
X134534000Y-92940000D02*
X134534000Y-92043000D01*
X134334000Y-95723000D02*
X134334000Y-95020000D01*
X134654000Y-96015000D02*
X134654000Y-95020000D01*
X133854000Y-94991000D02*
X133854000Y-92969000D01*
X135334000Y-96394000D02*
X135334000Y-95020000D01*
X134374000Y-95765000D02*
X134374000Y-95020000D01*
X134614000Y-92940000D02*
X134614000Y-91976000D01*
X134694000Y-96045000D02*
X134694000Y-95020000D01*
X134734000Y-96075000D02*
X134734000Y-95020000D01*
X134014000Y-95299000D02*
X134014000Y-92661000D01*
X136015000Y-92940000D02*
X136015000Y-91411000D01*
X135575000Y-92940000D02*
X135575000Y-91489000D01*
X135414000Y-92940000D02*
X135414000Y-91538000D01*
X136095000Y-96556000D02*
X136095000Y-95020000D01*
X134454000Y-92940000D02*
X134454000Y-92116000D01*
X135094000Y-96290000D02*
X135094000Y-95020000D01*
X134894000Y-96180000D02*
X134894000Y-95020000D01*
X135815000Y-96523000D02*
X135815000Y-95020000D01*
X135575000Y-96471000D02*
X135575000Y-95020000D01*
X133774000Y-94785000D02*
X133774000Y-93175000D01*
X133934000Y-95158000D02*
X133934000Y-92802000D01*
X135454000Y-92940000D02*
X135454000Y-91525000D01*
X135494000Y-96448000D02*
X135494000Y-95020000D01*
X135174000Y-92940000D02*
X135174000Y-91632000D01*
X134334000Y-92940000D02*
X134334000Y-92237000D01*
X133734000Y-94657000D02*
X133734000Y-93303000D01*
X134414000Y-95806000D02*
X134414000Y-95020000D01*
X135014000Y-96248000D02*
X135014000Y-95020000D01*
X134894000Y-92940000D02*
X134894000Y-91780000D01*
X134934000Y-92940000D02*
X134934000Y-91756000D01*
X134214000Y-95585000D02*
X134214000Y-92375000D01*
X134774000Y-96102000D02*
X134774000Y-95020000D01*
X138875000Y-93980000D02*
G75*
G03*
X138875000Y-93980000I-2620000J0D01*
G01*
%TO.C,U1*%
X151760000Y-114535000D02*
X151760000Y-113275000D01*
X151760000Y-107715000D02*
X151760000Y-108975000D01*
X155520000Y-107715000D02*
X151760000Y-107715000D01*
X157770000Y-114535000D02*
X151760000Y-114535000D01*
%TO.C,U2*%
X146705000Y-93345000D02*
X146705000Y-91395000D01*
X146705000Y-93345000D02*
X146705000Y-95295000D01*
X141585000Y-93345000D02*
X141585000Y-96795000D01*
X141585000Y-93345000D02*
X141585000Y-91395000D01*
%TO.C,D2*%
X154219000Y-101885000D02*
X154219000Y-100045000D01*
X151395000Y-101885000D02*
X154675000Y-101885000D01*
X151395000Y-100045000D02*
X151395000Y-101885000D01*
X154675000Y-100045000D02*
X151395000Y-100045000D01*
X150215000Y-100965000D02*
X151395000Y-100965000D01*
X154675000Y-101885000D02*
X154675000Y-100045000D01*
X154099000Y-101885000D02*
X154099000Y-100045000D01*
X155855000Y-100965000D02*
X154675000Y-100965000D01*
X153979000Y-101885000D02*
X153979000Y-100045000D01*
%TO.C,R9*%
X150265000Y-93980000D02*
X151035000Y-93980000D01*
X157575000Y-92610000D02*
X151035000Y-92610000D01*
X151035000Y-92610000D02*
X151035000Y-95350000D01*
X158345000Y-93980000D02*
X157575000Y-93980000D01*
X151035000Y-95350000D02*
X157575000Y-95350000D01*
X157575000Y-95350000D02*
X157575000Y-92610000D01*
%TO.C,R10*%
X157575000Y-92810000D02*
X157575000Y-90070000D01*
X157575000Y-90070000D02*
X151035000Y-90070000D01*
X150265000Y-91440000D02*
X151035000Y-91440000D01*
X151035000Y-92810000D02*
X157575000Y-92810000D01*
X151035000Y-90070000D02*
X151035000Y-92810000D01*
X158345000Y-91440000D02*
X157575000Y-91440000D01*
%TO.C,C8*%
X147041000Y-104159000D02*
X147041000Y-104370000D01*
X145240000Y-106450000D02*
X145240000Y-107946000D01*
X145481000Y-106450000D02*
X145481000Y-107890000D01*
X146001000Y-103142000D02*
X146001000Y-104370000D01*
X144960000Y-102837000D02*
X144960000Y-107983000D01*
X146721000Y-106450000D02*
X146721000Y-107109000D01*
X145080000Y-106450000D02*
X145080000Y-107971000D01*
X146081000Y-103186000D02*
X146081000Y-104370000D01*
X146681000Y-106450000D02*
X146681000Y-107153000D01*
X144880000Y-102832000D02*
X144880000Y-107988000D01*
X146561000Y-106450000D02*
X146561000Y-107274000D01*
X145721000Y-106450000D02*
X145721000Y-107808000D01*
X146441000Y-103439000D02*
X146441000Y-104370000D01*
X146921000Y-106450000D02*
X146921000Y-106853000D01*
X147001000Y-106450000D02*
X147001000Y-106729000D01*
X146041000Y-106450000D02*
X146041000Y-107657000D01*
X146801000Y-103805000D02*
X146801000Y-104370000D01*
X145000000Y-102841000D02*
X145000000Y-104370000D01*
X146641000Y-103625000D02*
X146641000Y-104370000D01*
X145080000Y-102849000D02*
X145080000Y-104370000D01*
X147241000Y-104605000D02*
X147241000Y-106215000D01*
X145801000Y-103045000D02*
X145801000Y-104370000D01*
X145681000Y-106450000D02*
X145681000Y-107824000D01*
X145360000Y-102899000D02*
X145360000Y-104370000D01*
X146881000Y-106450000D02*
X146881000Y-106910000D01*
X145320000Y-102890000D02*
X145320000Y-104370000D01*
X147081000Y-104232000D02*
X147081000Y-106588000D01*
X146321000Y-103345000D02*
X146321000Y-104370000D01*
X146841000Y-106450000D02*
X146841000Y-106964000D01*
X145841000Y-106450000D02*
X145841000Y-107758000D01*
X145561000Y-106450000D02*
X145561000Y-107865000D01*
X141955225Y-103935000D02*
X142455225Y-103935000D01*
X146201000Y-103261000D02*
X146201000Y-104370000D01*
X146841000Y-103856000D02*
X146841000Y-104370000D01*
X146761000Y-106450000D02*
X146761000Y-107063000D01*
X145641000Y-106450000D02*
X145641000Y-107838000D01*
X145280000Y-102882000D02*
X145280000Y-104370000D01*
X145200000Y-106450000D02*
X145200000Y-107953000D01*
X147161000Y-104399000D02*
X147161000Y-106421000D01*
X146281000Y-103315000D02*
X146281000Y-104370000D01*
X145721000Y-103012000D02*
X145721000Y-104370000D01*
X147001000Y-104091000D02*
X147001000Y-104370000D01*
X145961000Y-106450000D02*
X145961000Y-107700000D01*
X147201000Y-104495000D02*
X147201000Y-106325000D01*
X145601000Y-106450000D02*
X145601000Y-107852000D01*
X145120000Y-106450000D02*
X145120000Y-107966000D01*
X145801000Y-106450000D02*
X145801000Y-107775000D01*
X146041000Y-103163000D02*
X146041000Y-104370000D01*
X145040000Y-106450000D02*
X145040000Y-107975000D01*
X145040000Y-102845000D02*
X145040000Y-104370000D01*
X146641000Y-106450000D02*
X146641000Y-107195000D01*
X145921000Y-106450000D02*
X145921000Y-107720000D01*
X145641000Y-102982000D02*
X145641000Y-104370000D01*
X146241000Y-106450000D02*
X146241000Y-107532000D01*
X146361000Y-106450000D02*
X146361000Y-107445000D01*
X146361000Y-103375000D02*
X146361000Y-104370000D01*
X145280000Y-106450000D02*
X145280000Y-107938000D01*
X146961000Y-106450000D02*
X146961000Y-106793000D01*
X146281000Y-106450000D02*
X146281000Y-107505000D01*
X145360000Y-106450000D02*
X145360000Y-107921000D01*
X146241000Y-103288000D02*
X146241000Y-104370000D01*
X145481000Y-102930000D02*
X145481000Y-104370000D01*
X145761000Y-103028000D02*
X145761000Y-104370000D01*
X147121000Y-104312000D02*
X147121000Y-106508000D01*
X146561000Y-103546000D02*
X146561000Y-104370000D01*
X146161000Y-106450000D02*
X146161000Y-107585000D01*
X146601000Y-106450000D02*
X146601000Y-107236000D01*
X146161000Y-103235000D02*
X146161000Y-104370000D01*
X145120000Y-102854000D02*
X145120000Y-104370000D01*
X146121000Y-103210000D02*
X146121000Y-104370000D01*
X145440000Y-106450000D02*
X145440000Y-107901000D01*
X145521000Y-102942000D02*
X145521000Y-104370000D01*
X145881000Y-103081000D02*
X145881000Y-104370000D01*
X145881000Y-106450000D02*
X145881000Y-107739000D01*
X147361000Y-105126000D02*
X147361000Y-105694000D01*
X147281000Y-104733000D02*
X147281000Y-106087000D01*
X146761000Y-103757000D02*
X146761000Y-104370000D01*
X146001000Y-106450000D02*
X146001000Y-107678000D01*
X145841000Y-103062000D02*
X145841000Y-104370000D01*
X146521000Y-103509000D02*
X146521000Y-104370000D01*
X145400000Y-106450000D02*
X145400000Y-107911000D01*
X145240000Y-102874000D02*
X145240000Y-104370000D01*
X146881000Y-103910000D02*
X146881000Y-104370000D01*
X146401000Y-106450000D02*
X146401000Y-107414000D01*
X146121000Y-106450000D02*
X146121000Y-107610000D01*
X145400000Y-102909000D02*
X145400000Y-104370000D01*
X145681000Y-102996000D02*
X145681000Y-104370000D01*
X145320000Y-106450000D02*
X145320000Y-107930000D01*
X146081000Y-106450000D02*
X146081000Y-107634000D01*
X146401000Y-103406000D02*
X146401000Y-104370000D01*
X145601000Y-102968000D02*
X145601000Y-104370000D01*
X146481000Y-106450000D02*
X146481000Y-107347000D01*
X147041000Y-106450000D02*
X147041000Y-106661000D01*
X144920000Y-102834000D02*
X144920000Y-107986000D01*
X146921000Y-103967000D02*
X146921000Y-104370000D01*
X145160000Y-106450000D02*
X145160000Y-107960000D01*
X146201000Y-106450000D02*
X146201000Y-107559000D01*
X145200000Y-102867000D02*
X145200000Y-104370000D01*
X146601000Y-103584000D02*
X146601000Y-104370000D01*
X146481000Y-103473000D02*
X146481000Y-104370000D01*
X145521000Y-106450000D02*
X145521000Y-107878000D01*
X145440000Y-102919000D02*
X145440000Y-104370000D01*
X145961000Y-103120000D02*
X145961000Y-104370000D01*
X145561000Y-102955000D02*
X145561000Y-104370000D01*
X146441000Y-106450000D02*
X146441000Y-107381000D01*
X144760000Y-102830000D02*
X144760000Y-107990000D01*
X145761000Y-106450000D02*
X145761000Y-107792000D01*
X146681000Y-103667000D02*
X146681000Y-104370000D01*
X144800000Y-102830000D02*
X144800000Y-107990000D01*
X147321000Y-104892000D02*
X147321000Y-105928000D01*
X146321000Y-106450000D02*
X146321000Y-107475000D01*
X146521000Y-106450000D02*
X146521000Y-107311000D01*
X145921000Y-103100000D02*
X145921000Y-104370000D01*
X146721000Y-103711000D02*
X146721000Y-104370000D01*
X146801000Y-106450000D02*
X146801000Y-107015000D01*
X146961000Y-104027000D02*
X146961000Y-104370000D01*
X144840000Y-102831000D02*
X144840000Y-107989000D01*
X142205225Y-103685000D02*
X142205225Y-104185000D01*
X145160000Y-102860000D02*
X145160000Y-104370000D01*
X145000000Y-106450000D02*
X145000000Y-107979000D01*
X147380000Y-105410000D02*
G75*
G03*
X147380000Y-105410000I-2620000J0D01*
G01*
%TO.C,R6*%
X132620000Y-86260000D02*
X132620000Y-89000000D01*
X132620000Y-89000000D02*
X139160000Y-89000000D01*
X131850000Y-87630000D02*
X132620000Y-87630000D01*
X139930000Y-87630000D02*
X139160000Y-87630000D01*
X139160000Y-86260000D02*
X132620000Y-86260000D01*
X139160000Y-89000000D02*
X139160000Y-86260000D01*
%TO.C,J3*%
X167475000Y-90675000D02*
X167475000Y-91275000D01*
X163445000Y-85255000D02*
X163445000Y-86255000D01*
X169075000Y-90675000D02*
X167475000Y-90675000D01*
X161815000Y-91275000D02*
X169655000Y-91275000D01*
X168275000Y-85255000D02*
X168275000Y-86255000D01*
X169075000Y-91275000D02*
X169075000Y-90675000D01*
X161815000Y-85255000D02*
X161815000Y-91275000D01*
X163995000Y-90675000D02*
X162395000Y-90675000D01*
X163445000Y-86785000D02*
X163195000Y-86255000D01*
X169945000Y-90245000D02*
X169945000Y-86245000D01*
X168025000Y-85255000D02*
X168025000Y-86255000D01*
X168275000Y-86255000D02*
X163195000Y-86255000D01*
X166535000Y-91275000D02*
X166535000Y-90675000D01*
X163195000Y-86255000D02*
X163195000Y-85255000D01*
X169655000Y-91275000D02*
X169655000Y-85255000D01*
X169655000Y-85255000D02*
X161815000Y-85255000D01*
X166535000Y-90675000D02*
X164935000Y-90675000D01*
X168275000Y-86255000D02*
X168025000Y-86785000D01*
X163995000Y-91275000D02*
X163995000Y-90675000D01*
X168025000Y-86785000D02*
X163445000Y-86785000D01*
X162395000Y-90675000D02*
X162395000Y-91275000D01*
X164935000Y-90675000D02*
X164935000Y-91275000D01*
%TO.C,D3*%
X154675000Y-98140000D02*
X151395000Y-98140000D01*
X152091000Y-98140000D02*
X152091000Y-99980000D01*
X155855000Y-99060000D02*
X154675000Y-99060000D01*
X151851000Y-98140000D02*
X151851000Y-99980000D01*
X151971000Y-98140000D02*
X151971000Y-99980000D01*
X150215000Y-99060000D02*
X151395000Y-99060000D01*
X151395000Y-98140000D02*
X151395000Y-99980000D01*
X154675000Y-99980000D02*
X154675000Y-98140000D01*
X151395000Y-99980000D02*
X154675000Y-99980000D01*
%TO.C,D4*%
X154675000Y-85375000D02*
X154675000Y-83535000D01*
X154219000Y-85375000D02*
X154219000Y-83535000D01*
X154675000Y-83535000D02*
X151395000Y-83535000D01*
X153979000Y-85375000D02*
X153979000Y-83535000D01*
X155855000Y-84455000D02*
X154675000Y-84455000D01*
X151395000Y-85375000D02*
X154675000Y-85375000D01*
X150215000Y-84455000D02*
X151395000Y-84455000D01*
X151395000Y-83535000D02*
X151395000Y-85375000D01*
X154099000Y-85375000D02*
X154099000Y-83535000D01*
%TO.C,R5*%
X142970000Y-102335000D02*
X142970000Y-99595000D01*
X135660000Y-100965000D02*
X136430000Y-100965000D01*
X136430000Y-99595000D02*
X136430000Y-102335000D01*
X143740000Y-100965000D02*
X142970000Y-100965000D01*
X136430000Y-102335000D02*
X142970000Y-102335000D01*
X142970000Y-99595000D02*
X136430000Y-99595000D01*
%TO.C,R4*%
X132620000Y-86460000D02*
X139160000Y-86460000D01*
X139930000Y-85090000D02*
X139160000Y-85090000D01*
X131850000Y-85090000D02*
X132620000Y-85090000D01*
X139160000Y-86460000D02*
X139160000Y-83720000D01*
X132620000Y-83720000D02*
X132620000Y-86460000D01*
X139160000Y-83720000D02*
X132620000Y-83720000D01*
%TO.C,C4*%
X139195000Y-106450000D02*
X139195000Y-107960000D01*
X140916000Y-103910000D02*
X140916000Y-106910000D01*
X139956000Y-106450000D02*
X139956000Y-107720000D01*
X140036000Y-103142000D02*
X140036000Y-104370000D01*
X140356000Y-103345000D02*
X140356000Y-104370000D01*
X138835000Y-106450000D02*
X138835000Y-107990000D01*
X140156000Y-103210000D02*
X140156000Y-104370000D01*
X140076000Y-106450000D02*
X140076000Y-107657000D01*
X140636000Y-106450000D02*
X140636000Y-107236000D01*
X139596000Y-106450000D02*
X139596000Y-107865000D01*
X140116000Y-106450000D02*
X140116000Y-107634000D01*
X138955000Y-102834000D02*
X138955000Y-104370000D01*
X139275000Y-102874000D02*
X139275000Y-104370000D01*
X138915000Y-102832000D02*
X138915000Y-104370000D01*
X139435000Y-102909000D02*
X139435000Y-104370000D01*
X139916000Y-103081000D02*
X139916000Y-104370000D01*
X138795000Y-106450000D02*
X138795000Y-107990000D01*
X139636000Y-106450000D02*
X139636000Y-107852000D01*
X140836000Y-103805000D02*
X140836000Y-107015000D01*
X140436000Y-103406000D02*
X140436000Y-104370000D01*
X139195000Y-102860000D02*
X139195000Y-104370000D01*
X138875000Y-102831000D02*
X138875000Y-104370000D01*
X139676000Y-102982000D02*
X139676000Y-104370000D01*
X139556000Y-106450000D02*
X139556000Y-107878000D01*
X140196000Y-106450000D02*
X140196000Y-107585000D01*
X139876000Y-106450000D02*
X139876000Y-107758000D01*
X140876000Y-103856000D02*
X140876000Y-106964000D01*
X138795000Y-102830000D02*
X138795000Y-104370000D01*
X139916000Y-106450000D02*
X139916000Y-107739000D01*
X139876000Y-103062000D02*
X139876000Y-104370000D01*
X140276000Y-106450000D02*
X140276000Y-107532000D01*
X139035000Y-106450000D02*
X139035000Y-107979000D01*
X140116000Y-103186000D02*
X140116000Y-104370000D01*
X139315000Y-106450000D02*
X139315000Y-107938000D01*
X139355000Y-102890000D02*
X139355000Y-104370000D01*
X138875000Y-106450000D02*
X138875000Y-107989000D01*
X139475000Y-106450000D02*
X139475000Y-107901000D01*
X140676000Y-106450000D02*
X140676000Y-107195000D01*
X136240225Y-103685000D02*
X136240225Y-104185000D01*
X139836000Y-103045000D02*
X139836000Y-104370000D01*
X140276000Y-103288000D02*
X140276000Y-104370000D01*
X139075000Y-106450000D02*
X139075000Y-107975000D01*
X138995000Y-106450000D02*
X138995000Y-107983000D01*
X139596000Y-102955000D02*
X139596000Y-104370000D01*
X140236000Y-106450000D02*
X140236000Y-107559000D01*
X139155000Y-102854000D02*
X139155000Y-104370000D01*
X141396000Y-105126000D02*
X141396000Y-105694000D01*
X139956000Y-103100000D02*
X139956000Y-104370000D01*
X141316000Y-104733000D02*
X141316000Y-106087000D01*
X141116000Y-104232000D02*
X141116000Y-106588000D01*
X139395000Y-106450000D02*
X139395000Y-107921000D01*
X140596000Y-106450000D02*
X140596000Y-107274000D01*
X140396000Y-103375000D02*
X140396000Y-104370000D01*
X140956000Y-103967000D02*
X140956000Y-106853000D01*
X139155000Y-106450000D02*
X139155000Y-107966000D01*
X141236000Y-104495000D02*
X141236000Y-106325000D01*
X139395000Y-102899000D02*
X139395000Y-104370000D01*
X138835000Y-102830000D02*
X138835000Y-104370000D01*
X140516000Y-106450000D02*
X140516000Y-107347000D01*
X139075000Y-102845000D02*
X139075000Y-104370000D01*
X140596000Y-103546000D02*
X140596000Y-104370000D01*
X140636000Y-103584000D02*
X140636000Y-104370000D01*
X139115000Y-102849000D02*
X139115000Y-104370000D01*
X140076000Y-103163000D02*
X140076000Y-104370000D01*
X140236000Y-103261000D02*
X140236000Y-104370000D01*
X139516000Y-106450000D02*
X139516000Y-107890000D01*
X139996000Y-103120000D02*
X139996000Y-104370000D01*
X135990225Y-103935000D02*
X136490225Y-103935000D01*
X139435000Y-106450000D02*
X139435000Y-107911000D01*
X139115000Y-106450000D02*
X139115000Y-107971000D01*
X139235000Y-106450000D02*
X139235000Y-107953000D01*
X140556000Y-106450000D02*
X140556000Y-107311000D01*
X139996000Y-106450000D02*
X139996000Y-107700000D01*
X140556000Y-103509000D02*
X140556000Y-104370000D01*
X138915000Y-106450000D02*
X138915000Y-107988000D01*
X139676000Y-106450000D02*
X139676000Y-107838000D01*
X138955000Y-106450000D02*
X138955000Y-107986000D01*
X140756000Y-106450000D02*
X140756000Y-107109000D01*
X139035000Y-102841000D02*
X139035000Y-104370000D01*
X140316000Y-103315000D02*
X140316000Y-104370000D01*
X139756000Y-106450000D02*
X139756000Y-107808000D01*
X140716000Y-103667000D02*
X140716000Y-104370000D01*
X140516000Y-103473000D02*
X140516000Y-104370000D01*
X140036000Y-106450000D02*
X140036000Y-107678000D01*
X141356000Y-104892000D02*
X141356000Y-105928000D01*
X140476000Y-103439000D02*
X140476000Y-104370000D01*
X140356000Y-106450000D02*
X140356000Y-107475000D01*
X139636000Y-102968000D02*
X139636000Y-104370000D01*
X140156000Y-106450000D02*
X140156000Y-107610000D01*
X139836000Y-106450000D02*
X139836000Y-107775000D01*
X140996000Y-104027000D02*
X140996000Y-106793000D01*
X140436000Y-106450000D02*
X140436000Y-107414000D01*
X141196000Y-104399000D02*
X141196000Y-106421000D01*
X139475000Y-102919000D02*
X139475000Y-104370000D01*
X140196000Y-103235000D02*
X140196000Y-104370000D01*
X139355000Y-106450000D02*
X139355000Y-107930000D01*
X139235000Y-102867000D02*
X139235000Y-104370000D01*
X139315000Y-102882000D02*
X139315000Y-104370000D01*
X140716000Y-106450000D02*
X140716000Y-107153000D01*
X140396000Y-106450000D02*
X140396000Y-107445000D01*
X141276000Y-104605000D02*
X141276000Y-106215000D01*
X139275000Y-106450000D02*
X139275000Y-107946000D01*
X141036000Y-104091000D02*
X141036000Y-106729000D01*
X140476000Y-106450000D02*
X140476000Y-107381000D01*
X141076000Y-104159000D02*
X141076000Y-106661000D01*
X140316000Y-106450000D02*
X140316000Y-107505000D01*
X140796000Y-106450000D02*
X140796000Y-107063000D01*
X139756000Y-103012000D02*
X139756000Y-104370000D01*
X139716000Y-106450000D02*
X139716000Y-107824000D01*
X139516000Y-102930000D02*
X139516000Y-104370000D01*
X139556000Y-102942000D02*
X139556000Y-104370000D01*
X138995000Y-102837000D02*
X138995000Y-104370000D01*
X140756000Y-103711000D02*
X140756000Y-104370000D01*
X140676000Y-103625000D02*
X140676000Y-104370000D01*
X140796000Y-103757000D02*
X140796000Y-104370000D01*
X139796000Y-103028000D02*
X139796000Y-104370000D01*
X139796000Y-106450000D02*
X139796000Y-107792000D01*
X139716000Y-102996000D02*
X139716000Y-104370000D01*
X141156000Y-104312000D02*
X141156000Y-106508000D01*
X141415000Y-105410000D02*
G75*
G03*
X141415000Y-105410000I-2620000J0D01*
G01*
%TO.C,C3*%
X152216000Y-105815000D02*
X152216000Y-107255000D01*
X153216000Y-102838000D02*
X153216000Y-103735000D01*
X151695000Y-105815000D02*
X151695000Y-107348000D01*
X152456000Y-105815000D02*
X152456000Y-107173000D01*
X152416000Y-102361000D02*
X152416000Y-103735000D01*
X152135000Y-105815000D02*
X152135000Y-107276000D01*
X151735000Y-102206000D02*
X151735000Y-103735000D01*
X153376000Y-102990000D02*
X153376000Y-103735000D01*
X153576000Y-103221000D02*
X153576000Y-106329000D01*
X153016000Y-102680000D02*
X153016000Y-103735000D01*
X152135000Y-102274000D02*
X152135000Y-103735000D01*
X153936000Y-103860000D02*
X153936000Y-105690000D01*
X152896000Y-105815000D02*
X152896000Y-106950000D01*
X151655000Y-105815000D02*
X151655000Y-107351000D01*
X152576000Y-105815000D02*
X152576000Y-107123000D01*
X153336000Y-102949000D02*
X153336000Y-103735000D01*
X153176000Y-105815000D02*
X153176000Y-106746000D01*
X153616000Y-103275000D02*
X153616000Y-106275000D01*
X151535000Y-102195000D02*
X151535000Y-103735000D01*
X153256000Y-102874000D02*
X153256000Y-103735000D01*
X152856000Y-102575000D02*
X152856000Y-103735000D01*
X152776000Y-102528000D02*
X152776000Y-103735000D01*
X151655000Y-102199000D02*
X151655000Y-103735000D01*
X151895000Y-102225000D02*
X151895000Y-103735000D01*
X152936000Y-105815000D02*
X152936000Y-106924000D01*
X153176000Y-102804000D02*
X153176000Y-103735000D01*
X152616000Y-102446000D02*
X152616000Y-103735000D01*
X152616000Y-105815000D02*
X152616000Y-107104000D01*
X153016000Y-105815000D02*
X153016000Y-106870000D01*
X152496000Y-102393000D02*
X152496000Y-103735000D01*
X148940225Y-103050000D02*
X148940225Y-103550000D01*
X151615000Y-105815000D02*
X151615000Y-107353000D01*
X154096000Y-104491000D02*
X154096000Y-105059000D01*
X153416000Y-105815000D02*
X153416000Y-106518000D01*
X151575000Y-102196000D02*
X151575000Y-103735000D01*
X152216000Y-102295000D02*
X152216000Y-103735000D01*
X153856000Y-103677000D02*
X153856000Y-105873000D01*
X151615000Y-102197000D02*
X151615000Y-103735000D01*
X152936000Y-102626000D02*
X152936000Y-103735000D01*
X152175000Y-102284000D02*
X152175000Y-103735000D01*
X153776000Y-103524000D02*
X153776000Y-106026000D01*
X152536000Y-102410000D02*
X152536000Y-103735000D01*
X153096000Y-102740000D02*
X153096000Y-103735000D01*
X153816000Y-103597000D02*
X153816000Y-105953000D01*
X152055000Y-105815000D02*
X152055000Y-107295000D01*
X154056000Y-104257000D02*
X154056000Y-105293000D01*
X153056000Y-102710000D02*
X153056000Y-103735000D01*
X153456000Y-105815000D02*
X153456000Y-106474000D01*
X151895000Y-105815000D02*
X151895000Y-107325000D01*
X153336000Y-105815000D02*
X153336000Y-106601000D01*
X153976000Y-103970000D02*
X153976000Y-105580000D01*
X151935000Y-105815000D02*
X151935000Y-107318000D01*
X151735000Y-105815000D02*
X151735000Y-107344000D01*
X153496000Y-103122000D02*
X153496000Y-103735000D01*
X153696000Y-103392000D02*
X153696000Y-106158000D01*
X152736000Y-102507000D02*
X152736000Y-103735000D01*
X152856000Y-105815000D02*
X152856000Y-106975000D01*
X152896000Y-102600000D02*
X152896000Y-103735000D01*
X152376000Y-102347000D02*
X152376000Y-103735000D01*
X152296000Y-105815000D02*
X152296000Y-107230000D01*
X152536000Y-105815000D02*
X152536000Y-107140000D01*
X148690225Y-103300000D02*
X149190225Y-103300000D01*
X151695000Y-102202000D02*
X151695000Y-103735000D01*
X151975000Y-102239000D02*
X151975000Y-103735000D01*
X152296000Y-102320000D02*
X152296000Y-103735000D01*
X153056000Y-105815000D02*
X153056000Y-106840000D01*
X152976000Y-102653000D02*
X152976000Y-103735000D01*
X151935000Y-102232000D02*
X151935000Y-103735000D01*
X151575000Y-105815000D02*
X151575000Y-107354000D01*
X153296000Y-102911000D02*
X153296000Y-103735000D01*
X152376000Y-105815000D02*
X152376000Y-107203000D01*
X153656000Y-103332000D02*
X153656000Y-106218000D01*
X151775000Y-105815000D02*
X151775000Y-107340000D01*
X153736000Y-103456000D02*
X153736000Y-106094000D01*
X151495000Y-105815000D02*
X151495000Y-107355000D01*
X152416000Y-105815000D02*
X152416000Y-107189000D01*
X154016000Y-104098000D02*
X154016000Y-105452000D01*
X152055000Y-102255000D02*
X152055000Y-103735000D01*
X151495000Y-102195000D02*
X151495000Y-103735000D01*
X152656000Y-102465000D02*
X152656000Y-103735000D01*
X151975000Y-105815000D02*
X151975000Y-107311000D01*
X153496000Y-105815000D02*
X153496000Y-106428000D01*
X152456000Y-102377000D02*
X152456000Y-103735000D01*
X152696000Y-105815000D02*
X152696000Y-107065000D01*
X152336000Y-102333000D02*
X152336000Y-103735000D01*
X152976000Y-105815000D02*
X152976000Y-106897000D01*
X152496000Y-105815000D02*
X152496000Y-107157000D01*
X153256000Y-105815000D02*
X153256000Y-106676000D01*
X152736000Y-105815000D02*
X152736000Y-107043000D01*
X153456000Y-103076000D02*
X153456000Y-103735000D01*
X151815000Y-105815000D02*
X151815000Y-107336000D01*
X152015000Y-102247000D02*
X152015000Y-103735000D01*
X153216000Y-105815000D02*
X153216000Y-106712000D01*
X152095000Y-102264000D02*
X152095000Y-103735000D01*
X152576000Y-102427000D02*
X152576000Y-103735000D01*
X153296000Y-105815000D02*
X153296000Y-106639000D01*
X152256000Y-105815000D02*
X152256000Y-107243000D01*
X151775000Y-102210000D02*
X151775000Y-103735000D01*
X151815000Y-102214000D02*
X151815000Y-103735000D01*
X153096000Y-105815000D02*
X153096000Y-106810000D01*
X153896000Y-103764000D02*
X153896000Y-105786000D01*
X151855000Y-102219000D02*
X151855000Y-103735000D01*
X151535000Y-105815000D02*
X151535000Y-107355000D01*
X152015000Y-105815000D02*
X152015000Y-107303000D01*
X152816000Y-105815000D02*
X152816000Y-106999000D01*
X152336000Y-105815000D02*
X152336000Y-107217000D01*
X153136000Y-105815000D02*
X153136000Y-106779000D01*
X153536000Y-103170000D02*
X153536000Y-106380000D01*
X152656000Y-105815000D02*
X152656000Y-107085000D01*
X152776000Y-105815000D02*
X152776000Y-107022000D01*
X153136000Y-102771000D02*
X153136000Y-103735000D01*
X152696000Y-102485000D02*
X152696000Y-103735000D01*
X152095000Y-105815000D02*
X152095000Y-107286000D01*
X151855000Y-105815000D02*
X151855000Y-107331000D01*
X152816000Y-102551000D02*
X152816000Y-103735000D01*
X152256000Y-102307000D02*
X152256000Y-103735000D01*
X153416000Y-103032000D02*
X153416000Y-103735000D01*
X152175000Y-105815000D02*
X152175000Y-107266000D01*
X153376000Y-105815000D02*
X153376000Y-106560000D01*
X154115000Y-104775000D02*
G75*
G03*
X154115000Y-104775000I-2620000J0D01*
G01*
%TO.C,J2*%
X130305000Y-107785000D02*
X129705000Y-107785000D01*
X129705000Y-112505000D02*
X135725000Y-112505000D01*
X135725000Y-110875000D02*
X134725000Y-110875000D01*
X129705000Y-104665000D02*
X129705000Y-112505000D01*
X130305000Y-110325000D02*
X129705000Y-110325000D01*
X134725000Y-106045000D02*
X135725000Y-106045000D01*
X130305000Y-111925000D02*
X130305000Y-110325000D01*
X134195000Y-110875000D02*
X134195000Y-106295000D01*
X135725000Y-111125000D02*
X134725000Y-111125000D01*
X134725000Y-111125000D02*
X134195000Y-110875000D01*
X129705000Y-109385000D02*
X130305000Y-109385000D01*
X129705000Y-111925000D02*
X130305000Y-111925000D01*
X129705000Y-106845000D02*
X130305000Y-106845000D01*
X134725000Y-111125000D02*
X134725000Y-106045000D01*
X134195000Y-106295000D02*
X134725000Y-106045000D01*
X130305000Y-105245000D02*
X129705000Y-105245000D01*
X135725000Y-106295000D02*
X134725000Y-106295000D01*
X130305000Y-106845000D02*
X130305000Y-105245000D01*
X135725000Y-112505000D02*
X135725000Y-104665000D01*
X130305000Y-109385000D02*
X130305000Y-107785000D01*
X130735000Y-112795000D02*
X134735000Y-112795000D01*
X135725000Y-104665000D02*
X129705000Y-104665000D01*
%TO.C,C1*%
X159486000Y-105815000D02*
X159486000Y-106779000D01*
X158365000Y-102247000D02*
X158365000Y-103735000D01*
X158325000Y-105815000D02*
X158325000Y-107311000D01*
X158886000Y-105815000D02*
X158886000Y-107140000D01*
X158525000Y-105815000D02*
X158525000Y-107266000D01*
X157845000Y-105815000D02*
X157845000Y-107355000D01*
X158165000Y-105815000D02*
X158165000Y-107336000D01*
X155290225Y-103050000D02*
X155290225Y-103550000D01*
X158245000Y-105815000D02*
X158245000Y-107325000D01*
X159606000Y-102874000D02*
X159606000Y-103735000D01*
X160326000Y-103970000D02*
X160326000Y-105580000D01*
X159686000Y-102949000D02*
X159686000Y-103735000D01*
X158525000Y-102284000D02*
X158525000Y-103735000D01*
X159166000Y-105815000D02*
X159166000Y-106999000D01*
X158205000Y-105815000D02*
X158205000Y-107331000D01*
X158045000Y-105815000D02*
X158045000Y-107348000D01*
X157925000Y-105815000D02*
X157925000Y-107354000D01*
X158085000Y-105815000D02*
X158085000Y-107344000D01*
X158806000Y-102377000D02*
X158806000Y-103735000D01*
X160406000Y-104257000D02*
X160406000Y-105293000D01*
X158405000Y-105815000D02*
X158405000Y-107295000D01*
X159206000Y-102575000D02*
X159206000Y-103735000D01*
X159566000Y-102838000D02*
X159566000Y-103735000D01*
X159206000Y-105815000D02*
X159206000Y-106975000D01*
X158606000Y-102307000D02*
X158606000Y-103735000D01*
X158566000Y-105815000D02*
X158566000Y-107255000D01*
X159126000Y-105815000D02*
X159126000Y-107022000D01*
X159366000Y-102680000D02*
X159366000Y-103735000D01*
X160046000Y-103392000D02*
X160046000Y-106158000D01*
X159566000Y-105815000D02*
X159566000Y-106712000D01*
X159806000Y-103076000D02*
X159806000Y-103735000D01*
X160006000Y-103332000D02*
X160006000Y-106218000D01*
X158806000Y-105815000D02*
X158806000Y-107173000D01*
X159646000Y-105815000D02*
X159646000Y-106639000D01*
X157885000Y-102195000D02*
X157885000Y-103735000D01*
X158766000Y-102361000D02*
X158766000Y-103735000D01*
X159406000Y-102710000D02*
X159406000Y-103735000D01*
X160366000Y-104098000D02*
X160366000Y-105452000D01*
X160166000Y-103597000D02*
X160166000Y-105953000D01*
X158886000Y-102410000D02*
X158886000Y-103735000D01*
X159246000Y-105815000D02*
X159246000Y-106950000D01*
X160446000Y-104491000D02*
X160446000Y-105059000D01*
X158485000Y-102274000D02*
X158485000Y-103735000D01*
X158926000Y-102427000D02*
X158926000Y-103735000D01*
X159246000Y-102600000D02*
X159246000Y-103735000D01*
X158085000Y-102206000D02*
X158085000Y-103735000D01*
X159046000Y-105815000D02*
X159046000Y-107065000D01*
X159126000Y-102528000D02*
X159126000Y-103735000D01*
X159606000Y-105815000D02*
X159606000Y-106676000D01*
X160086000Y-103456000D02*
X160086000Y-106094000D01*
X158485000Y-105815000D02*
X158485000Y-107276000D01*
X159406000Y-105815000D02*
X159406000Y-106840000D01*
X159366000Y-105815000D02*
X159366000Y-106870000D01*
X158245000Y-102225000D02*
X158245000Y-103735000D01*
X160126000Y-103524000D02*
X160126000Y-106026000D01*
X159326000Y-102653000D02*
X159326000Y-103735000D01*
X159766000Y-105815000D02*
X159766000Y-106518000D01*
X159086000Y-102507000D02*
X159086000Y-103735000D01*
X159806000Y-105815000D02*
X159806000Y-106474000D01*
X158726000Y-102347000D02*
X158726000Y-103735000D01*
X158445000Y-105815000D02*
X158445000Y-107286000D01*
X160246000Y-103764000D02*
X160246000Y-105786000D01*
X158005000Y-102199000D02*
X158005000Y-103735000D01*
X159886000Y-103170000D02*
X159886000Y-106380000D01*
X158726000Y-105815000D02*
X158726000Y-107203000D01*
X159486000Y-102771000D02*
X159486000Y-103735000D01*
X159086000Y-105815000D02*
X159086000Y-107043000D01*
X159646000Y-102911000D02*
X159646000Y-103735000D01*
X159926000Y-103221000D02*
X159926000Y-106329000D01*
X159166000Y-102551000D02*
X159166000Y-103735000D01*
X158646000Y-105815000D02*
X158646000Y-107230000D01*
X155040225Y-103300000D02*
X155540225Y-103300000D01*
X158686000Y-105815000D02*
X158686000Y-107217000D01*
X158125000Y-102210000D02*
X158125000Y-103735000D01*
X159846000Y-105815000D02*
X159846000Y-106428000D01*
X157965000Y-105815000D02*
X157965000Y-107353000D01*
X159326000Y-105815000D02*
X159326000Y-106897000D01*
X158405000Y-102255000D02*
X158405000Y-103735000D01*
X158365000Y-105815000D02*
X158365000Y-107303000D01*
X159286000Y-102626000D02*
X159286000Y-103735000D01*
X158966000Y-105815000D02*
X158966000Y-107104000D01*
X158285000Y-102232000D02*
X158285000Y-103735000D01*
X159726000Y-105815000D02*
X159726000Y-106560000D01*
X158566000Y-102295000D02*
X158566000Y-103735000D01*
X158205000Y-102219000D02*
X158205000Y-103735000D01*
X158606000Y-105815000D02*
X158606000Y-107243000D01*
X158125000Y-105815000D02*
X158125000Y-107340000D01*
X158325000Y-102239000D02*
X158325000Y-103735000D01*
X159286000Y-105815000D02*
X159286000Y-106924000D01*
X159526000Y-105815000D02*
X159526000Y-106746000D01*
X158846000Y-102393000D02*
X158846000Y-103735000D01*
X157845000Y-102195000D02*
X157845000Y-103735000D01*
X160206000Y-103677000D02*
X160206000Y-105873000D01*
X159006000Y-102465000D02*
X159006000Y-103735000D01*
X159966000Y-103275000D02*
X159966000Y-106275000D01*
X159846000Y-103122000D02*
X159846000Y-103735000D01*
X159766000Y-103032000D02*
X159766000Y-103735000D01*
X158926000Y-105815000D02*
X158926000Y-107123000D01*
X157885000Y-105815000D02*
X157885000Y-107355000D01*
X159726000Y-102990000D02*
X159726000Y-103735000D01*
X159446000Y-102740000D02*
X159446000Y-103735000D01*
X158846000Y-105815000D02*
X158846000Y-107157000D01*
X158005000Y-105815000D02*
X158005000Y-107351000D01*
X159526000Y-102804000D02*
X159526000Y-103735000D01*
X159686000Y-105815000D02*
X159686000Y-106601000D01*
X160286000Y-103860000D02*
X160286000Y-105690000D01*
X159446000Y-105815000D02*
X159446000Y-106810000D01*
X159006000Y-105815000D02*
X159006000Y-107085000D01*
X159046000Y-102485000D02*
X159046000Y-103735000D01*
X157925000Y-102196000D02*
X157925000Y-103735000D01*
X158445000Y-102264000D02*
X158445000Y-103735000D01*
X158966000Y-102446000D02*
X158966000Y-103735000D01*
X158165000Y-102214000D02*
X158165000Y-103735000D01*
X158766000Y-105815000D02*
X158766000Y-107189000D01*
X158045000Y-102202000D02*
X158045000Y-103735000D01*
X158646000Y-102320000D02*
X158646000Y-103735000D01*
X158686000Y-102333000D02*
X158686000Y-103735000D01*
X157965000Y-102197000D02*
X157965000Y-103735000D01*
X158285000Y-105815000D02*
X158285000Y-107318000D01*
X160465000Y-104775000D02*
G75*
G03*
X160465000Y-104775000I-2620000J0D01*
G01*
%TO.C,R1*%
X146145000Y-111225000D02*
X146145000Y-108485000D01*
X146915000Y-109855000D02*
X146145000Y-109855000D01*
X139605000Y-108485000D02*
X139605000Y-111225000D01*
X139605000Y-111225000D02*
X146145000Y-111225000D01*
X146145000Y-108485000D02*
X139605000Y-108485000D01*
X138835000Y-109855000D02*
X139605000Y-109855000D01*
%TO.C,R8*%
X151035000Y-90270000D02*
X157575000Y-90270000D01*
X157575000Y-87530000D02*
X151035000Y-87530000D01*
X158345000Y-88900000D02*
X157575000Y-88900000D01*
X157575000Y-90270000D02*
X157575000Y-87530000D01*
X150265000Y-88900000D02*
X151035000Y-88900000D01*
X151035000Y-87530000D02*
X151035000Y-90270000D01*
%TD*%
M02*
