%TF.GenerationSoftware,KiCad,Pcbnew,(6.0.5)*%
%TF.CreationDate,2022-05-28T19:41:01-04:00*%
%TF.ProjectId,headphone_amp,68656164-7068-46f6-9e65-5f616d702e6b,rev?*%
%TF.SameCoordinates,Original*%
%TF.FileFunction,Legend,Bot*%
%TF.FilePolarity,Positive*%
%FSLAX46Y46*%
G04 Gerber Fmt 4.6, Leading zero omitted, Abs format (unit mm)*
G04 Created by KiCad (PCBNEW (6.0.5)) date 2022-05-28 19:41:01*
%MOMM*%
%LPD*%
G01*
G04 APERTURE LIST*
%ADD10C,0.150000*%
G04 APERTURE END LIST*
D10*
X140335000Y-104140000D02*
X137160000Y-104140000D01*
X137795000Y-92710000D02*
X134620000Y-92710000D01*
X146685000Y-106680000D02*
X142875000Y-106680000D01*
X159385000Y-103505000D02*
X156210000Y-103505000D01*
X153035000Y-103505000D02*
X149860000Y-103505000D01*
X147320000Y-85090000D02*
X143510000Y-85090000D01*
X128905000Y-86360000D02*
X125730000Y-86360000D01*
X144145000Y-112395000D02*
X146685000Y-112395000D01*
X139065000Y-112395000D02*
X141605000Y-112395000D01*
X141605000Y-109855000D02*
X139065000Y-109855000D01*
X146685000Y-109855000D02*
X144145000Y-109855000D01*
X127635000Y-109855000D02*
X127635000Y-111760000D01*
X125095000Y-109855000D02*
X125095000Y-111760000D01*
X125095000Y-104140000D02*
X125095000Y-106045000D01*
X127635000Y-104140000D02*
X127635000Y-106045000D01*
X138430000Y-100965000D02*
X135890000Y-100965000D01*
X143510000Y-100965000D02*
X140970000Y-100965000D01*
X138430000Y-98425000D02*
X135890000Y-98425000D01*
X143510000Y-98425000D02*
X140970000Y-98425000D01*
X155575000Y-96520000D02*
X158115000Y-96520000D01*
X153035000Y-96520000D02*
X150495000Y-96520000D01*
X153035000Y-93980000D02*
X150495000Y-93980000D01*
X158115000Y-93980000D02*
X155575000Y-93980000D01*
X156210000Y-91440000D02*
X158115000Y-91440000D01*
X152400000Y-91440000D02*
X150495000Y-91440000D01*
X153035000Y-88900000D02*
X150495000Y-88900000D01*
X155575000Y-88900000D02*
X158115000Y-88900000D01*
X137160000Y-87630000D02*
X139700000Y-87630000D01*
X132080000Y-87630000D02*
X134620000Y-87630000D01*
X134620000Y-85090000D02*
X132080000Y-85090000D01*
X139700000Y-85090000D02*
X137160000Y-85090000D01*
%TO.C,C6*%
X136691666Y-92432142D02*
X136739285Y-92479761D01*
X136882142Y-92527380D01*
X136977380Y-92527380D01*
X137120238Y-92479761D01*
X137215476Y-92384523D01*
X137263095Y-92289285D01*
X137310714Y-92098809D01*
X137310714Y-91955952D01*
X137263095Y-91765476D01*
X137215476Y-91670238D01*
X137120238Y-91575000D01*
X136977380Y-91527380D01*
X136882142Y-91527380D01*
X136739285Y-91575000D01*
X136691666Y-91622619D01*
X135834523Y-91527380D02*
X136025000Y-91527380D01*
X136120238Y-91575000D01*
X136167857Y-91622619D01*
X136263095Y-91765476D01*
X136310714Y-91955952D01*
X136310714Y-92336904D01*
X136263095Y-92432142D01*
X136215476Y-92479761D01*
X136120238Y-92527380D01*
X135929761Y-92527380D01*
X135834523Y-92479761D01*
X135786904Y-92432142D01*
X135739285Y-92336904D01*
X135739285Y-92098809D01*
X135786904Y-92003571D01*
X135834523Y-91955952D01*
X135929761Y-91908333D01*
X136120238Y-91908333D01*
X136215476Y-91955952D01*
X136263095Y-92003571D01*
X136310714Y-92098809D01*
%TO.C,C7*%
X127166666Y-86082142D02*
X127214285Y-86129761D01*
X127357142Y-86177380D01*
X127452380Y-86177380D01*
X127595238Y-86129761D01*
X127690476Y-86034523D01*
X127738095Y-85939285D01*
X127785714Y-85748809D01*
X127785714Y-85605952D01*
X127738095Y-85415476D01*
X127690476Y-85320238D01*
X127595238Y-85225000D01*
X127452380Y-85177380D01*
X127357142Y-85177380D01*
X127214285Y-85225000D01*
X127166666Y-85272619D01*
X126833333Y-85177380D02*
X126166666Y-85177380D01*
X126595238Y-86177380D01*
%TO.C,C4*%
X139041666Y-103862142D02*
X139089285Y-103909761D01*
X139232142Y-103957380D01*
X139327380Y-103957380D01*
X139470238Y-103909761D01*
X139565476Y-103814523D01*
X139613095Y-103719285D01*
X139660714Y-103528809D01*
X139660714Y-103385952D01*
X139613095Y-103195476D01*
X139565476Y-103100238D01*
X139470238Y-103005000D01*
X139327380Y-102957380D01*
X139232142Y-102957380D01*
X139089285Y-103005000D01*
X139041666Y-103052619D01*
X138184523Y-103290714D02*
X138184523Y-103957380D01*
X138422619Y-102909761D02*
X138660714Y-103624047D01*
X138041666Y-103624047D01*
%TO.C,C3*%
X151931666Y-103227142D02*
X151979285Y-103274761D01*
X152122142Y-103322380D01*
X152217380Y-103322380D01*
X152360238Y-103274761D01*
X152455476Y-103179523D01*
X152503095Y-103084285D01*
X152550714Y-102893809D01*
X152550714Y-102750952D01*
X152503095Y-102560476D01*
X152455476Y-102465238D01*
X152360238Y-102370000D01*
X152217380Y-102322380D01*
X152122142Y-102322380D01*
X151979285Y-102370000D01*
X151931666Y-102417619D01*
X151598333Y-102322380D02*
X150979285Y-102322380D01*
X151312619Y-102703333D01*
X151169761Y-102703333D01*
X151074523Y-102750952D01*
X151026904Y-102798571D01*
X150979285Y-102893809D01*
X150979285Y-103131904D01*
X151026904Y-103227142D01*
X151074523Y-103274761D01*
X151169761Y-103322380D01*
X151455476Y-103322380D01*
X151550714Y-103274761D01*
X151598333Y-103227142D01*
%TO.C,C1*%
X157646666Y-103227142D02*
X157694285Y-103274761D01*
X157837142Y-103322380D01*
X157932380Y-103322380D01*
X158075238Y-103274761D01*
X158170476Y-103179523D01*
X158218095Y-103084285D01*
X158265714Y-102893809D01*
X158265714Y-102750952D01*
X158218095Y-102560476D01*
X158170476Y-102465238D01*
X158075238Y-102370000D01*
X157932380Y-102322380D01*
X157837142Y-102322380D01*
X157694285Y-102370000D01*
X157646666Y-102417619D01*
X156694285Y-103322380D02*
X157265714Y-103322380D01*
X156980000Y-103322380D02*
X156980000Y-102322380D01*
X157075238Y-102465238D01*
X157170476Y-102560476D01*
X157265714Y-102608095D01*
%TO.C,R1*%
X143041666Y-110307380D02*
X143375000Y-109831190D01*
X143613095Y-110307380D02*
X143613095Y-109307380D01*
X143232142Y-109307380D01*
X143136904Y-109355000D01*
X143089285Y-109402619D01*
X143041666Y-109497857D01*
X143041666Y-109640714D01*
X143089285Y-109735952D01*
X143136904Y-109783571D01*
X143232142Y-109831190D01*
X143613095Y-109831190D01*
X142089285Y-110307380D02*
X142660714Y-110307380D01*
X142375000Y-110307380D02*
X142375000Y-109307380D01*
X142470238Y-109450238D01*
X142565476Y-109545476D01*
X142660714Y-109593095D01*
%TO.C,U1*%
X159368571Y-109672380D02*
X159844761Y-109672380D01*
X159844761Y-108672380D01*
X159035238Y-109672380D02*
X159035238Y-108672380D01*
X158797142Y-108672380D01*
X158654285Y-108720000D01*
X158559047Y-108815238D01*
X158511428Y-108910476D01*
X158463809Y-109100952D01*
X158463809Y-109243809D01*
X158511428Y-109434285D01*
X158559047Y-109529523D01*
X158654285Y-109624761D01*
X158797142Y-109672380D01*
X159035238Y-109672380D01*
X157559047Y-109672380D02*
X158035238Y-109672380D01*
X158035238Y-108672380D01*
X156701904Y-109672380D02*
X157273333Y-109672380D01*
X156987619Y-109672380D02*
X156987619Y-108672380D01*
X157082857Y-108815238D01*
X157178095Y-108910476D01*
X157273333Y-108958095D01*
X155749523Y-109672380D02*
X156320952Y-109672380D01*
X156035238Y-109672380D02*
X156035238Y-108672380D01*
X156130476Y-108815238D01*
X156225714Y-108910476D01*
X156320952Y-108958095D01*
X154797142Y-109672380D02*
X155368571Y-109672380D01*
X155082857Y-109672380D02*
X155082857Y-108672380D01*
X155178095Y-108815238D01*
X155273333Y-108910476D01*
X155368571Y-108958095D01*
X154463809Y-108672380D02*
X153797142Y-108672380D01*
X154225714Y-109672380D01*
X153463809Y-109624761D02*
X153320952Y-109672380D01*
X153082857Y-109672380D01*
X152987619Y-109624761D01*
X152940000Y-109577142D01*
X152892380Y-109481904D01*
X152892380Y-109386666D01*
X152940000Y-109291428D01*
X152987619Y-109243809D01*
X153082857Y-109196190D01*
X153273333Y-109148571D01*
X153368571Y-109100952D01*
X153416190Y-109053333D01*
X153463809Y-108958095D01*
X153463809Y-108862857D01*
X153416190Y-108767619D01*
X153368571Y-108720000D01*
X153273333Y-108672380D01*
X153035238Y-108672380D01*
X152892380Y-108720000D01*
X151987619Y-108672380D02*
X152463809Y-108672380D01*
X152511428Y-109148571D01*
X152463809Y-109100952D01*
X152368571Y-109053333D01*
X152130476Y-109053333D01*
X152035238Y-109100952D01*
X151987619Y-109148571D01*
X151940000Y-109243809D01*
X151940000Y-109481904D01*
X151987619Y-109577142D01*
X152035238Y-109624761D01*
X152130476Y-109672380D01*
X152368571Y-109672380D01*
X152463809Y-109624761D01*
X152511428Y-109577142D01*
X151320952Y-108672380D02*
X151225714Y-108672380D01*
X151130476Y-108720000D01*
X151082857Y-108767619D01*
X151035238Y-108862857D01*
X150987619Y-109053333D01*
X150987619Y-109291428D01*
X151035238Y-109481904D01*
X151082857Y-109577142D01*
X151130476Y-109624761D01*
X151225714Y-109672380D01*
X151320952Y-109672380D01*
X151416190Y-109624761D01*
X151463809Y-109577142D01*
X151511428Y-109481904D01*
X151559047Y-109291428D01*
X151559047Y-109053333D01*
X151511428Y-108862857D01*
X151463809Y-108767619D01*
X151416190Y-108720000D01*
X151320952Y-108672380D01*
X149987619Y-109672380D02*
X150320952Y-109196190D01*
X150559047Y-109672380D02*
X150559047Y-108672380D01*
X150178095Y-108672380D01*
X150082857Y-108720000D01*
X150035238Y-108767619D01*
X149987619Y-108862857D01*
X149987619Y-109005714D01*
X150035238Y-109100952D01*
X150082857Y-109148571D01*
X150178095Y-109196190D01*
X150559047Y-109196190D01*
%TO.C,R12*%
X125547380Y-107307142D02*
X125071190Y-106973809D01*
X125547380Y-106735714D02*
X124547380Y-106735714D01*
X124547380Y-107116666D01*
X124595000Y-107211904D01*
X124642619Y-107259523D01*
X124737857Y-107307142D01*
X124880714Y-107307142D01*
X124975952Y-107259523D01*
X125023571Y-107211904D01*
X125071190Y-107116666D01*
X125071190Y-106735714D01*
X125547380Y-108259523D02*
X125547380Y-107688095D01*
X125547380Y-107973809D02*
X124547380Y-107973809D01*
X124690238Y-107878571D01*
X124785476Y-107783333D01*
X124833095Y-107688095D01*
X124642619Y-108640476D02*
X124595000Y-108688095D01*
X124547380Y-108783333D01*
X124547380Y-109021428D01*
X124595000Y-109116666D01*
X124642619Y-109164285D01*
X124737857Y-109211904D01*
X124833095Y-109211904D01*
X124975952Y-109164285D01*
X125547380Y-108592857D01*
X125547380Y-109211904D01*
%TO.C,R11*%
X128087380Y-107307142D02*
X127611190Y-106973809D01*
X128087380Y-106735714D02*
X127087380Y-106735714D01*
X127087380Y-107116666D01*
X127135000Y-107211904D01*
X127182619Y-107259523D01*
X127277857Y-107307142D01*
X127420714Y-107307142D01*
X127515952Y-107259523D01*
X127563571Y-107211904D01*
X127611190Y-107116666D01*
X127611190Y-106735714D01*
X128087380Y-108259523D02*
X128087380Y-107688095D01*
X128087380Y-107973809D02*
X127087380Y-107973809D01*
X127230238Y-107878571D01*
X127325476Y-107783333D01*
X127373095Y-107688095D01*
X128087380Y-109211904D02*
X128087380Y-108640476D01*
X128087380Y-108926190D02*
X127087380Y-108926190D01*
X127230238Y-108830952D01*
X127325476Y-108735714D01*
X127373095Y-108640476D01*
%TO.C,R7*%
X154471666Y-96972380D02*
X154805000Y-96496190D01*
X155043095Y-96972380D02*
X155043095Y-95972380D01*
X154662142Y-95972380D01*
X154566904Y-96020000D01*
X154519285Y-96067619D01*
X154471666Y-96162857D01*
X154471666Y-96305714D01*
X154519285Y-96400952D01*
X154566904Y-96448571D01*
X154662142Y-96496190D01*
X155043095Y-96496190D01*
X154138333Y-95972380D02*
X153471666Y-95972380D01*
X153900238Y-96972380D01*
%TO.C,R3*%
X139866666Y-98877380D02*
X140200000Y-98401190D01*
X140438095Y-98877380D02*
X140438095Y-97877380D01*
X140057142Y-97877380D01*
X139961904Y-97925000D01*
X139914285Y-97972619D01*
X139866666Y-98067857D01*
X139866666Y-98210714D01*
X139914285Y-98305952D01*
X139961904Y-98353571D01*
X140057142Y-98401190D01*
X140438095Y-98401190D01*
X139533333Y-97877380D02*
X138914285Y-97877380D01*
X139247619Y-98258333D01*
X139104761Y-98258333D01*
X139009523Y-98305952D01*
X138961904Y-98353571D01*
X138914285Y-98448809D01*
X138914285Y-98686904D01*
X138961904Y-98782142D01*
X139009523Y-98829761D01*
X139104761Y-98877380D01*
X139390476Y-98877380D01*
X139485714Y-98829761D01*
X139533333Y-98782142D01*
%TO.C,C9*%
X145581666Y-84812142D02*
X145629285Y-84859761D01*
X145772142Y-84907380D01*
X145867380Y-84907380D01*
X146010238Y-84859761D01*
X146105476Y-84764523D01*
X146153095Y-84669285D01*
X146200714Y-84478809D01*
X146200714Y-84335952D01*
X146153095Y-84145476D01*
X146105476Y-84050238D01*
X146010238Y-83955000D01*
X145867380Y-83907380D01*
X145772142Y-83907380D01*
X145629285Y-83955000D01*
X145581666Y-84002619D01*
X145105476Y-84907380D02*
X144915000Y-84907380D01*
X144819761Y-84859761D01*
X144772142Y-84812142D01*
X144676904Y-84669285D01*
X144629285Y-84478809D01*
X144629285Y-84097857D01*
X144676904Y-84002619D01*
X144724523Y-83955000D01*
X144819761Y-83907380D01*
X145010238Y-83907380D01*
X145105476Y-83955000D01*
X145153095Y-84002619D01*
X145200714Y-84097857D01*
X145200714Y-84335952D01*
X145153095Y-84431190D01*
X145105476Y-84478809D01*
X145010238Y-84526428D01*
X144819761Y-84526428D01*
X144724523Y-84478809D01*
X144676904Y-84431190D01*
X144629285Y-84335952D01*
%TO.C,R2*%
X143041666Y-112847380D02*
X143375000Y-112371190D01*
X143613095Y-112847380D02*
X143613095Y-111847380D01*
X143232142Y-111847380D01*
X143136904Y-111895000D01*
X143089285Y-111942619D01*
X143041666Y-112037857D01*
X143041666Y-112180714D01*
X143089285Y-112275952D01*
X143136904Y-112323571D01*
X143232142Y-112371190D01*
X143613095Y-112371190D01*
X142660714Y-111942619D02*
X142613095Y-111895000D01*
X142517857Y-111847380D01*
X142279761Y-111847380D01*
X142184523Y-111895000D01*
X142136904Y-111942619D01*
X142089285Y-112037857D01*
X142089285Y-112133095D01*
X142136904Y-112275952D01*
X142708333Y-112847380D01*
X142089285Y-112847380D01*
%TO.C,U2*%
X146946666Y-93797380D02*
X147422857Y-93797380D01*
X147422857Y-92797380D01*
X146613333Y-93797380D02*
X146613333Y-92797380D01*
X146280000Y-93511666D01*
X145946666Y-92797380D01*
X145946666Y-93797380D01*
X145041904Y-93130714D02*
X145041904Y-93797380D01*
X145280000Y-92749761D02*
X145518095Y-93464047D01*
X144899047Y-93464047D01*
X144375238Y-93225952D02*
X144470476Y-93178333D01*
X144518095Y-93130714D01*
X144565714Y-93035476D01*
X144565714Y-92987857D01*
X144518095Y-92892619D01*
X144470476Y-92845000D01*
X144375238Y-92797380D01*
X144184761Y-92797380D01*
X144089523Y-92845000D01*
X144041904Y-92892619D01*
X143994285Y-92987857D01*
X143994285Y-93035476D01*
X144041904Y-93130714D01*
X144089523Y-93178333D01*
X144184761Y-93225952D01*
X144375238Y-93225952D01*
X144470476Y-93273571D01*
X144518095Y-93321190D01*
X144565714Y-93416428D01*
X144565714Y-93606904D01*
X144518095Y-93702142D01*
X144470476Y-93749761D01*
X144375238Y-93797380D01*
X144184761Y-93797380D01*
X144089523Y-93749761D01*
X144041904Y-93702142D01*
X143994285Y-93606904D01*
X143994285Y-93416428D01*
X144041904Y-93321190D01*
X144089523Y-93273571D01*
X144184761Y-93225952D01*
X143375238Y-92797380D02*
X143280000Y-92797380D01*
X143184761Y-92845000D01*
X143137142Y-92892619D01*
X143089523Y-92987857D01*
X143041904Y-93178333D01*
X143041904Y-93416428D01*
X143089523Y-93606904D01*
X143137142Y-93702142D01*
X143184761Y-93749761D01*
X143280000Y-93797380D01*
X143375238Y-93797380D01*
X143470476Y-93749761D01*
X143518095Y-93702142D01*
X143565714Y-93606904D01*
X143613333Y-93416428D01*
X143613333Y-93178333D01*
X143565714Y-92987857D01*
X143518095Y-92892619D01*
X143470476Y-92845000D01*
X143375238Y-92797380D01*
X142470476Y-93225952D02*
X142565714Y-93178333D01*
X142613333Y-93130714D01*
X142660952Y-93035476D01*
X142660952Y-92987857D01*
X142613333Y-92892619D01*
X142565714Y-92845000D01*
X142470476Y-92797380D01*
X142280000Y-92797380D01*
X142184761Y-92845000D01*
X142137142Y-92892619D01*
X142089523Y-92987857D01*
X142089523Y-93035476D01*
X142137142Y-93130714D01*
X142184761Y-93178333D01*
X142280000Y-93225952D01*
X142470476Y-93225952D01*
X142565714Y-93273571D01*
X142613333Y-93321190D01*
X142660952Y-93416428D01*
X142660952Y-93606904D01*
X142613333Y-93702142D01*
X142565714Y-93749761D01*
X142470476Y-93797380D01*
X142280000Y-93797380D01*
X142184761Y-93749761D01*
X142137142Y-93702142D01*
X142089523Y-93606904D01*
X142089523Y-93416428D01*
X142137142Y-93321190D01*
X142184761Y-93273571D01*
X142280000Y-93225952D01*
%TO.C,R9*%
X154471666Y-94432380D02*
X154805000Y-93956190D01*
X155043095Y-94432380D02*
X155043095Y-93432380D01*
X154662142Y-93432380D01*
X154566904Y-93480000D01*
X154519285Y-93527619D01*
X154471666Y-93622857D01*
X154471666Y-93765714D01*
X154519285Y-93860952D01*
X154566904Y-93908571D01*
X154662142Y-93956190D01*
X155043095Y-93956190D01*
X153995476Y-94432380D02*
X153805000Y-94432380D01*
X153709761Y-94384761D01*
X153662142Y-94337142D01*
X153566904Y-94194285D01*
X153519285Y-94003809D01*
X153519285Y-93622857D01*
X153566904Y-93527619D01*
X153614523Y-93480000D01*
X153709761Y-93432380D01*
X153900238Y-93432380D01*
X153995476Y-93480000D01*
X154043095Y-93527619D01*
X154090714Y-93622857D01*
X154090714Y-93860952D01*
X154043095Y-93956190D01*
X153995476Y-94003809D01*
X153900238Y-94051428D01*
X153709761Y-94051428D01*
X153614523Y-94003809D01*
X153566904Y-93956190D01*
X153519285Y-93860952D01*
%TO.C,R10*%
X154947857Y-91892380D02*
X155281190Y-91416190D01*
X155519285Y-91892380D02*
X155519285Y-90892380D01*
X155138333Y-90892380D01*
X155043095Y-90940000D01*
X154995476Y-90987619D01*
X154947857Y-91082857D01*
X154947857Y-91225714D01*
X154995476Y-91320952D01*
X155043095Y-91368571D01*
X155138333Y-91416190D01*
X155519285Y-91416190D01*
X153995476Y-91892380D02*
X154566904Y-91892380D01*
X154281190Y-91892380D02*
X154281190Y-90892380D01*
X154376428Y-91035238D01*
X154471666Y-91130476D01*
X154566904Y-91178095D01*
X153376428Y-90892380D02*
X153281190Y-90892380D01*
X153185952Y-90940000D01*
X153138333Y-90987619D01*
X153090714Y-91082857D01*
X153043095Y-91273333D01*
X153043095Y-91511428D01*
X153090714Y-91701904D01*
X153138333Y-91797142D01*
X153185952Y-91844761D01*
X153281190Y-91892380D01*
X153376428Y-91892380D01*
X153471666Y-91844761D01*
X153519285Y-91797142D01*
X153566904Y-91701904D01*
X153614523Y-91511428D01*
X153614523Y-91273333D01*
X153566904Y-91082857D01*
X153519285Y-90987619D01*
X153471666Y-90940000D01*
X153376428Y-90892380D01*
%TO.C,C8*%
X144946666Y-107672142D02*
X144994285Y-107719761D01*
X145137142Y-107767380D01*
X145232380Y-107767380D01*
X145375238Y-107719761D01*
X145470476Y-107624523D01*
X145518095Y-107529285D01*
X145565714Y-107338809D01*
X145565714Y-107195952D01*
X145518095Y-107005476D01*
X145470476Y-106910238D01*
X145375238Y-106815000D01*
X145232380Y-106767380D01*
X145137142Y-106767380D01*
X144994285Y-106815000D01*
X144946666Y-106862619D01*
X144375238Y-107195952D02*
X144470476Y-107148333D01*
X144518095Y-107100714D01*
X144565714Y-107005476D01*
X144565714Y-106957857D01*
X144518095Y-106862619D01*
X144470476Y-106815000D01*
X144375238Y-106767380D01*
X144184761Y-106767380D01*
X144089523Y-106815000D01*
X144041904Y-106862619D01*
X143994285Y-106957857D01*
X143994285Y-107005476D01*
X144041904Y-107100714D01*
X144089523Y-107148333D01*
X144184761Y-107195952D01*
X144375238Y-107195952D01*
X144470476Y-107243571D01*
X144518095Y-107291190D01*
X144565714Y-107386428D01*
X144565714Y-107576904D01*
X144518095Y-107672142D01*
X144470476Y-107719761D01*
X144375238Y-107767380D01*
X144184761Y-107767380D01*
X144089523Y-107719761D01*
X144041904Y-107672142D01*
X143994285Y-107576904D01*
X143994285Y-107386428D01*
X144041904Y-107291190D01*
X144089523Y-107243571D01*
X144184761Y-107195952D01*
%TO.C,R6*%
X136056666Y-88082380D02*
X136390000Y-87606190D01*
X136628095Y-88082380D02*
X136628095Y-87082380D01*
X136247142Y-87082380D01*
X136151904Y-87130000D01*
X136104285Y-87177619D01*
X136056666Y-87272857D01*
X136056666Y-87415714D01*
X136104285Y-87510952D01*
X136151904Y-87558571D01*
X136247142Y-87606190D01*
X136628095Y-87606190D01*
X135199523Y-87082380D02*
X135390000Y-87082380D01*
X135485238Y-87130000D01*
X135532857Y-87177619D01*
X135628095Y-87320476D01*
X135675714Y-87510952D01*
X135675714Y-87891904D01*
X135628095Y-87987142D01*
X135580476Y-88034761D01*
X135485238Y-88082380D01*
X135294761Y-88082380D01*
X135199523Y-88034761D01*
X135151904Y-87987142D01*
X135104285Y-87891904D01*
X135104285Y-87653809D01*
X135151904Y-87558571D01*
X135199523Y-87510952D01*
X135294761Y-87463333D01*
X135485238Y-87463333D01*
X135580476Y-87510952D01*
X135628095Y-87558571D01*
X135675714Y-87653809D01*
%TO.C,R5*%
X139866666Y-101417380D02*
X140200000Y-100941190D01*
X140438095Y-101417380D02*
X140438095Y-100417380D01*
X140057142Y-100417380D01*
X139961904Y-100465000D01*
X139914285Y-100512619D01*
X139866666Y-100607857D01*
X139866666Y-100750714D01*
X139914285Y-100845952D01*
X139961904Y-100893571D01*
X140057142Y-100941190D01*
X140438095Y-100941190D01*
X138961904Y-100417380D02*
X139438095Y-100417380D01*
X139485714Y-100893571D01*
X139438095Y-100845952D01*
X139342857Y-100798333D01*
X139104761Y-100798333D01*
X139009523Y-100845952D01*
X138961904Y-100893571D01*
X138914285Y-100988809D01*
X138914285Y-101226904D01*
X138961904Y-101322142D01*
X139009523Y-101369761D01*
X139104761Y-101417380D01*
X139342857Y-101417380D01*
X139438095Y-101369761D01*
X139485714Y-101322142D01*
%TO.C,R4*%
X136056666Y-85542380D02*
X136390000Y-85066190D01*
X136628095Y-85542380D02*
X136628095Y-84542380D01*
X136247142Y-84542380D01*
X136151904Y-84590000D01*
X136104285Y-84637619D01*
X136056666Y-84732857D01*
X136056666Y-84875714D01*
X136104285Y-84970952D01*
X136151904Y-85018571D01*
X136247142Y-85066190D01*
X136628095Y-85066190D01*
X135199523Y-84875714D02*
X135199523Y-85542380D01*
X135437619Y-84494761D02*
X135675714Y-85209047D01*
X135056666Y-85209047D01*
%TO.C,R8*%
X154471666Y-89352380D02*
X154805000Y-88876190D01*
X155043095Y-89352380D02*
X155043095Y-88352380D01*
X154662142Y-88352380D01*
X154566904Y-88400000D01*
X154519285Y-88447619D01*
X154471666Y-88542857D01*
X154471666Y-88685714D01*
X154519285Y-88780952D01*
X154566904Y-88828571D01*
X154662142Y-88876190D01*
X155043095Y-88876190D01*
X153900238Y-88780952D02*
X153995476Y-88733333D01*
X154043095Y-88685714D01*
X154090714Y-88590476D01*
X154090714Y-88542857D01*
X154043095Y-88447619D01*
X153995476Y-88400000D01*
X153900238Y-88352380D01*
X153709761Y-88352380D01*
X153614523Y-88400000D01*
X153566904Y-88447619D01*
X153519285Y-88542857D01*
X153519285Y-88590476D01*
X153566904Y-88685714D01*
X153614523Y-88733333D01*
X153709761Y-88780952D01*
X153900238Y-88780952D01*
X153995476Y-88828571D01*
X154043095Y-88876190D01*
X154090714Y-88971428D01*
X154090714Y-89161904D01*
X154043095Y-89257142D01*
X153995476Y-89304761D01*
X153900238Y-89352380D01*
X153709761Y-89352380D01*
X153614523Y-89304761D01*
X153566904Y-89257142D01*
X153519285Y-89161904D01*
X153519285Y-88971428D01*
X153566904Y-88876190D01*
X153614523Y-88828571D01*
X153709761Y-88780952D01*
%TD*%
M02*
