%TF.GenerationSoftware,KiCad,Pcbnew,(6.0.5)*%
%TF.CreationDate,2022-06-04T12:49:29-04:00*%
%TF.ProjectId,headphone_amp,68656164-7068-46f6-9e65-5f616d702e6b,0.1*%
%TF.SameCoordinates,Original*%
%TF.FileFunction,Soldermask,Top*%
%TF.FilePolarity,Negative*%
%FSLAX46Y46*%
G04 Gerber Fmt 4.6, Leading zero omitted, Abs format (unit mm)*
G04 Created by KiCad (PCBNEW (6.0.5)) date 2022-06-04 12:49:29*
%MOMM*%
%LPD*%
G01*
G04 APERTURE LIST*
G04 Aperture macros list*
%AMRoundRect*
0 Rectangle with rounded corners*
0 $1 Rounding radius*
0 $2 $3 $4 $5 $6 $7 $8 $9 X,Y pos of 4 corners*
0 Add a 4 corners polygon primitive as box body*
4,1,4,$2,$3,$4,$5,$6,$7,$8,$9,$2,$3,0*
0 Add four circle primitives for the rounded corners*
1,1,$1+$1,$2,$3*
1,1,$1+$1,$4,$5*
1,1,$1+$1,$6,$7*
1,1,$1+$1,$8,$9*
0 Add four rect primitives between the rounded corners*
20,1,$1+$1,$2,$3,$4,$5,0*
20,1,$1+$1,$4,$5,$6,$7,0*
20,1,$1+$1,$6,$7,$8,$9,0*
20,1,$1+$1,$8,$9,$2,$3,0*%
G04 Aperture macros list end*
%ADD10R,1.700000X1.700000*%
%ADD11O,1.700000X1.700000*%
%ADD12C,2.000000*%
%ADD13RoundRect,0.150000X0.150000X-0.825000X0.150000X0.825000X-0.150000X0.825000X-0.150000X-0.825000X0*%
%ADD14C,1.600000*%
%ADD15O,1.600000X1.600000*%
%ADD16R,1.500000X1.500000*%
%ADD17O,1.500000X1.500000*%
%ADD18R,1.600000X1.600000*%
%ADD19RoundRect,0.250000X0.600000X0.600000X-0.600000X0.600000X-0.600000X-0.600000X0.600000X-0.600000X0*%
%ADD20C,1.700000*%
%ADD21R,2.000000X1.500000*%
%ADD22R,2.000000X3.800000*%
%ADD23O,1.740000X2.190000*%
%ADD24RoundRect,0.250000X0.620000X0.845000X-0.620000X0.845000X-0.620000X-0.845000X0.620000X-0.845000X0*%
%ADD25RoundRect,0.250000X0.845000X-0.620000X0.845000X0.620000X-0.845000X0.620000X-0.845000X-0.620000X0*%
%ADD26O,2.190000X1.740000*%
G04 APERTURE END LIST*
D10*
%TO.C,JP1*%
X131445000Y-112395000D03*
D11*
X133985000Y-112395000D03*
%TD*%
D12*
%TO.C,RV1*%
X128190000Y-93385000D03*
X128190000Y-95885000D03*
X128190000Y-98385000D03*
X130690000Y-93385000D03*
X130690000Y-95885000D03*
X130690000Y-98385000D03*
%TD*%
D13*
%TO.C,U2*%
X142240000Y-95820000D03*
X143510000Y-95820000D03*
X144780000Y-95820000D03*
X146050000Y-95820000D03*
X146050000Y-90870000D03*
X144780000Y-90870000D03*
X143510000Y-90870000D03*
X142240000Y-90870000D03*
%TD*%
D14*
%TO.C,R7*%
X149225000Y-96520000D03*
D15*
X159385000Y-96520000D03*
%TD*%
D16*
%TO.C,D5*%
X149220000Y-86360000D03*
D17*
X156840000Y-86360000D03*
%TD*%
D14*
%TO.C,C2*%
X159385000Y-113645000D03*
X159385000Y-111145000D03*
%TD*%
%TO.C,R12*%
X125095000Y-113030000D03*
D15*
X125095000Y-102870000D03*
%TD*%
D14*
%TO.C,R3*%
X134620000Y-98425000D03*
D15*
X144780000Y-98425000D03*
%TD*%
D14*
%TO.C,C5*%
X140335000Y-90845000D03*
X140335000Y-93345000D03*
%TD*%
D18*
%TO.C,C7*%
X128230000Y-87630000D03*
D14*
X126230000Y-87630000D03*
%TD*%
D18*
%TO.C,C9*%
X144185000Y-86360000D03*
D14*
X146685000Y-86360000D03*
%TD*%
%TO.C,R2*%
X137795000Y-112395000D03*
D15*
X147955000Y-112395000D03*
%TD*%
D19*
%TO.C,J1*%
X167005000Y-109220000D03*
D20*
X164465000Y-109220000D03*
X167005000Y-106680000D03*
X164465000Y-106680000D03*
X167005000Y-104140000D03*
X164465000Y-104140000D03*
X167005000Y-101600000D03*
X164465000Y-101600000D03*
X167005000Y-99060000D03*
X164465000Y-99060000D03*
%TD*%
D14*
%TO.C,R11*%
X127635000Y-113030000D03*
D15*
X127635000Y-102870000D03*
%TD*%
D18*
%TO.C,C6*%
X137255000Y-93980000D03*
D14*
X135255000Y-93980000D03*
%TD*%
D21*
%TO.C,U1*%
X156820000Y-113425000D03*
D22*
X150520000Y-111125000D03*
D21*
X156820000Y-111125000D03*
X156820000Y-108825000D03*
%TD*%
D16*
%TO.C,D2*%
X156845000Y-100965000D03*
D17*
X149225000Y-100965000D03*
%TD*%
D14*
%TO.C,R9*%
X149225000Y-93980000D03*
D15*
X159385000Y-93980000D03*
%TD*%
D14*
%TO.C,R10*%
X149225000Y-91440000D03*
D15*
X159385000Y-91440000D03*
%TD*%
D18*
%TO.C,C8*%
X143510000Y-105410000D03*
D14*
X146010000Y-105410000D03*
%TD*%
%TO.C,R6*%
X130810000Y-87630000D03*
D15*
X140970000Y-87630000D03*
%TD*%
D23*
%TO.C,J3*%
X165735000Y-88245000D03*
X163195000Y-88245000D03*
D24*
X168275000Y-88245000D03*
%TD*%
D16*
%TO.C,D3*%
X149225000Y-99060000D03*
D17*
X156845000Y-99060000D03*
%TD*%
D16*
%TO.C,D4*%
X156845000Y-84455000D03*
D17*
X149225000Y-84455000D03*
%TD*%
D14*
%TO.C,R5*%
X134620000Y-100965000D03*
D15*
X144780000Y-100965000D03*
%TD*%
D14*
%TO.C,R4*%
X130810000Y-85090000D03*
D15*
X140970000Y-85090000D03*
%TD*%
D18*
%TO.C,C4*%
X137795000Y-105410000D03*
D14*
X139795000Y-105410000D03*
%TD*%
D18*
%TO.C,C3*%
X150495000Y-104775000D03*
D14*
X152495000Y-104775000D03*
%TD*%
D25*
%TO.C,J2*%
X132715000Y-109220000D03*
D26*
X132715000Y-106680000D03*
X132715000Y-104140000D03*
%TD*%
D18*
%TO.C,C1*%
X156845000Y-104775000D03*
D14*
X158845000Y-104775000D03*
%TD*%
%TO.C,R1*%
X147955000Y-109855000D03*
D15*
X137795000Y-109855000D03*
%TD*%
D14*
%TO.C,R8*%
X149225000Y-88900000D03*
D15*
X159385000Y-88900000D03*
%TD*%
M02*
